<svg version="1.1" id="Layer_1" xmlns="http://www.w3.org/2000/svg" x="0" y="0" viewBox="0 0 1328.4 256.7" xml:space="preserve"><style>.st26,.st27,.st4,.st7,.st8{fill-rule:evenodd;clip-rule:evenodd;fill:#131c14}.st26,.st27,.st7,.st8{fill:#4e3125}.st26,.st27,.st8{fill:#b18f85}.st26,.st27{fill:#bd212f}.st27{fill:#8a0e21}.st46{fill:#fff}.st50,.st74,.st75,.st79{fill-rule:evenodd;clip-rule:evenodd;fill:#452427}.st74,.st75,.st79{fill:#5a5831}.st75,.st79{fill:#5d262b}.st79{fill:#866555}.st82{fill:#7b5b4c}.st94,.st95{fill-rule:evenodd;clip-rule:evenodd;fill:#fff}.st95{fill:#830d17}.st119{fill:#435473}</style><g id="Layer_1_1_"><script>var pmblock = 1.4;</script><path d="M178.2 113.1a59.8 59.8 0 11-119.7 0 59.8 59.8 0 01119.7 0z" fill="#dbd1cf"/><path d="M104.1 15.2c-2.2.2-4 .5-5.9 1.7-2.7 1.7-5.9 2.4-8.7 3.9-1.9 1-3.8 1.9-5.4 3.3-1.5 1.3-3.1 2.2-4.7 3.4-2.1 1.7-3.7 3.9-5.5 5.8-1.3 1.4-2.5 2.8-4 4-1.5 1.3-2.5 3.3-4.4 4.2-1.2 1.6-2.6 3.1-4 4.6-1.7 1.1-3.1 2.6-2.7 4.8.2 1.3-.7 3-.9 3.9 1.4-1.2 3.7-2.3 2.1-4.4.7-1.9 3.8-1.2 5.4-2.4 2.1-1 4.1-1.9 6-3.1 2-.8 3.8-2.1 5.7-3.1 1.8-1.5 3.9-2.5 5.8-3.8A85.5 85.5 0 00102 21.7c1.2-1.4 2.1-3 2.2-4.8.3-.3.7-1.8-.1-1.7z" fill-rule="evenodd" clip-rule="evenodd" fill="#46523b"/><path d="M194.6 135.3c.1-.2-.1-.7-.1-1.1l-.2-1.2-.1-1.1-.2-1.1v-1.3l.2-1.1.5-1.2.6-.8c.1-.3.4-.4.7-.5.3-.1.6.2.8.3.2.1.5.6.5.7.1.3.5.7.8.9l.5.7c.3.3.7.4 1.2.4.7 0 1-.7 1.4-1.2.5-.7.7-1.5 1.2-2.3a4 4 0 00.5-1.8c0-.6.3-1.1.4-1.7l.2-2.1c.2-.7.7-1.3.7-2.1 0-.5.6-1.3.7-1.8l.4-.8c.2-.3.6-.2.8-.2.4.1.5.3.7.5l.6.7c.3.3.3.4.7.5.4.1.6-.2.8-.3l.7-.7.5-.8c.1-.3.3-.5.6-.6.4-.2.8.1 1 .2.3.2.7 0 .9-.1l.7-.5.7-.7.7-.6c.4-.2.6 0 .7.2.2.2.2.6.2.9l-.1 1.1v1c.1.4.1.7.3 1l.5.7.5.8.2 1c0 .3-.3.7-.5 1l-.4.7c-.2.4-.4.5-.5.9-.1.6.3.5.7.5s.7 0 1 .2c.2.1.2.7.2.9l-.1 1.1-.2 1.1-.5.9-.6.8-.7.7-.7.6-.5.7c-.1.4 0 .6.3.7h1.2c.3 0 .5.4.6.6.2.3-.1.9-.2 1.2l-.3 1-.5 1.1-.9.8-1 1c-.4.4-.7.6-1.2.8l-1.4.7-1.3.7a4 4 0 01-1.8.5c-.7 0-1.5.5-2.1.6-.8.2-1.8.1-2.5-.1l-2.9-.5c-.8-.1-2.4-.4-3-1-.4-.4-1.5-.6-2-1l-.7-.9c.4.6.2-.1.1-.2z" fill-rule="evenodd" clip-rule="evenodd" fill="#203723"/><path d="M211.3 121l-.8 1.2c-.4.4-.7.5-.8.8l-.5.7-.4.7-.3.9-.3.8-.5.7-.4.7c-.2.4-.3.7.2.7.3 0 .4-.4.5-.6l.5-.7.4-.8.2-.9.3-.9.5-.9.5-.7.5-.6.5-.7-.1-.4zm2.8 4.7c-.2.3-.4.7-.7.9l-.7.5-.7.4-.7.5-.5.7-.6 1.2.5.2c.4.1.4 0 .5-.5l.3-.8c.1-.3.2-.5.5-.7l.7-.5.6-.5c.2-.2.4-.3.5-.6.3-.3.4-.9.3-.8z" fill-rule="evenodd" clip-rule="evenodd" fill="#2f4727"/><path class="st4" d="M205.8 115.3l-.4.2-.4.8c-.1.5-.7 1.2-.7 1.8 0 .7-.5 1.4-.7 2-.2.7-.1 1.4-.2 2-.1.5-.4 1.2-.4 1.7 0 .6-.2 1.3-.5 1.8-.5.7-.7 1.6-1.2 2.3-.3.5-.7 1.2-1.4 1.2-.5 0-.9-.1-1.2-.4-.2-.2-.3-.6-.5-.7l-.4-.3-.3.5c-.1.3-.2.7-.4.9l-.5.7-.7.7c-.4.1-.7.4-1 .6l-.6.5v.3l.1 1.1.2 1.2.1 1.1.3.8c.3.3.4.7.7.9.5.4 1.6.6 2 1 .6.6 2.2.9 3 1l2.9.5c.8.2 1.7.3 2.5.1.6-.2 1.5-.6 2.1-.6.7 0 1.3-.3 1.8-.5l1.3-.7 1.4-.7c.5-.2.9-.5 1.2-.8l1-1c.2-.2.9-.6.9-.8l.5-1.1.3-1c.1-.3.3-.8.2-1.2l-.1-.2c-.2 0-.4.1-.5.3l-.6.7-.7.5c-.1.1-.7.5-1 .3-.5-.2-.4-.3-.7-.6l-.5-.7-.5-.9-.5-.8-.5-.6c-.5 0-.6.1-.9.2l-.7.5c-.4.2-.9.6-1.4.5-.3-.1-.6-.2-.7-.7l-.2-1.3v-1.2l.1-1.1.2-1.1.2-1.3.2-1.1.2-1 .1-1.1.1-1.1.1-1.1-.2-1-.1-.3-.4-.4-.6-.7c-.2-.2-.3-.4-.7-.5l-.7-.1z"/><path d="M188.7 69.1c-.4.1-1 1-1.1 1.1l-1.2 1.1c-.2.2.7 1.6.7 1.7.3.5.4 1.2.6 1.7l.6 1.7.7 1.6c.3.5.4 1.2.5 1.8.1.6.6 1.2.7 1.7l.7 1.7.6 1.2c.2.3.5 1.4.6 2.1.1.6.4 1.1.6 1.7.1.5.6 1 .7 1.6l.3 1.2.2.5.2.4.2.5.1.5v.6c0 .2 0 .3-.2.5l-.2.2-.4.6-.1.4.2.4.2.5c.2.2.5.2.8.3.2-.1.3.1.5.2l.2.4.1.5v.1l.1.3.2.5.1.4.1.5v.3l.1.2.7 1.5c.3.6.3 1.1.5 1.8l.5 1.8.2.2c.7.7.1 1.2-.2 1.5l-.7.7c-.1.1-.4.3-.8.3l-.7-.2c-.2-.1-.1-.1-.2.2l-.1.7-.2.7-.1.6-.1.5.3.4.5.4.4.5.3.4.3.4.1.1.5.8.7 1.5.5 1.8c.1.7.4 1.2.6 1.7.3.7.2 1.2.3 2l.2 2.1c0 .6-.3 1.3-.5 1.8l-.3 2V126.3l-.1.5-.2.5-.1.5-.1.5-.1.5-.2.5-.2.4-.3.5-.1.6-.6 1.7c-.3.7-.3 1.3-.5 1.8-.2.6-.2 1.6-.3 2l-.5 1.8c-.1.7-.4 1-.6 1.7l-.7 1.5c-.2.5-.7 1-.9 1.4-.4.6.6 1.4.7 1.7.4.6.5 1.2.7 1.7.2.6.6 1 .9 1.4.7 1 .3.5 1 .3l.5-.8.9-1.5c.3-.4.7-.8.9-1.4l.7-1.5c.2-.5.6-1 .7-1.5.2-.7.5-.9.7-1.5l.6-1.7c.2-.5.7-.9.7-1.5.1-.8.4-1.2.5-1.8l.5-1.8.5-1.8c.2-.6.6-1.4.5-1.8.2-.3.2-.9.3-1.2l.3-2 .3-2c.1-.9 0-1.3.2-2.1l.2-2.1.1-.3v-.1l.1-.5v-.5l.1-.5-.1-.6v-.6-.7l-.1-.6-.1-.6v-.6l.1-.5.2-.4.2-.4v-.1c0-.6.2-1.1.3-1.5.3-.9-.4-1.2-.7-1.5-.3-.3-1.8-.3-2-.3-.6-.1-.7-1-.7-1.5l-.5-1.8c-.2-.6-.2-1.4-.2-2.1v-2.3l-.3-.3c-.4-.1-.8-.3-1-.6l-.3-.5c-.2-.3-.5-.7-.5-1.1v-.2-.1l-.1-1.3-.2-.4c-.2-.3-.5-.1-.7-.5a7 7 0 01-.3-1.2l-.1-.6-.2-.6-.1-.5v-.6l-.1-.5-.1-.5-.2-.5-.1-.3-.3-1.3c-.1-.6-.6-1.1-.7-1.6-.2-.5-.7-1-.9-1.4l-.7-1.5c-.4-.6-.5-1.1-.7-1.5-.4-.6-.4-.9-.6-1.7-.1-.5-.6-.9-.7-1.6l-.2-.2c-.3-.3-.4-3-.7-3.7-.5-.7-.4-1.2-.7-1.7a6 6 0 01-.7-2c-.1-.5-.7-1.1-.9-1.4l-.7-1.6c-.4-.9-.8-.7-.9-.7l.1-.5z" fill-rule="evenodd" clip-rule="evenodd" fill="#765746"/><path d="M116.2 35.8l-2.1.1c-1 .1-2 1.7-2.1 2.8l-.1 5.1c-3 .3-5.9.7-8.8 1.4l-1.7-4.8c-.4-1-1.7-2-2.6-2h-.2l-4.1 1.2-4 1.4c-.9.5-1.4 2.2-1.1 3.3l1.5 4.9a55.2 55.2 0 00-8 4.2l.1-.1-3.1-4.1a3.7 3.7 0 00-2.5-1.2c-.3 0-.6 0-.8.2l-3.5 2.4-3.4 2.6c-.7.7-.7 2.5-.1 3.5l2.9 4.2.1-.1c-2.3 2-4.5 4.2-6.5 6.5l.1-.1-4.2-2.9c-.5-.3-1.1-.5-1.8-.5s-1.3.2-1.7.5a27 27 0 00-2.6 3.4c-.9 1.2-1.7 2.3-2.4 3.5-.5.9.2 2.6 1 3.3l4.1 3.1.1-.1a87.3 87.3 0 00-4.2 8L49.6 84h-1c-1 .1-2 .5-2.4 1.2-.5.9-1 2.7-1.4 4-.5 1.3-.9 2.7-1.2 4.1-.2 1 1 2.5 2 2.8l4.8 1.7c-.7 2.9-1.1 5.8-1.4 8.8l-5.1.1c-1.1 0-2.6 1.1-2.8 2.1l-.1 4.3.1 4.3c.1 1 1.7 2 2.8 2.1l5.1.1c.3 3 .7 5.9 1.4 8.8l-4.8 1.7c-1 .4-2.2 1.8-2 2.8l1.2 4.1 1.4 4c.5.9 2.2 1.4 3.3 1.1l4.9-1.5c1.2 2.8 2.6 5.5 4.2 8l-.1-.1-4.1 3.1c-.9.7-1.5 2.4-1 3.3l2.4 3.5 2.6 3.4c.7.7 2.5.7 3.5.1l4.2-2.9H66c2 2.3 4.2 4.5 6.5 6.5l-.1-.1-2.9 4.2c-.6.9-.7 2.7.1 3.5a27 27 0 003.4 2.6c1.2.9 2.3 1.7 3.5 2.4.9.5 2.6-.2 3.3-1l3.1-4.1-.1-.1c2.6 1.6 5.3 2.9 8 4.1l-1.5 4.9c-.3 1.1.2 2.8 1.1 3.3.9.5 2.7 1 4 1.4 1.3.5 2.7.9 4.1 1.2 1 .2 2.5-1 2.8-2l1.7-4.8c2.9.7 5.8 1.1 8.8 1.4l.1 5.1c0 1.1 1.1 2.6 2.1 2.8l4.3.1 4.3-.1c1-.1 2-1.7 2.1-2.8l.1-5.1c3-.3 5.9-.7 8.8-1.4l1.7 4.8c.4 1 1.8 2.2 2.8 2 1.4-.3 2.7-.7 4.1-1.2l4-1.4c.9-.4 1.4-2.2 1.1-3.3l-1.5-4.9c2.8-1.2 5.5-2.6 8-4.1l-.1.1 3.1 4.1c.7.9 2.4 1.5 3.3 1 1.2-.7 2.4-1.6 3.5-2.4l3.4-2.6c.7-.7.7-2.5.1-3.5l-2.9-4.2-.1.1c2.3-2 4.5-4.2 6.5-6.5l-.1.1 4.2 2.9c.9.6 2.7.7 3.5-.1 1-1.1 1.8-2.2 2.6-3.4l2.4-3.5c.5-.9-.2-2.6-1-3.3l-4.1-3.1-.1.1c1.6-2.6 2.9-5.3 4.1-8l4.9 1.5c1.1.3 2.8-.2 3.3-1.1.6-1.3 1-2.7 1.4-4l1.2-4.1c.2-1-1-2.4-2-2.8l-4.8-1.7c.7-2.9 1.1-5.8 1.4-8.8l5.1-.1c1.1 0 2.6-1.1 2.8-2.1l.1-4.3-.1-4.3c-.1-1-1.7-2-2.8-2.1l-5.1-.1c-.3-3-.7-5.9-1.4-8.8l4.8-1.7c1-.4 2.2-1.8 2-2.8-.3-1.4-.7-2.7-1.2-4.1l-1.4-4c-.4-.8-1.8-1.3-2.8-1.2l-.4.1-4.9 1.5a66.8 66.8 0 00-4.1-8l.1.1 4.1-3.1c.9-.7 1.5-2.4 1-3.3-.7-1.2-1.6-2.4-2.4-3.5l-2.6-3.4c-.4-.4-1-.5-1.7-.5s-1.3.2-1.8.5l-4.2 2.9.1.1c-2-2.3-4.2-4.5-6.5-6.5l.1.1 2.9-4.2c.6-.9.7-2.7-.1-3.5-1.1-1-2.2-1.8-3.4-2.6l-3.5-2.4-.8-.2c-.9 0-2 .6-2.5 1.2l-3.1 4.1.1.1a87.3 87.3 0 00-8-4.2l1.5-4.9c.3-1.1-.2-2.8-1.1-3.3-1.3-.6-2.7-1-4-1.4l-4.1-1.2h-.4c-1 .1-2.1 1.1-2.4 2l-1.7 4.8c-2.9-.7-5.8-1.1-8.8-1.4l-.1-5.1c0-1.1-1.1-2.6-2.1-2.8l-4.3-.1c-.8-.2-1.5-.2-2.2-.2zm-8.1 23.1l-1.9 37.3L70 86.6a55.1 55.1 0 0138.1-27.7zm20.5 0a55.3 55.3 0 0138.1 27.7l-36.1 9.6-2-37.3zm-65 47.1l34.9 13.5-20.4 31.4A54.9 54.9 0 0163.6 106zm109.5 0a55 55 0 01-14.5 44.9l-20.4-31.4 34.9-13.5zm-54.7 27.9l23.5 29.1a54.7 54.7 0 01-47 0l23.5-29.1z" fill="#b8adac"/><path class="st7" d="M194.3 81.3l-1 .4c-.6.2-1.2.6-1.7.9l-.6.4v.1l.6 1.2c.2.3.5 1.4.6 2.1.1.6.4 1.1.6 1.7.1.5.6 1 .7 1.6l.3 1.2.2.5.2.4.2.5.1.5v.6c0 .2 0 .3-.2.5l-.2.2-.4.6-.1.4.2.4.2.5c.2.2.5.2.8.3.2-.1.3.1.5.2l.2.4.1.5v.1l.1.3.2.5.1.4.1.5v.3l.1.2.7 1.5.4 1.6.6-.3 1.2-.1h1.2l1.1.1.4.2.3.7v1.2l-.1 1.1.2 1 .3.9.2 1.1c0 .3.3.5.5.7.2.4.4.3.7.2l.4-.3h-.2c-.6-.1-.7-1-.7-1.5l-.5-1.8c-.2-.6-.2-1.4-.2-2.1v-2.3l-.3-.3c-.4-.1-.8-.3-1-.6l-.3-.5c-.2-.3-.5-.7-.5-1.1v-.2-.1l-.1-1.3-.2-.4c-.2-.3-.5-.1-.7-.5a7 7 0 01-.3-1.2l-.1-.6-.2-.6-.1-.5v-.6l-.1-.5-.1-.5-.2-.5-.1-.3-.3-1.3c-.1-.6-.6-1.1-.7-1.6-.2-.5-.7-1-.9-1.4l-.7-1.5c-.4-.6-.5-1.1-.7-1.5-.4-.6-.4-.9-.6-1.7 0-.6 0-.8-.2-1z"/><path class="st8" d="M196.5 147.1l-.7.2-1.2 1.1c-.3.3-.7.7-.8 1.1l-.5 1.1-.1 1.1v1.2l.1.4.3.9c-.1.4 0 .7-.2.9l-.6.5-.7.5-.9.3-.7.2-.3.2c-.2.2-.5.2-.6.5-.1.3-.2.4-.2.9s0 .6-.2.9l-.2.8-.2.9-.4.7c-.1.3-.5.5-.6.7l-.5.7-.5.7-.1.1v.1l-.1.1v.1l-.2.3v.1l-.1.2v.1l-.1.2s-.6.7-.7.5l-.2-.9-.3-.8c-.1-.1-.4-.8-.6-.5l-.3.8a3 3 0 00-.2 1l-.1 1.1-.2 1v1.2c-.1.3-.1.6-.3.8l-.1.2-.1.1v.1l-.2.3c-.2.3-.2.5-.5.7l-.1.1-.2.3-.4.7-.5.7-.6.6-.3.3-.5.7-.5.7-.7.5-.7.7v.1l-.4.5-.1.1h-.1l-1.3 1c-.2.3-.3.6-.5.7l-.6.6-1 1.2-1.1 1.4c-.6.6-1 1.3-1.3 2.1-.3.7-.7 1.8-.5 2.6.2.5.2.7.8 1 .4.2 1.4.7 1.8.4l.9-.6.7-1 .7-.8.3-.3.3-.6.5-.7c.2-.2.4-.3.5-.6l.5-.7.7-.6.7-.7.5-.7.5-.7.5-.7.5-.7.6-.6.5-.7.5-.6.6-.6.4-.4v-.1l.5-.8.6-.8.5-.7.5-.7.5-.7.5-.7.5-.8.6-1 .5-.7c.1-.2.5-.4.5-.7V166c0-.5.1-.6.2-.9l.5-.8.5-.7.5-.6.7-.5c.2-.2.6-.4.7-.7l.9-1.2.7-1 1.1-1.4 1.2-1.6c.4-.7 1-1.2 1.4-1.8.3-.6.6-1.1.8-1.8.2-.7.4-1.3.4-2.1 0-.6.1-1.5-.3-2-.3-.5-.6-1.2-1.2-1.2.1-.6-.4-.6-.8-.6z"/><path d="M202.2 116.9l-.7.1c-.3 0 .2.7.2.7l.3.8c.2.4.5.2.7.2l.5-.7.4-.8c.2-.5-.5-.4-.7-.4h-.4l-.3.1zm-.3 6.3c-.3.2-.3.6-.4 1.1l-.2.9-.1 1.1-.2 1-.3.9-.3.8-.2.9c0 .3-.3.7-.4 1l-.4.8-.3 1.2-.2.9-.4.8a8 8 0 01-.4.9l-.2 1c-.2.6-.1.3.2.6.3.3.7-.4.8-.5.2-.2.3-.7.4-1 .1-.4.5-.8.5-1.2l.2-1.1.4-1c0-.3.3-.7.5-1l.2-1 .2-1 .5-1.1.2-1.2.2-1.1.2-1v-1.2l-.5-.5z" fill-rule="evenodd" clip-rule="evenodd" fill="#ad8f77"/><path d="M191.3 156.8l-.2.1c-.1.2-.1.7-.5.7-.4.1-1.3-.4-1.2 0h-.2v.8l.7.5c.3.2.5.3.9.3s.6 0 .9-.2c.2-.1.6-.3.7-.5 0-.1.3-.7.1-.9-.2-.2-.2-.4-.6-.5l-.6-.3z" fill-rule="evenodd" clip-rule="evenodd" fill="#4c492d"/><path d="M189.3 158.1l-.2.7-.2.8-.2.9-.4.7-.2.3.5.4c.3.2.6.5.7.8l.5.9.2.8.3-.6.5-.7.5-.6.6-.5-.1-.4-.5-1-.5-.7-.5-.7-.7-1c-.1.1-.2 0-.3-.1z" fill-rule="evenodd" clip-rule="evenodd" fill="#4c3529"/><path d="M189.6 165.6l-.6.5c-.1.2-.2.7-.4.7l-.7.4c-.5.3-.1.2-.5.7-.1.2-.2.6-.5.7-.1.1-.5.5-.7.5-.3 0-.7-.5-.9-.2-.2.2-.4-.2-.4.6v1.2c-.1.4 0 .7-.2 1l-.5.7-.5.7a3 3 0 01-.5.7l-.7.6-.6.7-.6.5-.6.6-.5.6-.7.6-.5.6-.8.5-.7.5c-.4 0-.7 0-1-.2l-.8-.6-.4.5-1 1.2-1.1 1.4c-.6.6-1 1.3-1.3 2.1-.3.7-.7 1.8-.5 2.6.2.5.2.7.8 1 .4.2 1.4.7 1.8.4l.9-.6.7-1 .7-.8.3-.3.3-.6.5-.7c.2-.2.4-.3.5-.6l.5-.7.7-.6.7-.7.5-.7.5-.7.5-.7.5-.7.6-.6.5-.7.5-.6.6-.6.4-.4v-.1l.5-.8.6-.8.5-.7.5-.7.5-.7.5-.7.5-.8.6-1 .5-.7c.1-.2.5-.4.5-.7v-1.2-.6z" fill-rule="evenodd" clip-rule="evenodd" fill="#9f8974"/><path d="M183.7 165l.4 1c.1.4-.1.7-.2 1v1.2c0 .4.4.4.5.6l.8.3c.3.1.9 0 1.1-.1.4-.1.4-.3.5-.7l-.6-.5-.6-.5-.3-.9a2 2 0 01.1-1.1v-1.2l-.1-1.1c-.1-.5-.3-.7-.5-1-.3-.4-.5-.3-1-.4-.3 0-.4.5-.5.7v1.2l.2 1.1.2.4z" fill-rule="evenodd" clip-rule="evenodd" fill="#213020"/><path d="M184.1 175.1l-.7.4-.6.6-.7.5-.6.7-.6.7c-.2.2-.2.5-.5.7l-.5.7-.6.6-.5.6-.8.3c-.4-.1-.7 0-.9-.2-.3-.2-1.1-1-.9-.7-.3.2-.5.1-.6.5l-.3 1c-.1.4-.5 1-.5 1.4l-.1 1.4v1.3c.1.3 0 .8.2 1l.1-.1.7-1 .7-.8.3-.3.3-.6.5-.7c.2-.2.4-.3.5-.6l.5-.7.7-.6.7-.7.5-.7.5-.7.5-.7.5-.7.6-.6.5-.7.5-.6.6-.7z" fill-rule="evenodd" clip-rule="evenodd" fill="#4b342d"/><path d="M130.3 216.8c-1.5 0-3.2.7-4.1 1.9.6 1.3 2.4 2 3.5 2.9 1.7.7 3 1.9 4.3 3.1 1.4 1 3 1.9 4.4 3 1.2 1.1 2.6 2 3.4 3.4 0 1.6.6 3 1.8 4.1 1.1.7 2.9-.1 3.3 1.7 1.1.9 1.2 2.8 2.8 2.9 1.6.3 2.7-.4 4.3-.6 1.4-.2 2.1-1.9 3.5-2.4l3.7-1.4c1.1-.6 1.6-1.6.4-2.6-1.3-1.1-2.7-.7-4-1.2a23 23 0 01-4.8-2.2 88 88 0 01-3.9-2.6c-1.3-.9-2.4-1.9-3.5-3-1.2-1.2-2.1-2.6-3.7-3.5-1.3-.7-2.8-1.3-4.2-1.8-1.4-.7-3-.9-4.5-1.6-.9-.3-1.8-.1-2.7-.1z" fill-rule="evenodd" clip-rule="evenodd" fill="#887974"/><path d="M138.4 226l-.8 1.2.7.5c1.2 1.1 2.6 2 3.4 3.4 0 1.6.6 3 1.8 4.1 1.1.7 2.9-.1 3.3 1.7 1.1.9 1.2 2.8 2.8 2.9h.1c0-.2-.1-.3-.4-.5-.2-.1-.5-.2-.6-.5-.1-.3-.2-.5-.1-.9l.4-1.1.1-.1.9-.5.7-.6.6-.8c.2-.3.6-.6.2-.6l-1.1-.1-1.1-.1c-.5 0-.5-.1-.8-.3l-.7-.6-.6-.7-1-.7-1-.7-1-.7-1-.7-.9-.7-1-.8-1.2-.7-1.2-.8c-.1-.4-.4-.6-.5-.6z" fill-rule="evenodd" clip-rule="evenodd" fill="#50302f"/><path d="M143.9 231.4l-.7-.4h-.7c-.3 0-.2.3-.2.6 0 .4.1.5.2.7l.3.5.3.5.5.4.5.3.7.1.7-.2c.2-.1.2-.4.2-.7 0-.3-.1-.4-.3-.6l-.5-.5a.8.8 0 01-.4-.4l-.6-.3z" fill-rule="evenodd" clip-rule="evenodd" fill="#81604e"/><path d="M145.1 232.4l-.7-.4c-.3-.1-.5.1-.7.2-.2.1-.3.4-.3.5-.1.2.1.5.2.7l.4.4.6.2c.2.1.6 0 .7-.1.3 0 .3-.3.4-.5.2-.2-.1-.6-.2-.7l-.4-.3z" fill-rule="evenodd" clip-rule="evenodd" fill="#ae9085"/><path d="M150 233.9l-.7.3c-.3.1-.4.4-.5.5l-.3.5-.3.5c-.1.2-.2.3-.2.7 0 .2.6 0 .6 0 .2 0 .3-.3.4-.4l.4-.5.4-.4.5-.4.5-.3.3-.4c.1-.1-.6-.1-.7-.2l-.4.1z" fill-rule="evenodd" clip-rule="evenodd" fill="#bb9690"/><path d="M160.3 232l-.6.4-.7.2-.7.2-.6.3-.5.4-.4.5-.7.2-.8.1h-1.7l-.4.1-.7.2-.6.3-.5.3-.5.3-.5.3-.6.3c-.2.1-.3.3-.5.3l-.5.3-.4.4-.3.7-.2.8c.3.5.7.9 1.5 1 1.6.3 2.7-.4 4.3-.6 1.4-.2 2.1-1.9 3.5-2.4l3.7-1.4c1.1-.6 1.6-1.6.4-2.6-.2-.2-.6-.5-1-.6zm-12.5-6l-.9.3-.5.3c-.1.1.3.6.4.7l.5.5.7.6.5.5.7.5.7.5.7.5.7.5.7.4.7.4.6.3.9.4.7.4.7.2c.3.1.7-.1.8-.2l.7-.4.7-.4.7-.3.3-.1-1.3-.2c-1.7-.5-3.3-1.3-4.8-2.2a88 88 0 01-3.9-2.6l-1-.6z" fill-rule="evenodd" clip-rule="evenodd" fill="#a28a70"/><path d="M107.4 216.3h-.7c-.6 0-.7 0-1.2.3-.5.4-1.1.5-1.6.8-.7.5-1.4.8-2 1.4a7 7 0 01-1.7 1.3l-1.5.9-1.2.5c-.5.3-.6.4-.8.7-.2.5-.2.4-.5.7l-.7.5-.7.5-.7.4-.7.4-.7.4-.4.2-.3.2h-.2l-.8.1h-1.2l-1 .2-.9.2c-.2.1-.6.1-.7.4l-.5.7-.1.3v.5l-.1 1.1c0 .3-.6.3-.9.5l-1 .7-1 .7-.9.7-1 .5-.3.1c-.2.2-.6.3-1 .3-.3 0-.6.2-.8.3l-.8.3c-.3.1-.4.4-.5.7l-.5.7a3 3 0 00-.2.9v.6h.6l1.2.2 1.1.4c.3.1.6.4.7.6l.7.7c.5.3.6.5.9.9l.8.7 1.2.6 1.1.4 1.2.2 1.2.2h1.4l1-.2.7-.5.2-1.1.7-.8.7-.6.6-.6h1.2l.9-.2.9-.6.7-.5c.4-.2.5-.4.7-.6.1-.1-.3-.8-.4-.9l-.5-.7c-.4-.6-.2-.1-.1-.7l.8-.5.7-.5.7-.6.7-.6.7-.5a3 3 0 011-.2l1-.2 1.1-.3c.3-.1.2-.7.2-1l.2-1.1c.1-.4.3-.5.5-.7l.7-.7.9-.8c.2-.3.6-.5.8-.6l1-.5 1-.6.9-.7.9-.8.8-.7.7-.9.7-.6.7-.5.7-.5.7-.7.6-.9c.3-.5-1.2 0-1.8-.1-.6-.1-1.1-.3-1.8-.3l-2.1-.2-1.9-.1c-.1-.2-.4-.2-.7-.2z" fill-rule="evenodd" clip-rule="evenodd" fill="#987858"/><path d="M78.9 233l-.3.1c-.3.1-.4.4-.5.7l-.5.7a3 3 0 00-.2.9v.6h.6l1.2.2 1.1.4c.3.1.6.4.7.6l.7.7c.5.3.6.5.9.9l.8.7 1.2.6 1.1.4 1.2.2 1.2.2h1.4l1-.2.7-.5.2-1.1.7-.8.3-.3-.6-.9-.7-.8a4 4 0 01-1.3-.5l-1-.5-1.3-.3-1.5-.1-1.2-.1c-.4-.1-.7 0-1.1-.2l-1.1-.2-1.2-.2c-.3 0-.6-.2-.8-.3l-.9-.3-.7-.4-.1-.2z" fill-rule="evenodd" clip-rule="evenodd" fill="#b6936e"/><path d="M107.4 216.3h-.7c-.6 0-.7 0-1.2.3-.5.4-1.1.5-1.6.8-.7.5-1.4.8-2 1.4a7 7 0 01-1.7 1.3l-1.5.9-1.2.5c-.5.3-.6.4-.8.7-.2.5-.2.4-.5.7l-.7.5-.7.5-.1.1.6-.1a3 3 0 011-.2l1-.2 1-.2 1-.2 1.2-.1 1-.2h1.2l1.1.1c.3.1.7.1.9.3.2.2.5.2.6.5.1.2.4.6.3.9-.1.2-.2.6-.5.7-.2.1-.4.4-.8.5-.3.1-.6.1-.8.3l-.7.5-.5.7-.7.6c-.2.1-.7.2-.7.4l-.5.7-.9.2-.9.4-.9.5-.9.5-.8.7c-.3.2-1.1.3-.8.5.3.3.1.4.8.5.2 0 .7.1.7.4 0 .4 0 .7-.2.9l-.5.6-.6.5c-.2.2-.3.3-.7.4-.4.1-.5.1-.8-.2-.4-.2-.4-.3-.6-.6-.1-.2-.2-.9-.7-.4-.1.1-.5.4-.5.6l-.3.8c-.3 0-.4.2-.8 0l-.8-.5-1-.5-.7-.4a3 3 0 00-1-.2h-1.2l-1.4.1h-1.2l-1.3-.3c-.3-.1-.7-.1-.9-.3-.3-.2-.7-.2-.9-.4-.1-.1-.5-.5-.7-.5l-.8.3-.3.3-.2.4-.5.7-.1.1-.2.8v.2l.3-.2.5-.7c.1-.3.1-.5.4-.7.2-.2.4-.6.7-.6l.9.3.9.2.8.3.8.3.9.2 1.1.2 1 .2c.5 0 .8 0 1.2.2l.9.3.8.4.7.5.7.6.6.6.5.7.3.6.2-.2.1-.1.3-.3.2-.2.5-.4.6-.6h1.2l.5-.1.4-.2.9-.6.7-.5c.4-.2.5-.4.7-.6.1-.1-.3-.8-.4-.9l-.5-.7c-.3-.4-.3-.3-.2-.4l.1-.3.1-.1.7-.4.7-.5.4-.3.3-.3.7-.6.7-.5.2-.1.2-.1h.5l1-.2 1.1-.3.1-.1c.2-.2.1-.7.1-1l.2-1.1c.1-.4.3-.5.5-.7l.7-.7.7-.6.2-.3.8-.6 1-.5 1-.6.9-.7.9-.8.5-.4.4-.4.4-.4.4-.5.3-.3.4-.3.7-.5.7-.5.7-.7.3-.5a2 2 0 00-.4-.6h-.3l-.4.1h-.5l-.5-.1-1.3-.2-2.1-.2-1.4-.1h-.5c-.2.6-.5.6-.8.6z" fill-rule="evenodd" clip-rule="evenodd" fill="#482f2d"/><path d="M109.8 220.6c-1.3 0-2.6 0-3.8.7-.7.5-1.8.8-2.7 1.2-.4.2-1.2.3-1.6.3l-.3.1c.2 0 .8.7.9.7.3.3.2.7.2.9 0 .3-.3.7-.5.9-.2.3-.5.6-.9.8-.4.3-.7.4-.9.7l-.8.7c-.3.3-.6.4-1 .6l-.9.7-.7.7-.7.7a3 3 0 01-.7.5l-.6.6-.4.7c-.1.3-.7.5-.9.6-.3.2-.3.5-.4.8-.2.6.2.5.5.6.4.1.5-.3.6-.5l.6-.8.5-.6.7-.4a3 3 0 011-.2l.9.1.4-.3.7-.6.7-.6.7-.5a3 3 0 011-.2l1-.2 1.1-.3c.3-.1.2-.7.2-1l.2-1.1c.1-.4.3-.5.5-.7l.7-.7.9-.8c.2-.3.6-.5.8-.6l1-.5 1-.6.9-.7.9-.8.8-.7.3-.3c.1.2-1.8.1-1.9.1zm-15.5 3.8s-.1 0 0 0l-.4.2h-.1l-.4.3-.6.3-.2.1c-.1.1-.6.3-.7.5l-.4.7c-.1.2-.2.5-.5.7-.2.2-.3.5-.6.6-.3.1-.4.3-.8.3h-1.2l-.9-.3a3 3 0 01-.7-.5l-.3-.3-.1.1-.1.3v.5l-.1 1.1v.1c.2.2.4.3.8.3h1.2c.2 0 .7 0 1-.2l1.1-.4.7-.5c.2-.2.5-.4.6-.7l.5-.7.4-.8c.1-.2.2-.6.4-.7l.6-.5.8-.5zm-2.3 7.9c-.2 0-.7.5-.9.7l-.8.5c-.5.2-.1.5 0 .7.2.5.7-.1.8-.2l.7-.7.5-.7c.2-.3 0 0-.3-.3z" fill-rule="evenodd" clip-rule="evenodd" fill="#664941"/><path d="M101.2 225h-.6c-.5 0-.6 0-1 .3.2-.4-.8.3-1.2.5l-1 .6c-.3.1-.6.5-.9.7-.4.2-.6.7-.8.9l-.6.9-.7.7-.6.7c-.3.5 0 .7.1.9.1.1.7-.7.7-.7l.9-.7.8-.7.7-.6.7-.4c.2-.2.5-.3.9-.3.3 0 .7-.4.8-.5l.8-.4.7-.4c.4-.2.3-.3.5-.6s0-.7-.1-.9h-.1zm-9.6.6l-.8.1h-1.2l-1 .2-.9.2-.6.2.1.6.7.5c.2.2.6.2.9.3.4.1.7-.1 1-.2l.7-.5.7-.5c.2-.1.3-.6.4-.7l.1-.3c0 .2 0 .2-.1.1zm4.4 7l-.7.1-.8.7c-.3.2-.2.6-.2.9-.1.5 0 .6.1.8.1.3.6-.1.8-.3l.5-.7c.2-.3.5-.4.7-.5.4-.3.1-.6.1-.7a.5.5 0 00-.5-.3z" fill-rule="evenodd" clip-rule="evenodd" fill="#bd9b78"/><path class="st26" d="M82.9 187.2c-.3 0-.6.4-1.1.4-.2 0-.6.4-.7.5-.4.2-.5.2-.7.5l-.2 1-.2 1 .2 1c.1.5.6.8.9 1.2.8.8 1.9 1.4 2.9 2 1.5.9 3.2 1.6 4.8 2.4 1.3.6 2.4 1.4 3.8 1.8l.5.2a6 6 0 011.4.7c.5.4 1.1.6 1.6.8.9.4 2 .4 2.9.8.9.4 2.8.3 3.8.3l1.8.1h1.4c.4 0 .5-.3.5-.7l-.4-.8c-1.9-1.7-3.3-3.9-5-5.6l-.6-.7-.8-.4a3 3 0 01-.7-.5l-1-.4-1.2-.5-1-.5c-3.7-1.3-7.5-2.4-11-4.1-.4-.2-.9-.2-1.3-.2l-.6-.3zM132.4 202.1l5.2-7.7c.4-.6 1-.7 1.4-.9 4-1.8 10.4-4.4 14.6-6.1.8-.3 1.6-.4 2.2-.2l2.3 1c.4.2.6.8.7 1.1l2.3 11.1c.2.8.6 1.2.8 1.4l1.6 1.9c.4.4.2.9 0 1.2l-4 3.8-27.1-6.6z"/><path class="st27" d="M157.4 187.9l.2.7c.1.4 0 .7-.3.9-.5.5-.9.6-1.7 1-4.4 2.1-8.6 4.6-12.8 7.1l-5.1 3.3c-.5.3-1.1 1.3-1.2 2.1l22.9 5.6 4-3.8c.3-.3.4-.8 0-1.2l-1.6-1.8c-.2-.3-.6-.6-.8-1.4l-2.3-11c-.1-.3-.4-1-.7-1.1l-.6-.4zM73.8 204.9a9.7 9.7 0 003.4-5.5c.1-.3.2-.7.4-.9.2-.3.1-.7.2-1 1.3-2.1 2.2-4.1 2.3-6.7l.2-1 .1-.9c.1-.3.5.5.7.7.4.2.5.5.8.6l.8.7c2.5 1.6 5 3.3 7.8 4.4l1.1.5.8.5c2.4 1.3 5 2.4 7.5 3.7l1 .5c.5.1 3.2 1.2 2.7 1.2-7.9 2.2-19.6 3.7-27.3 6l-1.2-1.6c-.4 0-.5-.3-.7-.4-.4-.2-.6-.5-.6-.8z"/><path class="st27" d="M134.6 200.7c.7-1.1 2.1-3.3 3.6-5 .9-1.1 1.7-1.4 2.4-1.7 4.1-1.8 13.9-5.5 13.9-5.5 1.1-.2 1.9.1 1.6.3l-19.8 11.5c-1.7 1.1-2 1-1.7.4z"/><path class="st7" d="M198.2 106l-.3.3-.6.7c-.1.1-.5.3-.8.3l-.7-.2c-.2-.1-.1-.1-.2.2l-.1.7-.2.7-.1.6-.1.5.3.4.5.4.4.5.3.4.3.4.1.1.5.8.7 1.5.5 1.8c.1.7.4 1.2.6 1.7.3.7.2 1.2.3 2l.1.5 1.1-.1c.3 0 .8.1 1-.2.1-.1.5-.3.5-.6 0-.5-.1-.7-.4-1l-.5-.8-.5-1-.4-.8-.4-.9-.5-.9c-.2-.2-.6-.6-.7-.9l.1-.9.4-.8.5-1c.2-.4.3-.5.2-.9l-.2-1-.6-.6-.7-1c0-.4-.2-.7-.4-.9z"/><path class="st7" d="M205.4 109l-.4.7c-.2.3-.2.5-.5.7l-.4.3c0-.2-.5 0-.7 0-.4 0 .1.7.2 1.1l.3.8.5.8.3.8c.2.4.3.4.3.8l.1 1.1v1.2l-.2 1.1c0 .3-.3.5-.5.7-.2.2-.2.6-.3.8l-.2 1-.1 1.2-.2 1.1-.1 1.1v1.2l-.2 1.6c0 .5 0 .9-.2 1.3l-.3 1.1-.2.9-.3.9-.2 1-.3 1.2-.5 1.1-.5 1.2-.5.8-.5 1-.4.8-.4.9-.4 1-.5 1.3-.7 1.3-.7 1.3-.6 1-.6.9-.2.3.5.7c.7 1 .3.5 1 .3l.5-.8.9-1.5c.3-.4.7-.8.9-1.4l.7-1.5c.2-.5.6-1 .7-1.5.2-.7.5-.9.7-1.5l.6-1.7c.2-.5.7-.9.7-1.5.1-.8.4-1.2.5-1.8l.5-1.8.5-1.8c.2-.6.6-1.4.5-1.8.2-.3.2-.9.3-1.2l.3-2 .3-2c.1-.9 0-1.3.2-2.1l.2-2.1.1-.3v-.1l.1-.5v-.5l.1-.5-.1-.6v-.6-.7l-.1-.6-.1-.6v-.6l.1-.5.2-.4.2-.4v-.1c0-.6.2-1.1.3-1.5.3-.9-.4-1.2-.7-1.5.2-.3-.1-.4-.5-.4z"/><path d="M194.6 92.7v.7c0 .2 0 .3-.2.5l-.2.2-.4.6-.1.4.2.4.2.5c.2.2.5.2.8.3h.1l.1-.1.6-.5c.1-.1.5-.3.5-.6s.2-.6-.2-.9l-.7-.5-.7-.6c.1-.2 0-.3 0-.4z" fill-rule="evenodd" clip-rule="evenodd" fill="#69584c"/><path d="M187.2 66.5h-.2l-.9.4-.5.2-.1.5.2.5.2.6.2.6.1.7.2.6.2.5.1.7v.4l.4.7c.3.5.4 1.2.6 1.7l.6 1.7.7 1.6c.3.5.4 1.2.5 1.8.1.6.6 1.2.7 1.7l.4 1 .3.7.3.5.1.1.2.4.1.2.5 1.3 1.3-.6.8-.4 1-.1c.3 0 .4.6.5.9l.4.9.1 1.2c0 .5-.2 1-.4 1.4l-.5.7-.3.8-.2.9v.9l.9.7.9.5.7.5.6.5c.2.1.3.5.5.7.2.3.2.5.2.9l.4.9.3.8.5.7.5.7.5.8.6.5.5.7c.2.3.3.3.7.5l.5.3v-1.2l-.3-.3c-.4-.1-.8-.3-1-.6l-.3-.5c-.2-.3-.5-.7-.5-1.1V98v-.1l-.1-1.3v.1l-.2-.4c-.2-.3-.5-.1-.7-.5a7 7 0 01-.3-1.2l-.1-.6-.2-.6-.1-.5v-.6l-.1-.5-.1-.5-.2-.5-.1-.3-.3-1.3c-.1-.6-.6-1.1-.7-1.6-.2-.5-.7-1-.9-1.4l-.7-1.5c-.4-.6-.5-1.1-.7-1.5l-.2-.3-.1-.3-.1-.2-.3-.9-.1-.3-.1-.1-.2-.3-.1-.2-.3-.6-.2-.2c-.3-.3-.4-3-.7-3.7-.5-.7-.4-1.2-.7-1.7a6 6 0 01-.7-2c-.1-.5-.7-1.1-.9-1.4a3 3 0 01-.4-.8l.1-.1-.1-.5-.2-.5-.2-.4-.2-.5-.2-.7-.2-.6c-.1-.2-.2-.1-.4 0l-.3.1-.2-.3-.3-.4a.8.8 0 00-.4-.2c-.4.4-.5.4-.6.4zm18.2 42.5l-.3.1-.2 1-.2.9c-.1.5 0 .6.2.8l.5.7.6.6.3.2.1-.3.2-.4.2-.4v-.1l.1-.7-.1-.1-.5-.8a.8.8 0 01-.2-.5c-.2.2-.2-.7-.4-.9l-.2-.3-.1.2zm-10.2.3l-.1.4.3.4.5.4.4.5.3.4.3.4.1.1.5.8.7 1.5.5 1.8c.1.6.4 1.2.6 1.7.2.4.2.8.2 1.2l.3-.2c.1-.2.4-.4.2-.9l-.3-.9-.3-.8-.3-.8-.4-.7-.2-1-.4-.7-.4-.7-.5-.7a3 3 0 00-.5-.7l-.7-.5c-.2-.1-.6-.3-.7-.5.1-.4 0-.5-.1-.5z" fill-rule="evenodd" clip-rule="evenodd" fill="#291c0f"/><path d="M171.7 120.8c.1-.2.3-.6.6-.7l.9-.1.8.2c.4.1.7-.1.9-.1.3-.1.3-.3.5-.5s.3-.6.3-.9l.1-1 .2-.9c.1-.3.3-.5.3-.8l.3-.7.4-.6.9-.1.9.1c.3 0 .5.3.7.5.2.2.3.5.3.7l.4.7c.2.4.2.5.5.7.3.2.5.3.8.1.4-.2.5-1 .6-1.5l.3-.7c.2-.2.5-.2.9-.2.3 0 .3.6.3.9l-.1 1.4c0 .7 0 1.1.3 1.7.1.3.5.3.7.5.4.2.4.5.6.7.2.2.4.4.4.8l.1.9v1l-.3 1.2-.1 1.1-.3.9-.3.9-.4.8-.3.7-.2.8.1.9.3 1c.1.3.3.4.3.7l.1 1-.1 1.1v1l.3.7c.1.3.6.1.8 0 .3-.1.4-.4.6-.6l.5-.7.9-.2c.3-.1.4.4.5.5l.3.7.3.7.5.8c.1.2.6.1.9.2.4.1.8-.1 1.1-.1.4-.1.7.1.9.2.3.1.4.2.5.5l.3.7c.1.2 0 .8-.1.9l-.2.7-.3.7c-.1.2-.3.4-.3.7-.1.4-.3.5-.3.9l-.1.9v1l.2.9v1.2c0 .5-.1.7-.5 1.1l-8.8 11.7c-.8.4-1.3-.2-1.2.7.2.6-.9 0-1.3 0s-.9-.7-1.2-.7c-.4 0-.5-.2-.6-.5l-.3-.7-.4-.7-.7-.6c-.2-.2-.2-.7-.3-1-.1-.4.2-.6.3-.8.1-.2.6-.3.9-.3.5 0 .9.2 1.3.3l.9.3c.4.1.5-.3.5-.6l-.1-1-.6-1c-.3-.3-.7-.4-1-.6-.3-.3-.6-.3-.9-.3l-.9-.4c-.3-.1-.4-.4-.4-.7 0-.3-.1-.7-.3-.9l-.6-.7-.7-.5a3 3 0 01-.7-.5c-.3-.3-.9-.5-1.2-.7l-.8-.5a1 1 0 01-.4-.8l-.1-.9.1-.9v-1l-.2-.9c-.1-.4 0-.6-.3-.9-.2-.2-.3-.6-.3-.9s.5-.7.6-.8c.2-.2 1.4 0 1.7 0h1.2l.8-.2c.3-.1.4-.4.5-.6l.3-.7.2-.8c.1-.4-.1-.7-.1-1.1 0-.6.2-1.1.3-1.7l.1-1.2v-1.2l.1-1.8-.3-1.4c-.1-.4-.2-.9-.5-1.2-.3-.3-.6-.6-.7-.9-.2-.4-.6-.7-.9-.9l-.9-.7c-.3-.1-.6-.6-.7-.7l-.5-.7-.3-.8-.1-.9-.1-.9.1-.4z" fill-rule="evenodd" clip-rule="evenodd" fill="#253a2b"/><path d="M182.3 122.2c.1.4-.3 1.3-.5 1.7l-.4.7-.2.9-.3.8c-.1.5-.1.4.1.7.2.5.6-.1.6-.1l.1-1.1.3-.9.3-.8.2-.9c.1-.3-.1-.5-.2-1zm-.1 6.5l-.1.4-.3.8-.2.9-.1.9v1l-.1 1-.1.9v1l.2.8.3.8.3.8.2 1.1.2 1 .3.9.2.8.1 1 .1.9.3.8.2.8.2.8c0 .5-.2.4-.6.4l-.9-.1h-1l-.9-.1-1.1-.1-.8-.2-.3.1c.2.2.5.4.9.5.2 0 .5.3.9.3l.9.1.9.1h1l.8.2c.2.1.4.3.4.6v1l.1.9.2.8.1.9.1.9v1c0 .4.2.5.5.4l.5-.6.1-.8-.2-.8-.1-1-.1-1-.1-.9v-.9c0-.2.7-.2.9-.2.3 0 .6-.3.7-.4l.5-.5.5-.5c.2-.2.1-.5.1-.7 0-.3-.3.4-.4.7 0 .2-.6.3-.7.4l-.7.4-.9.2c-.3 0-.3-.4-.3-.7v-1l-.2-.8-.2-.8-.2-.9-.3-.9c-.1-.4 0-.6.1-.8l.5-.7.3-.8.1-.9c.2-.7-.3 0-.4.3l-.4.8c0 .2-.3.5-.4.6-.2.4-.3.2-.5.1l-.1-1.1-.3-1.1-.3-.7-.3-.7-.3-.7-.2-.8-.1-.9v-1l.1-1 .1-.9v-1l.1-.9.1-.9.1-.3z" fill-rule="evenodd" clip-rule="evenodd" fill="#384c40"/><path d="M196.5 147.1l-.7.2-1.2 1.1c-.3.3-.7.7-.8 1.1l-.5 1.1-.1 1.1v1.2l.1.4.3.9c-.1.4 0 .7-.2.9l-.1.1v.6l-.1 1.1-.4.7-.2.9c-.2.3-.3.5-.7.7-.3.1-.6.4-1 .2l-1.1-.4.2.7.5 1.2.7 1.2.6.6.4-.3c.2-.2.6-.4.7-.7l.9-1.2.7-1 1.1-1.4 1.2-1.6c.4-.7 1-1.2 1.4-1.8.3-.6.6-1.1.8-1.8.2-.7.4-1.3.4-2.1 0-.6.1-1.5-.3-2-.3-.5-.6-1.2-1.2-1.2-.5-.5-1-.5-1.4-.5z" fill-rule="evenodd" clip-rule="evenodd" fill="#081811"/><path d="M186.4 164v1.5l.1 1.2.2 1c.1.4.3.4.7.4.4 0 .4-.4.5-.7.1-.3-.3-.7-.5-.9-.2-.3-.2-.7-.3-1.1 0-.3-.2-.6-.4-.7l-.3-.7z" fill-rule="evenodd" clip-rule="evenodd" fill="#64502b"/><path d="M176.1 139.5l.9.1h.1l.7.2.5.2h.7c.2 0 .3-.2.5-.3l.4-.5.3-.5.2-.6.3-.5.3-.5.4-.4.3-.4.1-.6-.2-.6v-.7-.7l.1-.7.1-.7.2-.6.1-.7v-.7-.7l.1-.7-.2-.7-.4-.7c0-.2-.4-.4-.5-.6l-.5-.4-.4-.4-.6-.6-.4-.4-.6-.4-.5-.4-.6-.1-.6.2-.5.3-.5.3h-.7c-.2 0-.4-.2-.5-.3a1 1 0 01-.2-.5l-.1-.6-.1-.6-.3-.4-.5-.3a.8.8 0 01-.4-.4c-.1-.2-.3-.3-.3-.5l-.4-.3c-.3-.1-.3-.2-.7-.1l-.1.6V122.9l.1.7.2.7.2.5.3.6.5.6.6.7.5.5.6.4.6.4.5.6.4.7.1.8.1.8.1 1.1v2.2l-.1 1.3-.1 1.1-.2 1.1-.1.9v.7l.2.2z" fill-rule="evenodd" clip-rule="evenodd" fill-opacity=".5"/><path d="M171.9 120.5c-.3.3.1 1.3.1 2 0 .5.5.9.6 1.2.3.5.3.9.8 1.2.6.3.6.6 1.3.4.5-.1.9-.6 1.2-.9.4-.4.9-.6 1.3-.7.8-.2.8.1 1.2.5.4.4.4 1 .5 1.5.2.7.3 1.1.3 1.8 0 .8.2 1.1-.1 1.6-.2.4-.2 1.3-.3 1.8l-.7 1.5c-.3.5-.4.8-.3 1.5.1.4.7.7.9 1.1.2.3-.4.8-.5 1.3l-.8 1.2c-.2.5-.5.9-.8 1.2-.5.5-.2.8-1.2.8-.8 0-.6-.5-.4-1.2l.3-1.8c.2-.7.1-1.2.1-1.9v-2l-.1-1.9c0-.5-.3-1.2-.4-1.6-.1-.4-.7-1-.9-1.2l-1.1-.9-.8-.9c-.3-.3-.5-.8-.6-1.3l-.3-1.8.1-1.8c.1-.3.4-.5.6-.7z" fill-rule="evenodd" clip-rule="evenodd" fill="#6b6d48"/><path d="M132.4 16.7c-.3 0-.6.2-.8.5-.2.2-.2.4-.2.9l.2.9c.1.2-.7.2-.9.2l-1.3.2c-.4.1-.7 0-1.1.2l-.7.5c-.2.2-.2.6-.1.9l.4 1 .7 1 .8 1.1.9.6.8.5c.3.3.4.3.3.7l-.3.8-.2.9v1l.5.7c.2.3.7.5 1.1.5l1 .2h1.3l1.2.2c.5.1.7 0 .9.2l1.1.5h1.3c.3 0 .6.3.7.4.2.2.2.4.2.9 0 .2-.5.5-.6.6-.2.2-.4.5-.4.8 0 .5-.1.5.2.8l.8.5c.3.1.9 0 1.2-.1l1.3-.3c.5 0 .6.1 1 .3.3.1.4.5.5.7.1.3.5.3.7.4l1 .2 1.1.2 1.1-.1c.4-.1.4-.3.7-.4l.8-.3 1.2-.1h1.2c.2 0 .3.6.4.7.1.4-.3.6-.6.7l-.7.5c-.2.1-.3.7-.4.9-.1.5.2.7.5.9.3.2.9.2 1.2.2l1.7.1 1.5.2 1.6.1c.6.1 1.2 0 1.8.2l1.4.1c.5 0 .7-.1 1.1-.5l1.3-1.6c.4-.4.6-1.1.9-1.4l.7-1 .6-1 .6-.6c.3-.3.3-.4 0-.7l-.8-.9-.7-1-.6-.7-.5-1-.7-.7-.6-.9-.7-.7a2 2 0 00-.9-.5c-.4-.2-.4-.2-.7-.1-.2.1-.2.8-.2 1.1l-.1 1.1c-.1.4-.2.5-.7.5-.4 0-.9-.4-1.1-.5-.3-.1-.4-.5-.5-.7-.2-.4-.5-.5-.7-.7l-.5-.7-.5-1-.7-1-.7-1-.5-.9-.7-1-1-1c-.2-.2-.6-.5-.9-.5l-.9-.4-.9-.5c-.4-.2-.8-.2-1.2-.2-.4 0-.3.6-.3.9 0 .4 0 .7-.2 1-.1.3-1 0-1.2 0-.3-.1-.5-.5-.6-.7l-.5-1c-.1-.3-.4-.5-.7-.7l-.3-.2c-.4-.2-1.1-.2-1.5-.2l-1.2-.2-1.2-.2a1 1 0 01-.8-.5l-.5-.7c-.2-.2-.6-.3-1-.3l-1.5.1-1.1.1h-1c-1-.2-1.2-.2-1.6 0z" fill-rule="evenodd" clip-rule="evenodd" fill="#575f38"/><path d="M165.2 28.7c-.4 0-.7.2-.9.3-.3.1-.4.3-.6.6l-.4.7-.3.8c-.1.3-1.2.1-1.4.1l-1.8-.3-1.2-.2-1.2-.1c-.4-.1-.7.2-1.1.4-.3.1-.4.5-.5.7-.2.3-.2.4-.2.9l.2 1 .3.8.4.8.5.9.5.7.4.7c.2.5-.1.6-.2.8l-1.1.2-1 .3c-.4.2-.4.4-.5.7l-.1 1.1c0 .4.2.6.3.8l.4.9.5.7.5.9.6.7c.1.2.6.4.8.5l1 .4 1.2.2 1.3.1 1.1.3c.4.1.5.4.7.7l.1 1.1c0 .4-.3.7-.5.9-.2.3-.4.4-.6.5l-.7.5-.7.4-.3.8-.3.9.4.7.5.7.7.4.3.2.1.1.4.2.4.1h.9l1.1.2.3.1h.3l.5.1.5.1c.4.1.4.3.6.6.2.3 0 .7-.1.9-.1.4-.3.5-.5.7l-.1.2-.1.4v.2c0 .3.2.6.4.7l.5.6.6.5.7.5 1 .2 1.1.1 1.1.1 1.2.1 1.2.2 1.4.3 1.3.6.5.3.4.1c.3 0-.1-.7-.2-1l-.1-1.4v-1.3l.2-1.5c.2-.6.1-1.4.1-2l-.1-2.4a25.6 25.6 0 00-1.2-5.3l-.9-2.5-.9-2.7-.9-2.1c-.2-.6-.7-1.3-.9-1.7l-.6-1.2c-.3-.7-.7-1.3-1.1-1.8l-.6-1-.5-1c-.1-.3-.7-.7-.9-1.1l-.7-.8a3 3 0 01-.5-.7l-.7-.8-.6-.5-.6-.6h-1.1z" fill-rule="evenodd" clip-rule="evenodd" fill="#404f3e"/><path d="M137.6 19.4l.2 1.2.5.9.4.7.5.9.5.7c.2.4-.2.2-.7.2-.4 0-.5-.2-.8-.3l-.7-.5-.8-.6-.8-.7c-.2-.2-.8-.3-1-.4-.5-.1-.5.3-.4.6.1.4.4.4.6.6.3.2.7.3.8.5.3.3.9.4 1.2.5l1.3.6 1 .5 1.2.6 1.2.5 1.1.3 1 .2 1.3.4c.3.2.9.2 1.2.2l1.4.4 1.2.5.7.6.7.5.7.4.7.5c.3.3.3.3.2.7l-.9.5c-.3.1-.6.3-.7.5l-.8.4c-.4.1-.4.3-.9.3l-1 .2-1 .2-1.4.1-1 .3c-.6.2.5.2.7.2h1.3l1.2-.2 1.4-.1c.4 0 .7-.3 1.2-.3.4 0 .7-.2 1.1-.3l.9-.5 1-.2h1.2l.8.3.9.2.8.3 1.2.2 1.2.2 1.1.2.9.4.8.3 1.1.4h1.2l.9-.2c.4-.2.4-.3.2-.6l-.5-.8-.6-.7-.6-.6-.6-.9-.5-.7c-.2-.2-.5-.5-.6-.8l-.5-.7a3 3 0 01-.5-.7l-.7-.5c-.4-.4-.5-.2-.8-.1l-.2 1.1-.1 1.1c0 .2-.6.3-.8.3-.5 0-.7-.1-.9-.3l-.7-.5c-.3-.1-.4-.5-.6-.7-.3-.3-.3-.6-.5-.7l-.6-.7-.4-.7-.5-.8-.5-.8-.6-.7c-.4-.4-.4.1-.4.5v1.1c-.1.5-.9-.1-1-.2l-.5-.8-.5-.8-.7-.9c-.1-.3.1.7.3.9l.7 1.2.5 1.2.8 1.2c.3.3.5.7.5 1.1l.4 1.1c.1.4.2.7-.2.7-.4.1-.8-.2-1.2-.2-.4-.1-.7-.5-1.1-.6-.3-.1-.6-.5-.8-.7l-1.2-.6c-.4-.2-.6-.4-.7-.7l-.6-1.1-.7-1.3c-.2-.4-.5-.6-.7-.8l-.9-.8c-.4-.3-.5-.3-.7-.2-.3.2-.1.9 0 1.1l.5 1.3c.2.4.4.6.5 1.1.1.5.3.4.2.7-.1.3-.7-.2-1-.3l-.9-.4c-.3-.1-.5-.5-.8-.7l-.7-.5-.9-.6-.7-.8c-.2-.4-.6-.6-.9-.8l-.7-.7c-.3-.3-.3-.6-.5-.7-.5-1.5-.6-1.7-.9-2.1z" fill-rule="evenodd" clip-rule="evenodd" fill="#394321"/><path d="M165.2 28.7c-.4 0-.7.2-.9.3-.3.1-.4.3-.6.6l-.4.7-.3.8c-.1.3-1.2.1-1.4.1l-1.8-.3-1.2-.2-1.2-.1c-.4-.1-.7.2-1.1.4l-.4.4.8.5 1.2.5.8.5.9.5.7.5c.4.3.7.3 1.1.5l1.2.6 1 .5 1.3.7 1.3.7c.5.3.7.7 1.1 1.1l.7.5c.4.2.7.6 1 .9l1.1.7 1.2 1.2.9 1.1 1.2 1.2 1.2 1.4 1.1 1.4 1 1.6.4.5-.3-1-.9-2.5-.9-2.7-.9-2.1c-.2-.6-.7-1.3-.9-1.7l-.6-1.2c-.3-.7-.7-1.3-1.1-1.8l-.6-1-.5-1c-.1-.3-.7-.7-.9-1.1l-.7-.8a3 3 0 01-.5-.7l-.7-.8-.6-.5-.6-.6c-.5-.2-.7-.3-1.2-.3z" fill-rule="evenodd" clip-rule="evenodd" fill="#213420"/><path d="M43.7 179.6c.1.4-.1 1.1-.1 1.6l-.1 1.5c-.2.7.1 1.1.3 1.3.2.2 1.1.1 1.5.1.6 0 .8-.3 1.4-.4.5-.1.7-.5.7-.9.1-.5-.3-.9-.4-1.2l-.7-1c-.1-.3-.7-.6-.9-.7l-1-.7c-.2-.2-.7-.1-.7.4z" fill-rule="evenodd" clip-rule="evenodd" fill="#b7191b"/><path class="st27" d="M81.7 189.1c-.4-.2.9-.8 1.3-.9.4-.1 1.1 0 1.5.2l10.4 4.2c1 .4 1.7.3 2.7.6.5.1 1.6 1.1 1.9 1.2 1.7 2.3 3.6 3.5 5.4 5.7.4.7-.1.7-.9.5l-1.2-.7c-1.8-.8-3.8-1.4-5.5-2.4l-1.1-.5-1.4-.7c-3.5-1.6-8.1-4.8-11.6-6.4l-.8-.5c0-.2-.4-.3-.7-.3z"/><path d="M155.1 39.7l-.1.2-.1 1.1c0 .4.2.6.3.8l.4.9.5.7.5.9.6.7c.1.2.6.4.8.5l1 .4 1.2.2 1.2.1-.3-.1-1.2-.2-1-.2c-.4-.1-.5-.2-.7-.4l-.7-.5c-.3-.1-.5-.2-.7-.5l-.5-.7-.4-.7-.4-.7-.4-.7-.2-1c.3-.3.3-.5.2-.8zm6.4 10.6l-.5.3-.3.8-.3.9.4.7.5.7.7.4.3.2.1.1.4.2.4.1h.9l1.1.2.3.1h.3l.5.1.5.1c.4.1.4.3.6.6.2.3 0 .7-.1.9-.1.4-.3.5-.5.7l-.1.2-.1.4v.2c0 .3.2.6.4.7l.5.6.6.5.7.5 1 .2 1.1.1 1.1.1 1.2.1 1.2.2 1.4.3 1.3.6.5.3.2.1a3 3 0 00-.4-1l-.8-1.8c-.4-.6-.5-1.2-.9-1.7-.4-.4-.6-1-.9-1.4l-1.3-1.4c-.3-.3-.7-.6-1.2-.8l-1.4-.7-1.4-.6-1.2-.5a.8.8 0 01-.4-.2l.1-.6c0-.2-.2-.4-.4-.4l-.7-.5-.7-.1h-.6l-.5.2-.6.1h-2.1a.8.8 0 01-.4-.4l-.5-.4z" fill-rule="evenodd" clip-rule="evenodd" fill="#19350f"/><path d="M166.9 47.2l-1.2.2c-.2.2-.2.6-.2 1 0 .2.5.5.5.6l.6.6c.3.2.5.2.7.5l.4.8v1.2c0 .2.5.4.7.5l1 .2 1.2.2 1.1-.1c.5-.1.6-.2.9-.5.5-.3.4-.9.5-1.4.1-.6-.2-1.1-.3-1.4-.2-.5-.5-1-1.1-1.4-.7-.5-1.6-.8-2.4-.9l-1.9-.1h-.5zm3.1 8.6l-.5.1-1.4.4c-.6 0-.5.4-.5.7 0 .3.4.4.6.5l.7.5.7.4.9.5.8.4.8.4.4.7.5.7.5.6.7.5c.4.2.6.2 1.1.2.5 0 .5-.4.6-.6.2-.3-.1-1-.2-1.2l-.7-1.7c-.3-.6-.9-.9-1.4-1.2a25 25 0 01-1.7-1.2c-.4-.3-1-.5-1.4-.6l-.5-.1zm-13.9-21.2l-.3.5v1.2c0 .4.2.6.3.8l.2 1 .5.7.7-.2c.2-.3.4-.4.2-.8l-.4-.7-.5-.7-.5-.9-.2-.9z" fill-rule="evenodd" clip-rule="evenodd" fill="#001200"/><path d="M168.7 31.1l-.7.1-1.1.1-1 .3c-.3.1-.3.5-.4 1.2l-.2 1.1c0 .5-.1.6-.3.8l-.5.7c-.2.2-.2.5-.2.9v1.2c0 .4.2.7.3 1.1.1.4.4.7.5.9.1.3.6.7.7.9.2.3.1.6.1.9 0 .3-.4.5-.6.7l-.9.5-.7.5c-.3.2-.4.5-.5.8-.1.4.1.8.2 1.1l.2 1c0 .2.4.6.5.7l.7.6.8.5 1.1.6 1.1.5 1 .5.9.5c.3.1.4.5.5.7.2.5-.1.5-.2.7-.2.3-.8.4-1.1.5l-1 .4-1.2.4c-.4.1-.7.4-1 .6l-.6.4-.2.4-.1.4c0 .2.2.4.3.5l.7.6.7.7.7.5c.2.2.6.2.8.3l.2.1h.4l1.1.3 1.1.2 1 .5c.4.1.6.4.8.5l.8.7.6.9.7.6.7.6c.3.2.7.2 1 .2l1.2.2 1.5-.1 1-.2h1.3c.4 0 .4.3.5.7.1.4 0 .6-.2.9l-.4 1c-.2.6.2.7.5.8l1 .5 1.2.2 1.3.2 1.2.3 1.4.6 1.4.5c.5.1.9 0 1.3-.1s.4-.8.5-1.2l.2-1.5a6 6 0 01.5-1.9l.4-1.9.1-1.5.4-1.7.1-1.4c0-.5-.1-.9-.3-1.3-.2-.5-.2-.4-.7-.6-.4-.2-1.1.2-1.4.3l-.9.1c-.3 0-.6-.6-.7-.7l-.5-1c-.2-.3-.2-.9-.2-1.2v-2.7l.1-1.5-.3-1.2-.5-1.1-.5-1-.5-.7c-.2-.4-.4-.5-.5-1l-.2-.9-.2-1.1-.3-1.2c-.1-.4-.4-.6-.7-.7-.3-.2-.9.1-1.1.2-.3.1-.4.5-.5.7l-.5.9-.4.7-.5.8c-.3.4-.7-.1-.7-.2-.3-.2-.3-.5-.3-.8v-1.2l-.2-.9-.2-1.1-.2-1-.5-1-.5-.9-.6-.9-.5-.7-.8-.7c-.3-.3-.7-.4-1-.6l-1.2-.3c-.5-.1-.6.2-.7.5l-.2 1c-.1.5-.6.1-.8-.1l-.9-.5-.9-.5-.7-.5a3 3 0 00-1-.4c-.4.2-.6.2-.9.2z" fill-rule="evenodd" clip-rule="evenodd" fill="#606943"/><path d="M174.1 35.3c-.7.1-.6.7-.7 1.6l.1 1.1.2.9.1.9.1.7.2.7.4.7.8.8.5.7.7.9.3.1c.2.1 0-.5.1-.7l.2-.7.1-.9V41l.1-1-.3-.9-.4-1-.5-.9-.6-.9-.5-.7-.9-.3zm-5.4-4.2l-.7.1-1.1.1-1 .3-.1.1.2.3.5.6.5.7.7.7.7.7.6.9 1 1.3c.4.6 1 1 1.3 1.6l1.7 2.2 1.6 1.9c.4.6 1 1.1 1.4 1.5l1.1 1.4c.3.5.7 1 1.2 1.4.5.5.9 1.2 1.3 1.8l.9 1.4c.2.3.1.8.2 1.1.1.3.5.6.7.7l.7 1 .7 1.4.9 1.6 1.3 2.2c.4.5.5 1.3.9 1.8l.7 1.3c.3.4.4.9.6 1.3l.4 1 .5 1 1.3 2.5 1-.1c.4-.1.4-.8.5-1.2l.2-1.5a6 6 0 01.5-1.9l.4-1.9.1-1.5.4-1.7.1-1.4c0-.5-.1-.9-.3-1.3-.2-.5-.2-.4-.7-.6-.4-.2-1.1.2-1.4.3l-.9.1c-.3 0-.6-.6-.7-.7l-.5-1c-.2-.3-.2-.9-.2-1.2v-2.7l.1-1.5-.3-1.2-.5-1.1-.5-1-.5-.7c-.2-.4-.4-.5-.5-1l-.2-.9-.2-1.1-.3-1.2c-.1-.4-.4-.6-.7-.7-.3-.2-.9.1-1.1.2-.3.1-.4.5-.5.7l-.5.9-.4.7-.5.8c-.3.4-.7-.1-.7-.2-.3-.2-.3-.5-.3-.8v-1.2l-.2-.9-.2-1.1-.2-1-.5-1-.5-.9-.6-.9-.5-.7-.8-.7c-.3-.3-.7-.4-1-.6l-1.2-.3c-.5-.1-.6.2-.7.5l-.2 1c-.1.5-.6.1-.8-.1l-.9-.5-.9-.5-.7-.5a3 3 0 00-1-.4c-.2.3-.4.3-.7.3z" fill-rule="evenodd" clip-rule="evenodd" fill="#395235"/><path d="M165.9 31.9l.4.7.5.6.6.5.4.5.5.7.5.9.4.7.7.7.5.6.5.5.3.5c.2.4 0 .3-.4.3l-1.1-.2h-2.2c-.7.1.2.3.5.4l1.3.2 1.2.3.9.3.7.3.7.9.5.7.7.7.5.7.5.8.7.7.7.8.5.7.5.7.4.5c.3.3-.5.2-.7.2l-1.9-.1-2-.1h-1.8l-.7.2c-.6.3 1.3.3 2 .3l2 .2c.6.1 1.2.1 1.7.3l.9.2.7.3.6.1c.2 0 .3.4.4.5l.4.7.5.7.5.6.6.7.5.7.4.6.5.9.5.9.5.7c.2.3-.5.3-.7.3l-1.4-.1-1.7-.2a47.8 47.8 0 01-1.5 0l2 .3 1.7.3 1.2.3.7.3.4.3c.2.1.2.4.2.7 0 .2.4.5.6.7l.3.6.3.7c0 .2.3.4.3.5l.3.6.3.6.3.6.3.7c.1.4.2.1.4.1l.5-.4c.1-.2-.2-.7-.3-.9l-.4-.7-.4-1-.7-1.1-.5-.9-.3-.7-.4-.9-.5-.9-.5-.9-.7-1.2-.5-.7c-.2-.3-.4-.5-.5-.9-.1-.3-.3-.4-.3-.7l-.3-.7-.1-.5.4-.7.5-.5.5-.6c.2-.2.2-.5.3-.7l.2-.7-.1-.7-.1-.9.1-1 .1-.8.2-.7.3-.7c.2-.5-.1-.1-.2.1l-.4.5-.2.7-.1.9-.1 1-.1 1.1-.1.8a3 3 0 01-.5.7l-.6.5c-.2.2-.4.2-.7.3l-.6-.5-.4-.6-.7-.9-.9-1-.4-.7c-.2-.2-.1-.4-.3-.5l-.1-.7.1-.9.1-.9c-.1-1.1-.2-2 0-3.1.1-.3-.1-.5-.1-.7-.1-.2-.2.5-.2.5a7.4 7.4 0 00-.3 3.6v1c0 .6-.2.3-.3.4-.1.1-1-1.2-1-1.3l-.5-.9-.7-.9a7 7 0 00-.7-.9l-.4-.5-.3-.6-.4-.4c-.1-.1.1-.7.1-.9l.2-1.1.1-1v-1 .5c0 .4-.1.7-.3 1l-.2.9-.2.8c-.1.4-.2-.1-.4-.3l-.5-.8-.7-.7-.4-.7-.5-.5c-.2-.2-.6-.2-.7-.3-.8-1-1.7-1.8-2.5-2.6l-.9.1z" fill-rule="evenodd" clip-rule="evenodd" fill="#273e12"/><path class="st46" d="M118.4 60.9L106.7 97l-38-.1 30.8 22.3-11.8 36.1 30.7-22.4 30.7 22.4-11.8-36.1L168 96.9l-38 .1-11.6-36.1z"/><path d="M150.6 157.4l-32.2-23.5-32.2 23.5 12.4-37.9-32.4-23.4 39.9.1 12.3-38 12.2 38 39.9-.1-32.3 23.4 12.4 37.9zm-3.1-4.2l-11.2-34.3 29.2-21.1-36.1.1-11.1-34.4-11.1 34.3-36.1-.1 29.2 21.2-11.2 34.3 29.2-21.3 29.2 21.3z" fill="#ab1b29"/><path d="M195.2 140.1c-.2 0-.3.7-.5 1l-.6.6-.5.7-.5.7-.5.7-.5.7-.6.8-.7.9c-.3.3-.3.6-.6.8l-.6.8-.6.7-.5.7-.6.5-.1.1-.4.2-.7.6-.5.7-.5.7-.7.8-.8.9-.7.7c-.2.3-.5.7-.6 1.1l-.6.8-.5.7-.4.8-.4.5v.1l-.2.4c-.1.1-.3.6-.5.7l-.5.7c-.2.2-.4.3-.5.6l-.5.7c-.2.3-.2.5-.5.7-.2.2-.4.3-.5.6l-.5.7-.6.5-.5.6-.5.6-.1-.1-.4-.6-.5-.6c-.2-.2-.3-.5-.7-.5l-1 .2c-.2.1-.6.2-.7.4l-.3.2h-.1v.1l-.3.4-.1 1.1-.1 1.1.1 1.1v1.2c0 .4 0 .6.2 1l.2.9-.1.9-.3.8-.4.9-.5.8-.4.8-.5 1-.5.9-.5 1.1-.5 1-.5.8c-.1.3-.1.7-.3 1l-.5.7-.5.8-.5.8-.5.8-.6.6-.7.5c-.3.2-.6.3-.7.5l-.5.6-.8.6-.7.5-.7.6-.6.5-.5.6-.9.3c-.4.2-.5.2-.7.5l-.7.5-.7.5-.8.5-.7.5-.7.4c-.1 0-.6.5-.8.2l-.4-.7c-.2-.3-.2-.5-.5-.7a3 3 0 00-.8-.4c-.2 0-.7-.2-1.1-.1l-1.1.3-.9.4c-.4.1-.6.2-.9.5-.3.2-.6.3-.8.6l-.2.2-.3.7-.3.8-.2 1-.1.3v.7l-.2 1.1c-.2.2-.3.6-.5.6l-.9.4-.7.5-.8.5-.7.5-1 .6c-.1.2-.7.4-.5.5l.4.3.8.3 1.2.4 1 .3 1 .2c.5 0 1 0 1.4.2l1.1.2 1.2.2 1.1.1 1.3.2 1.2.2h1.2c.3 0 .9.1 1.1-.1l.7-.6.8-.7.7-.6.7-.6c.2-.2.6-.4.7-.7l.9-.9.9-.7 1.1-.6.7-.8.9-.7 1.2-.7 1.1-.6 1-.7.8-.7.7-.5.9-.5.7-.5.9-.5.7-.6.7-.5.8-.5.7-.5c.2-.1.6-.2.7-.4l.6-.5.4-.7c.1-.1.5-.5.5-.7l.2-.9.2-.9c0-.3 0-.8-.2-1-.2-.2-.4-.3-.3-.7l.2-1 .1-1.1c0-.3 0-.7.2-1l.5-1 .4-1.1.4-.8.3-1 .2-1 .3-.8c.1-.3.3-.5.3-.8l.2-.9.3-.8.3-.8.4-.8c.1-.2.2-.6.4-.7l.4-.7.5-.7c.1-.2.2-.7.5-.9l.6-.7.5-.8.5-.7c.2-.2.4-.7.6-.7l1.1-.1.7-.5.5-.7.5-.6.6-.8.5-.8.4-.8.2-.9c0-.4-.1-.7.2-1l.6-.7.7-.7.5-.8.5-.7.5-.8.5-.7.5-.7c.1-.3.3-.4.2-.6l.3-.3.5-.6.6-.7.7-.7.7-.9.7-.7.8-.9.6-.7c.3-.4.3-.9.4-1.4.1-.7-.2-1.3-.4-2l-.5-1.5-.5-1.2c-.3-.4-.2-.5-.7-.9l.1-.6z" fill-rule="evenodd" clip-rule="evenodd" fill="#8d705b"/><path d="M196.2 143.1l-.7.1c-.6.1-1.3.1-1.9.3l-.8.2-.1.1-.5.7-.6.8-.7.9c-.3.3-.3.6-.6.8l-.6.8-.6.7-.5.7-.6.5.7.2.6.5.5.9c.1.3.3.5.3.8l.2 1c0 .3.2.8.1 1.1l-.5.7c-.1.2-.2.6-.4.7l-.5.7-.5.7-.6.7c-.1.2-.5.5-.5.7 0 .3 0 .7-.2 1a3 3 0 01-.4.8l-.4.7-.3.8-.5.7c-.3.3-.3.4-.7.5-.3.1-.4.2-.9.2s-.7 0-.7.4c-.1.3.2.9-.2 1-.3.1-.7.1-.9.3l-.5.6-.7.7-.6.7-.6.9-.5 1.1-.5.9-.7 1.4-.4.8-.4.9-.3 1-.4 1-.4 1.1-.3 1.1-.5 1-.5 1c-.1.3-.1.6-.4.9-.1.2-.4.4-.3.8l.2.9c0 .3-.6 1.3-.5 1.6l.2.9c.1 0 .8 0 1 .2l.5.4-.1-.2c-.2-.2-.4-.3-.3-.7l.2-1 .1-1.1c0-.3 0-.7.2-1l.5-1 .4-1.1.4-.8.3-1 .2-1 .3-.8c.1-.3.3-.5.3-.8l.2-.9.3-.8.3-.8.4-.8c.1-.2.2-.6.4-.7l.4-.7.5-.7c.1-.2.2-.7.5-.9l.6-.7.5-.8.5-.7c.2-.2.4-.7.6-.7l1.1-.1.7-.5.5-.7.5-.6.6-.8.5-.8.4-.8.2-.9c0-.4-.1-.7.2-1l.6-.7.7-.7.5-.8.5-.7.5-.8.5-.7.5-.7c.1-.3.3-.4.2-.6l.3-.3.5-.6.6-.7.7-.7.7-.9.7-.7.8-.9.6-.7c.3-.4.3-.9.4-1.4.1-.7-.2-1.3-.4-2l-.2-.7c-.1-.4-.3-.4-.5-.4zm-20.8 43l-.2.1a6 6 0 00-1.2.2c-.3 0-.9 0-.9.4v1.2c0 .3 0 .7-.2 1-.1.2-.2.6-.5.6-.5 0-.6-.1-.9-.2-.2-.1-.6-.3-.9-.1l-.7.5-.7.5-.6.5c-.3.2-.3.4-.6.5l-.7.4c-.2 0-.7.3-1 .2-.2-.1-.6-.4-.7 0l-.1 1.1c0 .4.1.8-.3.8l-1.2.1-.9.3-.6.6c-.2.3-.2.5-.5.7l-.9.4c-.4.1-.7.1-1 .3l-.7.4-.9.3c-.4 0-.7 0-.9.2l-.6.5c-.2.2-.2.6-.4.7-.1.1-.3.6-.6.5-.4-.1-.7 0-.9-.2l-.6-.5-.5-.7-.5-.6c-.1-.1-.5-.4-.5-.6 0-.1-.1-.9-.4-.6l-.5.6c-.2.2-.5.6-.5.8l-.2.4c-.1.3-.2.7-.4.8-.3.2-.4.4-.9.3l-.9-.2-.9-.4-.8-.4c-.2-.2-.4-.3-.5-.6l-.5-.7-.7.7-.2 1.1-.1.1.4.7c.2.2.2.5.5.7l.7.5.6.5.6.5.2.2-1 .6-.7.4c-.3.1-.6.3-.7.5-.4.2-.3.3-.4.7 0 .2.7.5.7.5.4.2.7.1 1.1.2l1.3.1c2.2.3 3.3 0 5 .1l.5.1.7-.6.8-.7.7-.6.7-.6c.2-.2.6-.4.7-.7l.9-.9.9-.7 1.1-.6.7-.8.9-.7 1.2-.7 1.1-.6 1-.7.8-.7.7-.5.9-.5.7-.5.9-.5.7-.6.7-.5.8-.5.7-.5c.2-.1.6-.2.7-.4l.6-.5.4-.7c.1-.1.5-.5.5-.7l.2-.9.4-1.4z" fill-rule="evenodd" clip-rule="evenodd" fill="#54382c"/><path class="st50" d="M172.8 189.7l-.9.2-.7.5-.7.4-.7.4-.7.5-.7.6-.7.5-.8.5a3 3 0 01-.7.5l-.7.5-.7.5-.7.6a3 3 0 01-.7.5l-.8.4-.8.5-.9.3-.7.5c-.2.1-.6.2-.7.4l-.8.5-.8.5-.9.3-.7.4-1.1.1c-.4 0-.7 0-1-.2l-.6-.5-.5-.6-.5-.6c-.2-.2-.4-.4-.4-.7 0-.3.4-1.3.2-1l-.3.4-.5.7-.6.5-.9.4c-.5 0-1.1-.4-1.4-.1l.2.3c.1.3.2.5.5.7l.5.6.6.6c.2.2.5.3.5.7 0 .4 0 .7-.2.9l-.7.5-.7.5-.9.6-.7.4 1.1.2 1.1.1 1.3.2 1.2.2h1.2c.3 0 .9.1 1.1-.1l.7-.6.8-.7.7-.6.7-.6c.2-.2.6-.4.7-.7l.9-.9.9-.7 1.1-.6.7-.8.9-.7 1.2-.7 1.1-.6 1-.7.8-.7.7-.5.9-.5.7-.5.9-.5.7-.6.7-.5.8-.5.7-.5.6-.3-.9-.8z"/><path d="M172.9 181l.3 1.2c0 .3-.2.6-.4.7l-.5.8-.5.8-.4.7c-.1.3-.4.4-.5.6-.3.3-.3.2-.7.2-.4-.1-.3-.5-.2-.7l.5-1.1.5-.9.5-.9.6-.7c.3-.2.5-.3.8-.7z" fill-rule="evenodd" clip-rule="evenodd" fill="#735845"/><path class="st8" d="M188.9 152.4h-.1l.1.1v-.1zm-.1.1l-.7 1a3 3 0 00-.5.7c-.2.4-.3.5-.6.7-.3.2-.4.6-.5.8l-.3.9c-.1.6 0 .3.4.6.2.1.6-.5.7-.6l.5-.7.5-.7.5-.7.3-.9c.1-.6-.1-.9-.3-1.1zm-6.3 9.5l-.1.1-.7.5-.8.8-.5.7-.6.9-.5.8c-.2.2-.2.6-.5.8l-.5.7c-.2.3-.2.6-.5.9l-.5.8-.5.9a3 3 0 01-.4.8l-.5.8-.3.8-.3.9c-.1.2-.3.6-.2.9.1.3.2.9.7.6.3-.2.5-.3.6-.6l.3-1 .4-.9c.1-.3.4-.6.5-1.1l.5-.9.4-.9.4-.7.5-.9.5-.7.4-.8.5-.9.5-.7.5-.6.5-.8c.2-.3 1-1.1.6-.9-.2.1-.2-.4-.4-.3zm-8.8 2l-1 .2c-.2.1-.6.2-.7.4l-.3.2h-.1v.1l-.3.4-.1.9v.1l.6.5c.3.1.3.2.7.2l.7-.1.6-.2.5-.3c.1-.1.4-.2.4-.4v-.7l-.2-.5-.2-.2c0-.3-.1-.7-.6-.6zm-1.2 16.2l-.9.3c-.2.1-.4.6-.5.7-.2.4-.6.6-.8.8l-.7.7-.7.9c-.2.2-.2.6-.3.8v1.2c0 .3.2.6.3.8.2.4.7 0 .9 0 .3-.1.3-.4.5-.7l.5-.7.4-.7.5-.7.5-.8.5-.7.5-.7c.2-.3 0-.8 0-1l-.4-.2h-.3zm1.3 4.9c-.3 0-.6.3-.7.3l-.7.5-.4.7c-.1.2-.7.2-.9.2-.3 0-.4.5-.5.7l-.6.5-.7.5c-.5.3-.7-.2-1.1-.5l-1.2-.7-.9-.3c-.5-.2-.6.2-.7.4-.4.4.5.5.7.5.4 0 .5.4.6.6.1.2.6.3.7.4.3.2.3.4.4.8 0 .2-.7.3-.7.4-.5.2-.5-.3-.6-.5-.2-.5-.3-.3-.7-.3l-.6.5c-.3.2-.2.6-.2.8 0 .2.6.4.7.5l1.2.1.7-.4.7-.5.5-.6.5-.6.7-.5.7-.5h1.2c.4 0 .3-.4.4-.7l.2-1c.1-.4.3-.5.5-.7l1-.2c.7-.1-.1-.5-.2-.5.2.1.1.1 0 .1zm-23.2 6.3h-.3l-1.1.3-.9.4c-.4.1-.6.2-.9.5-.3.2-.6.3-.8.6l-.2.2-.3.7-.3.8-.2 1-.1.3v.6l.4.7c.1.3.5.5.7.6.4.2.7.5 1.2.6 1 .2 1.8-.1 2.7-.7.3-.2.3-.4.5-.7l.5-.7.5-.7.3-.8.4-.7.2-1v-.7c-.2-.3-.2-.5-.5-.6a3 3 0 00-.8-.4c-.3-.3-.7-.3-1-.3zm13.7.1l-1 .7c-.2.3-.5.3-.7.5-.3.2-.4.5-.7.6l-.7.6c-.4.3-.7.4-1.2.5l-.9.4a5 5 0 01-1.2.2c-.4.1-.6.3-.8.5-.3.2-.4.4-.5.6l-.5.7c-.1.3-.4.3-.7.5-.5.2-.5-.4-.5-.5l-.2-.9-.4-.7a3 3 0 01-.2-1c0-.2-.5 0-.7.2l-.2.9c-.1.5 0 .5.2.8l.5.7.4.7c.1.3.6.1.9.2.2.1.4.3.7.3.3 0 .3-.6.4-.7l.6-.7.7-.5.7-.4.9-.2.8-.3.8-.3.7-.5.6-.5c.2-.3.4-.3.7-.5.3-.2.6-.3.7-.5l.7-.5c.6.3.1-.7.1-.9zm-18.7 6.6l-.7.2-.8.3a3 3 0 00-.8.4l-1 .5a7 7 0 00-1.7 1c.3.6-.1.3.3.5l.8.5 1.4.5 1.6.4c.6.2.7.2 1.3.2l.8-.3.7-.5.7-.4c.3 0 1 .4.9.1 0 0 .1-.2-.2-.5l-.7-.8-.9-.7-.9-.7-.8-.7z"/><path d="M131.6 216.7h-1.3c-1.5 0-3.2.7-4.1 1.9.6 1.3 2.4 2 3.5 2.9 1.7.7 3 1.9 4.3 3.1l4.4 2.9c1 1 2.3 1.8 3.1 3h.1c.3 0 1 .1.8-.2-.1-.3-.1-.5-.4-.7l-.8-.6-.7-.5-.6-.6-.6-.6-.7-.5-.7-.4-.7-.5-.7-.5c-.2-.2-.5-.3-.6-.7-.1-.3-.2-.5-.1-.9l.3-.8c.1-.3.2-.5.5-.7l.9-.5.9.2 1.1.1h1.2l1.2.1h1.2l.8-.1a9 9 0 00-2.1-1.8c-1.3-.7-2.8-1.3-4.2-1.8-1.4-.7-3-.9-4.5-1.6l-1.5-.2z" fill-rule="evenodd" clip-rule="evenodd" fill="#47272e"/><path d="M138 220.7c-.7 0-1.4.2-1.9.4l-1.4.7c-.4.2-.6 1-.7 1.3a3 3 0 00-.3 1.3l.3.3 4.4 2.9.5.5.2-.2.1-.7.1-1.2c0-.2.6-.3.7-.4l1.2-.1 1 .2 1.2.1h2.4l1.2.1h1l-2.5-2.2-2.8-2.9-1.9-.1H138z" fill-rule="evenodd" clip-rule="evenodd" fill="#6d4442"/><path class="st50" d="M195.2 140.1c-.2 0-.3.7-.5 1l-.6.6-.5.7-.5.7-.5.7-.5.7-.2.3.1.2.1.7c.2.1.3 1.1.3 1.8 0 .5-.5 1.4-.7 1.8l-.7 1.4-.6.7c-.2.3-.2.7-.2 1.1l.4.7.5.7.2.1.5-.7c.1-.3.3-.4.2-.6l.3-.3.5-.6.6-.7.7-.7.7-.9.7-.7.8-.9.6-.7c.3-.4.3-.9.4-1.4.1-.7-.2-1.3-.4-2v-.1h-.1v-.3l-.4-1.1-.5-1.2c-.3-.4-.2-.5-.7-.9.1-.1.1-.1 0-.1z"/><path d="M186.6 171.1l-.1.3-.1 1.1c0 .3.3.6.5.7.2.2.6.2.9.2.3 0 .6-.2.7-.4.2-.2.5-.4.5-.7.1-.3.3-.7.5-.8l.2-.9.3-.8.4-.9.5-1 .4-1 .4-1.3c.2-.3.1-.9.2-1.3.1-.3-.2-.9-.3-1.2l-.5-.9-.3-1.1c-.1-.3.5-.6.7-.7.3-.2 1 0 1.3.1.5.1.7-.1.7-.5 0-.6-.3-1.1-.3-1.7l-.1-1.7v-1.4c0-.5.2-.5.6-.6.6-.2 1.2 0 1.6.3.4.3 1 .3 1.1-.1.2-.7-.3-1.4-.5-2.1-.2-.7-.2-1.1-.5-1.5l-.8-.9-.9-1c-.3-.3-.4-.6-.6-1-.2-.4-.1-1-.2-1.4-.1-.6.2-1.1.4-1.5.2-.4.7-.7 1.1-1l.7-.8c.2-.3.1-.7.2-1.2V141l-.1-1.4-.1-1.2a5 5 0 00-.5-1.3 3 3 0 01-.4-.8c-.1-.4 0-1.1.1-1.4.1-.4.2-.6.5-.9.4-.4.4-.5 1.2-.5h1.5l1.4.2 1.2.1h1.4l1.1-.2c.5-.1.9-.4 1.2-.7l.7-.7.5-.7.6-.7.8-.7.7-.6.8-.5.7-.4c.4-.1.4-.3.9-.3.3 0 .6.3.7.5l.5.7.5 1.1.3 1 .1 1.2-.1 1.1-.2 1.4c-.1.4.1.8.2 1l1.1.2 1.1.3c.3.1.4.6.5.7.3.3.2 1.1.3 1.4v1.4c0 .5-.2.8-.3 1.2-.1.6-.5 1-.7 1.4l-.5 1.4-.5 1.2-.5 1.2c-.2.4-.4.9-.7 1.2l-.6 1.2-.6 1.2-.8 1-.7.8-.6.9c-.1.3-.6.5-.7.7l-.5.7c-.3.6.4.4.7.3.4-.1.5-.2.9-.1.2 0 .2.7.2.9l-.1.9c0 .2-.5.8-.6.9l-.5 1-.6 1c-.3.5-.6.7-.7 1.2-.1.3-.8.9-.9 1-.3.3-.5.6-.9.8l-1.1.7-.8.7c-.2.2-.6.6-1 .7-.3.1-.5.5-.9.6-.3.1-.7.6-.8.7l-.5.5c-.1.1 0 .8.1.9l.7.6c.2.2.3.7.4 1v1.1c-.1.3-.3.6-.5.7a2 2 0 01-1 .5l-1.2.5a4 4 0 00-1.4.5l-1.2.5-1.2.5-.9.5-.8.4-1.2.2-.9-.3c-.5-.1-.7.1-.9.2-.3.1-.4.4-.6.5l-1 .5a5 5 0 01-1.2.2l-1.1.1c-.5 0-.6-.1-.9-.2-.4-.2-.5-.2-.7-.5-.2-.2 0-.7.1-.9l.5-.7.8-.8.8-.5c.5-.2.5-.3.7-.6z" fill-rule="evenodd" clip-rule="evenodd" fill="#586645"/><path d="M211.3 130.5l-.2.2c-.3.4-.6.6-.7 1.1-.1.4 0 .9-.2 1.2l-.4 1-.5.8-.4.7c-.1.2-.4.7-.5.3-.1-.2-.2-.7-.4-.8l-.5-.7a3 3 0 00-.5-.7l-.7-.7c-.3-.2-.7-.5-.4.1l.5 1.2.5.9c.1.3.4.5.4.8v1.2c-.3.3-.4.1-.9.2-.3.1-.5.3-.5.6 0 .1-.4 1-.5.7l-.5-.7-.5-.7-.5-.6-.7-.5c-.2-.2-.5-.5-.8-.6l-.9-.5c-.3-.2-.7-.5-1.1-.6l-1.6-.6-.1.3-.6.5-.7.5c-.1.1-.6.3-.7.5-.1.4-.1.5.2.7l.5.7.7.7.7.7.7 1 .6.8.7.9.6 1.2.5 1.2.5 1 .5 1.3.5 1.8.4 1.2.2 1.5v1.6l.2 1.6.2 1.7a3 3 0 001.4 1.9c.6.4 1.2.5 1.8.6l.4-.6c.1-.1.6-.7.6-.9l.1-.9-.2-.9c-.4-.1-.6 0-.9.1-.4.1-1.1.3-.7-.3l.5-.7.7-.7c.2-.3.3-.7.6-.9l.7-.8c.3-.3.7-.6.9-1l.6-1.2.6-1.2.7-1.2.5-1.2.5-1.2.5-1.4c.2-.5.6-.9.7-1.4.1-.4.3-.7.3-1.2v-1.4c-.1-.3 0-1.1-.3-1.4-.2-.2-.3-.7-.5-.7l-1.1-.3c-.1 0-1 0-1.1-.2-.1-.2-.3-.6-.2-1l.2-1.4.1-1.1-.1-1.2-.4-.9zm-12.7 3.3c0-.1 0-.1 0 0 0-.1 0-.1 0 0z" fill-rule="evenodd" clip-rule="evenodd" fill="#46563c"/><path d="M206.8 139.7l-.1.4.1.6-.2 1.1-.3.9-.2 1.1-.4 1-.2.9-.1.3-.1.6c-.1.5 0 1.1-.2 1.6l-.3 1.1c-.1.1-.2.6-.5.6l-.5.7-.4.7-.3.8c-.1.3-.1.5-.4.7-.1.1-.3.5-.6.5l.1.9-.2 1.5-.2.9-.5.7-.6.7c-.3.1-.4.3-.5.5l-.1.7a3 3 0 01-.7.5 2 2 0 00-.7.6l-.3.8-.4 1-.2.9c0 .1-.4 1.1-.6.6l-.1-.2-.5 1.1-.3.5-.2.6v.1l-.2.9-.4.7c-.1.4-.3.5-.5.8-.1.3-.2.6-.5.8l-.5.7-.2.2-.4.4-.7.4-.2.1-.3.2-.7.5-.7.7-.9.5-.7.4c-.2.1-.6.3-.7.5-.2.2-.5.2-.7.5l-1 .8 1-.2 1-.5c.3-.1.4-.4.6-.5.2-.1.5-.4.9-.2l.9.3 1.2-.2.9-.4.9-.5 1.2-.5 1.2-.5 1.4-.5 1.2-.5a2 2 0 001-.5l.5-.7a2 2 0 000-1.1l-.4-1c-.1-.1-.7-.4-.7-.6 0-.1-.2-.8-.1-.9l.5-.5c.2-.1.6-.7.8-.7.4-.1.6-.5.9-.6.4-.1.8-.5 1-.7l.8-.7 1.1-.7.9-.8c.1-.1.9-.7.9-1 .1-.5.4-.7.7-1.2.1-.2.6-.7.6-1 .1-.4.2-.7.5-1 .1-.1.6-.7.6-.9l.1-.9-.2-.9h-.1c-.5.1-.9.3-1.4.3-.4 0-.9.1-.9-.3l.2-1c.1-.5.4-.7.6-1.2l.7-1c.3-.3.8-.6 1-1 .2-.3.5-.6.6-1l.4-.9V147c-.4.1-.7.4-1 .7l-.8.8c-.2.2-.7.7-1 .7-.3.1-.9.6-1.2.2s-.2-.3-.2-.7l.2-1.3v-.1l-.1-.3c-.1-.3.2-.7.3-.9.2-.3.1-.6.2-.9l.2-.9.5-1 .2-1.1.1-1.1-.1-1.2c-.3.4-.3.1-.3-.2zm-10.7 19v0z" fill-rule="evenodd" clip-rule="evenodd" fill="#203424"/><path d="M208.9 129.9l-.4 1.9-.1 2-.2 1.4-.1 1.4-.3 1.4-.4 1.2-.4.8-.5 1.1c-.3.5-.3.3-.4.3-.2 0-.3-.7-.4-.9-.1-.5-.3-.7-.3-1.2l-.3-1.2c-.1-.5-.3-.9-.6-1.2l-.7-.9c-.4-.4-.6-.1-.2.3l.4.9c.1.2.3.6.5.7.2.2.2.6.4.7.2.2.3.7.4.9l.2 1.1.2 1.2.1 1.2.2.9c.1.4.5-.5.6-.7.3-.4.4-1 .5-1.4l.5-1.3.4-1.3.4-.9c.2-.3.2-.8.2-1.2l.2-1.2.2-1.3.2-1.2.1-1.4.1-1.2c0-.5.1-.6-.3-1l-.2.1zm-12.3 6.5c-.1.1.6.9.9 1.2.4.4.5.9.7 1.2l.7 1c.2.1.6.7.6.9.1.4.5.7.7 1.2l.7 1 .5.9.5 1.2.4 1.2.5 1.4c.2.2.2 1 .2 1.4v1.4l.1.7c.1.4.3-.7.5-1.2.2-.3.1-.7.2-1l.1-1.2c0-.6-.4-1.1-.5-1.7-.1-.5-.5-.9-.7-1.4l-.7-1.2c-.3-.4-.5-1.1-.7-1.5l-.7-1.4c-.1-.5-.7-1-.9-1.4-.2-.3-.6-.7-.9-.8l-.5-.4c0-.1-.9-.7-1.2-.7l-.5-.5v-.3zm-.5 10.6c-.1 0-.2.1.1.4.4.4.7.5 1.1.7.4.2.6.6.9.7.3.1.6.5.7.7l.5.9c.2.3.4.7.4 1.2l.1 1.2.1 1.4v4.1c0 .7.2.6.2.7.3.3.4-.7.5-1.2l.4-1.2c.1-.5 0-.8-.1-1.3l-.1-1.5-.1-1.3-.1-1.2-.5-1.2-.6-1.2c-.2-.4-.2-.6-.7-.7-.3.3-.8-.5-1.2-.7-.4-.3-.6-.6-1.1-.7-.1.3-.3.2-.5.2zm0 11.1V159.7l.2 1.4v1.3l-.1 1.2c0 .4-.3 1.6 0 1.3l-.2.7.2-.2.6-.6c.1-.4.5-.5.4-.9l-.4-.8c-.2-.3-.2-.6-.3-1.1-.1-.4-.3-.7-.3-1.2 0-.6.1-1.4-.1-2v-.7zm-2.5 9.1l-.1 1.1-.2 1-.3.8-.4 1c.5-.2.5-.3.7-.6.3-.3.4-.3.4-.7l-.2-1-.1-1.3.2-.3z" fill-rule="evenodd" clip-rule="evenodd" fill="#47572d"/><path d="M188.1 161s0 .1 0 0z" fill="none" stroke="#000" stroke-width=".5"/><path d="M191.5 50.2c-.7 0-.7.3-.7 1v1.6l.1 1.5c0 .3.1 1.4-.2 1.4-.6 0-.7.3-.7.9 0 .6 0 1 .2 1.4.2.4.2.8.2 1.4 0 .4-.1 1.3-.6 1-.2-.1-.6-.7-1.1-.5l-.4.3-.8-.2c-.6-.1-.8.4-1.1.7-.3.3-.4.7-.6 1.1l-.1 1.5.1 1.5.3 1.3.7 1c.2.3.7.5 1 .6l.9.7c.4.3.5.5.7.9.4.6-.3.8-.6 1.1l-1.1.7c-.3.2 0 1.2 0 1.4.1.4.6.7.7.9l.7.9 1 .7 1.1.6.1.1c-.2 0-.4 0-.6.2-.4.2-.7.2-.7.9 0 .3.1 1.2.3 1.3.2.1.5.7.6 1 .2.4.6.5.7.9l.5.5.5.9c.3.4.7.4 1.1.6l1.2.7.2.1.9.5 1 .6.2.2.2.2c.2.3.3.7-.1.9a2 2 0 01-1.3-.1c-.2-.1-.9-.6-1.3-.3-.6.4-.5.5-.5 1.3 0 .3-.1 1.2.1 1.5l.3 1.3c0 .4.2 1 .4 1.3l.6 1.1c.2.3.4.8.7 1 .3.2.6.6 1 .7l1.1.6c.3.1.7.5 1.1.5.4 0 1 .2 1.4.4.5.2.9.2.9.9 0 .6-.5.5-1 .7-.4.2-.6.5-.3 1.1.2.4.7.5.9.7.1.1.7.9.9.9.5 0 .7.5 1.1.6.3.2.9.3 1.1.7l.6 1c.2.5.1 1-.3 1.2-.4.2-.6.6-.9.7-.3.2-.3 1.1 0 1.2.2.1.6.6.7.9.1.2.7.7.7.9 0 .5.5.5.5 1.1l-.1 1.5c0 .2-.4 1.2-.6 1.2l-1.1.7c-.2.5-.1.7-.1 1.3 0 .6 0 1 .2 1.4.2.4.6.5 1 .7.5.3.8 0 1.2-.2.3-.1.7-.5.7-.9V111.6v-1.1l.2-.9.3-.9.2-.9.5-.7.5-.7.5-.7c.1-.3.3-.5.3-.8l.2-.9v-.5c0-.4-.1-.8.1-1.1l.2-.5c0-.4 0-.7.2-1l.4-.7.5-.7.6-.7.5-.7.4-.9.2-.9.4-.7.1-1.1c0-.2 0-.7-.2-.9-.2-.2-.3-.4-.6-.5-.2-.1-.4-.4-.8-.2l-.6.5-.4.3-.1.1h-.1l-.2-.1-.2-.3c-.1-.2-.2-.3-.1-.6l.4-.7.4-.7.5-.7.5-.7.3-.9.4-.7.3-.9c.1-.3.2-.4.2-.9v-1.2l-.2-1-.1-1.1c0-.4.1-.8-.1-1.1l-.3-.8c-.1-.3-.1-.6-.4-.7-.2-.1-.4-.4-.8-.3l-.4.1-.5.3c-.3.1-.5.6-.6 1l-.7 1.1c0 .5-.3.7-.5 1.2-.1.2-.4.9-.7 1-.2.1-.7.3-.9.1l-.2-.1c-.1-.3-.3-.4-.2-.8l.3-.8.3-.7.2-.5.2-.3.2-.9.3-.8.2-.9.2-.9.1-1.1V76l.1-.8v-.1l-.1-1-.1-.9-.1-.1c-.3 0 .1-.3-.2-1V72l-.3-.6-.5-.7-.4-.7v-.7l-.2-.6c-.2-.4-.1-.9-.3-1.3l-.3-1.3c-.2-.1-1-.4-1.2 0l-.5 1.1-.2.2c-.1.4-.1.6-.4.7 0 0-.6.6-.7.1-.1-.4-.2-.6-.1-1l.2-.6v-.2l.1-1.5.2-1.4V63v-.2c-.1-.4 0-.6-.2-1l-.1-.3-.1-.2v-.1l-.1-.2-.5-.7-.4-.7-.1-.1-.4-.4-.4-.7v-.1l-.5-.7-.2-.3-.4-.5c-.2-.3-.2-.4-.6-.5l-.4-.2-.5.7c-.1.2-.4 1-.9.7l-.9-.7c0-.4-.3-.7-.3-1.3l-.1-1.2-.2-.3c-.2-.2-.2-.5-.5-.7l-.5-.6-.7-.5a.8.8 0 01-.4-.2l-1.2-.4c-.4-.2-.6-.6-1-.7.4-.2.3-.7-.3-.7z" fill-rule="evenodd" clip-rule="evenodd" fill="#44533c"/><path d="M188.4 59.4c-.2 0-.3.1-.3.2v1.2c0 .3-.1.9.2 1 .3.1.4.6.6.8l.5.6.6.5.7.7.6.7.7.7c.3.3.6.4.9.5l.8.5.8.5 1 .5c.4.1.5.4.7.5l.5.5.7.5c.1.2.5.5.8.5.3 0 .2-.7.2-1v-1.2l-.2-1.3v-1.2l-.1-1.2-.1-1.2v-1.2c0-.4-.3-1.3-.3-.6v1.2l-.1 1.2v1.2c0 .5-.7.4-.7.2 0-.7-.6.5-.6.6l-.1-.1c-.1.1-.6-.3-.7-.3-.3-.2-.3-.4-.6-.5-.3-.2-.4-.4-.5-.6l-.6-.6-.7-.5-.5-.6-.6-.6-.7-.5-.7-.4-.6-.4h.1l-.5-.6c-.2-.3-.2 0-.4-.2 0 0-.4-.1-.8 0z" fill-rule="evenodd" clip-rule="evenodd" fill="#2a412d"/><path d="M191.2 50.2c-.4.1-.3.4-.3.9v1.6l.1 1.5c0 .3.1 1.4-.2 1.4-.6 0-.7.3-.7.9 0 .6 0 1 .2 1.4.2.4.2.8.2 1.4 0 .3-.1 1-.4 1l.6.4c.2.1.6.2.7.4l.7.5.6.6.5.6c.3.2.5.2.7.5l.6.6.5.6c.3.2.3.4.6.5.1 0 .6.5.7.3.1-.3.1-.4 0-.8l-.2-1.1-.2-.9-.2-1-.4-.8-.4-.7-.5-.9c-.1-.3-.2-.7-.4-.9l-.6-.8-.4-.7-.4-.7-.4-.7-.4-.7-.2-.9-.2-.9-.2-.9-.1-1 .1-.7zm-2.3 12.4c.1.2.3.4.3.7 0 .4.7.6.7 1 0 .6.3.8.3 1.3l.5 1.1c.1.1.7.7.7.9.2.4.6.5.7.9.3.5.3.7.3 1.4 0 .4-.2.9-.6 1.1-.2.1-1.1.2-1.1.5 0 .6 0 1 .2 1.4.3.7.7 1.8.7 1.4l.2.4.3.2 1.2.7c.3.2.8.2 1.2.5l.7.5.9.5.7.5.7.4.7.4.9.5.9.4c.4.1.7.2.9.4l.9.5c.2-.2.7.4.2-.2l-.4-.7-.5-.7-.5-1-.5-1-.5-1-.5-1-.5-.9-.4-1-.4-.9-.4-.9c-.1-.2-.2-.6-.4-.7l-.6-.6-.6-.6c-.2-.2-.3-.4-.7-.5l-1-.5-.8-.5-.8-.5c-.3-.1-.6-.2-.9-.5l-.7-.7-.6-.7-.7-.8-.7-.6c.3-.9.1-1 0-1.1zm13.3.7v1.2l-.2 1.1-.2 1c0 .3-.3.7-.4.9l-.5.7c-.2.3-.7.3-.9.5l-.7.5c-.3.2-.2.7-.2 1l.2.9.4.7.4.9.4.8.4.8.5.7.4.7.5.7.5.9c.2.2.2.6.3.9.2.5.4 0 .5-.2l.4-.7.5-.7.5-.8.4-.9.2-1 .1-1.1-.3-1.2-.2-.9-.5-.8-.5-.7-.6-.7-.4-.7-.2-.9-.2-1-.2-.9-.2-.9-.2-.8zm-10.4 14.1l-.4.1-.9.2.1.1c.2.1.5.7.6 1 .2.4.6.5.7.9.2.4.8.6 1 1 .2.4.8.9 1.2 1.1.3.1 1 .3 1.1.6.2.3.7.6 1.1.7.4.2.7.5 1.1.6.3.2.7 1 .2 1.2a2 2 0 01-1.3-.1c-.2-.1-.9-.6-1.3-.3l-.3.2-.2.2v.2l-.1.3v.1l.7.5.7.4.8.5.8.6c.3.2.3.4.6.5l.6.5.8.4c.3.1.5.4.7.6l.7.6.7.7.7.7.5.7c.2.4.2.5.2.9 0 .3-1.6-.3-1.6-.3-.4-.2-.6-.5-.8-.7-.4-.4-.7-.2-.7-.2-.4-.1.3.6.4 1l.1 1.3.3.2c.5.2.9.2.9.9 0 .6-.5.5-1 .7-.4.2-.6.5-.3 1.1.2.4.7.5.9.7.1.1.7.9.9.9.5 0 .7.5 1.1.6.3.2.9.3 1.1.7l.6 1c.2.5.1 1-.3 1.2-.4.2-.6.6-.9.7-.3.2-.3 1.1 0 1.2.2.1.6.6.7.9.1.2.7.7.7.9 0 .5.5.5.5 1.1l-.1 1.5c0 .2-.4 1.2-.6 1.2s-1 .6-1.1.7c-.2.5-.1.7-.1 1.3v.2c.4 0 1 .1 1.2-.2.2-.3.6-.7.6-1.1l.1-1.2.1-1.1.2-.9v-1.2c.1-.4 0-.7.2-1l.2-1V103c0-.1.3-.3.2-.4-.2-.4-.2-.6-.2-1.1v-1.2c-.1-.3-.3-.4-.2-.9l.1-1.2-.1-1.1-.1-1.1-.1-1.1v-1.2c-.1-.3 0-.7-.2-1.1-.1-.3-.3-.6-.2-1 .1-.4.1-.7.3-.2.1.3.2 1.3.4 1l.3-.5.4-.7.5-.6.6-.7.5-.8.5-.7.5-1 .4-.8.3-.8v-1.2l-.2-1c0 .4 0 .7-.2 1l-.4.7-.5.7-.5.6-.6.7-.4.8-.6.7-.5.8c-.2.2-.2.6-.5.7-.4.2-.3.3-.6-.1l-.3-.9-.2-1-.2-1.1-.3-1.2-.2-1-.4-1.1-.2-1.1-.3-1c-.1-.3-.1-.6-.5-.7l-1.2-.4-1.3-.4-.9-.4c-.5-.1-.7-.4-1.3-.5l-1.2-.5-1-.3-.5-.2a3 3 0 01-.7-.5l-1-.5-1.3-.2c.4.2 0 .2-.3.2zM212.3 92l-.3.1-.6.5-.4.3-.1.1h-.1l-.2-.1-.3.5-.7.7-.7.6c-.3.3-.2.5-.6.7l-.7.5c-.1.1.1.9.1 1.2l.2 1.1.1 1.1v1.2l-.1 1.1.2.2c.2.3.4-.6.6-.9l.5-.6.4-.8.2-1.2c0-.4.3-.7.5-1.1l.6-.9.5-.9.4-.8.4-.7.6-.6.5-.8-.3-.2-.7-.3z" fill-rule="evenodd" clip-rule="evenodd" fill="#1b2d1d"/><path d="M185.8 62.3s0 .1 0 0l.1.1-.1-.1zm0 .1v.7l.1 1.5.3 1.3.7 1c.2.3.7.5 1 .6l.9.7c.4.3.5.5.7.9.4.6-.3.8-.6 1.1l-1.1.7c-.3.2 0 1.2 0 1.4.1.4.6.7.7.9l.7.9 1 .7 1.1.6.1.1c-.2 0-.4 0-.6.2-.4.2-.7.2-.7.9 0 .3.1 1.2.3 1.3.2.1.5.7.6 1 .2.4.6.5.7.9l.5.5.5.9c.3.4.7.4 1.1.6l1.2.7.1.1.2.2.2.1.5.3.5.3.5.3.1-.3v-.1l.2-.9.1-.5.1-1.5c0-.5.1-1.1 0-1.6 0-.3-.1-1-.3-1.3-.3-.4-.3-.6-.7-.9l-.1-.2c-.2-.2-.5-.2-.7-.5l-.6-.5c-.2-.1-.4-.4-.7-.4h-.6l-.5-.2-1.1-.5c-.3-.2-.6-.3-.8-.7l-.2-.3-.2-.5c0-.3-.3-.5-.3-.7 0-.2-.1-.6.1-.7l.7-.2c.2-.1.5-.1.7-.3l.4-.4-.1-.9-.2-.7-.3-.6-.4-.6-.4-.4a2 2 0 00-.4-.6l-.3-.5-.2-.6-.3-.5a.8.8 0 00-.4-.4c-.2-.1-.3-.3-.6-.2l-.1-.1-1.4-.2-1.1-.5c0-.6-.5-1.2-.6-1.4zm9.4 21.8l-.2.1-.4.3c-.2.2-.2.4-.2 1v.5h.1c.4-.1.4-.2.7-.4l.6-.5.4-.5h-.1l-.1-.1-.2-.1-.1-.1-.1-.1-.2-.1h-.2z" fill-rule="evenodd" clip-rule="evenodd" fill="#0b180e"/><path d="M175.2 60.7a1 1 0 00-.6.2h-.1l-.3.5-.1.2-.2.3c-.2.2-.2.6-.3.8l-.1 1.1-.2 1.2c0 .4-.2.7-.3 1-.1.3-.3.6-.5.7-.2.2-.2.6-.3.9l-.2 1.1.2 1.1.4 1c.2.4 0 .7-.2.8l-1.2.1c-.3 0-.4.1-.5.3l.1.6v.8l-.1.7v.8l.2.7.2.6c0 .2.2.3.3.5l.9.6c.4.2.6.5.8.7.2.2.3.7.4.9.1.4.2.7.1 1-.1.3-.5.4-.8.5-.5.1-1-.1-1.3-.2-.5-.1-.6.1-.7.4l-.1.3v.1l-.1.5v.1c0 .3.1.4.2.5l.2.7.2.6.2.7.3.6.3.5.4.5.5.4.5.3.6.4.6.4c.2.1.4.3.7.3l.7.4.7.4.6.2.4.2.7.1.7.2.9.2.6.2.5.3c.2 0 .5.3.5.4l.4.4.3.5.3.5.4.5.5.4.4.2.5.5.3.5.4.4.4.4.4.4.4.4.4.4.4.4.4.4.1.2.1.4.1.3v.4l.2.9.5.9.5.9.5.8.1.3.3.5.3.5.4.4.3.5.2.3.5.9.4 1.1c.1.3.3.7.5.8l.4.8.5.8.6.6.7.8.8.7 1 .6.5.8c.2.3.3.6.5.7l.6.7.5.6.5.6c.4.4 1.3-1 1.4-1.2.2-.5.2-.8.5-1.2l.5-.8c.2-.2.3-.8.3-1.1l.1-1.2-.2-1.2-.3-1-.4-.9c-.1-.2-.5-.3-.8-.3l-1.2.2-.2.1-.2.1h-.1l-.3.1-.2.2-.4.4-.4.4c-.1.3-.2.3-.6.3h-.1c-.1.1-.2.2-.5.1-.2-.1-.4-.5-.5-.7l-.1-1.1v-1.2l.2-1c.1-.4.3-.6.3-1.1l.2-1 .5-1.2c.1-.4.3-.4.3-.9l.3-.9.1-1.1v-1.2c0-.5-.2-.6-.5-.7-.2-.1-.7.4-.9.5-.3.1-.5.5-.7.7l-.7.9-.8.7c-.4.3-.7 0-.8-.2-.2-.2-.2-.5-.2-.9v-1.2l-.1.1.2-1 .1-1.1.1-1.1.3-.9.3-.9c.1-.3.4-.5.5-.9l.5-.8.5-.9c.2-.4.3-.7.3-1.1 0-.4-.6-.2-.9-.2l-1.3.1-1.3.1c-.4 0-.7.1-.7-.2l-.1-.1-.1-.7v-.2-.1l.2-.9c.1-.3.5-.4.7-.5l.7-.5c.3-.1.5-.4.7-.6l.6-.7.7-.5c.3-.1.4-.4.4-.7l-.2-1-.1-1.2v-2.3c0-.3.4-.5.5-.7l.4-.7c.2-.3.2-.6.2-1 0-.3-.5-.4-.7-.5l-1.2-.2h-1.1a5 5 0 00-1.2.2l-.8.4-.9.5-.7.7-.6.9-.6.9c-.3.4-.6.4-.9.7a3 3 0 01-1 .2c-.5 0-.5-.3-.7-.6-.2-.3-.1-.8-.1-1.2 0-.4.3-.6.4-.9.1-.3.5-.5.6-.7.2-.2.3-.4.7-.5.3-.1.6-.5.8-.7l.5-.9c.1-.4 0-.8.2-1.2l.2-1.2v-1.2c0-.5-.2-.6-.5-.9l-.5-.7-.4-.9-.2-.9-.2-1c-.1-.4-.3-.5-.5-.7-.3-.3-.8 0-.9.1-.4.2-.4.6-.6.8l-.3.9-.5 1.2-.4 1c-.2.4-.4.7-.7.9-.4.3-.5.3-1 .3-.2 0-.3-.6-.4-.8-.1-.4.1-.8.2-1.2l.2-1.4.2-1.2-.2-1c-.1-.2-.7-.3-1-.3l-1.2-.2c-.4-.1-.7-.1-.9-.4l-.7-.7-.4-.7c-.1-.2-.3-.4-.5-.4l-.3-.2-.7-.1-1.1.1z" fill-rule="evenodd" clip-rule="evenodd" fill="#394e39"/><path d="M174.8 60.8l-.3.2h-.1l-.3.5-.1.2-.2.3c-.2.2-.2.6-.3.8l-.1 1.1-.2 1.2c0 .4-.2.7-.3 1-.1.3-.3.6-.5.7-.2.2-.2.6-.3.9l-.2 1.1.2 1.1.4 1c.2.4 0 .7-.2.8l-1.2.1c-.3 0-.4.1-.5.3l.1.6v.8l-.1.7v.8l.2.7.2.6c0 .2.2.3.3.5l.9.6c.4.2.6.5.8.7.2.2.3.7.4.9.1.4.2.7.1 1-.1.3-.5.4-.8.5-.5.1-1-.1-1.3-.2-.5-.1-.6.1-.7.4l-.1.3v.1l-.1.5v.1c0 .3.1.4.2.5l.2.7.2.6.2.7.3.6.3.5.4.5.5.4.5.3.6.4.6.4c.2.1.4.3.7.3l.7.4.7.4.6.2.4.2.7.1.7.2.9.2.6.2.5.3c.2 0 .5.3.5.4l.4.4.3.5.3.5.4.5.5.4.4.2.5.5.3.5.4.4.4.4.4.4.4.4.4.4.4.4.4.4.1.2.1.4.1.3v.4l.2.9.5.9.5.9.5.8.1.3.3.5.3.5.4.4.3.5.2.3.5.9.4 1.1c.1.3.3.7.5.8l.4.8.5.8.6.6.7.8.8.7 1 .6.5.8c.2.3.3.6.5.7l.6.7.5.6.3.3c0-.3 0-.7.2-1 .1-.3.1-.6.3-.8l.3-.8.2-.7.2-.7.2-.7-.1-.7-.3-.6c0-.2-.1-.4-.3-.5l-.5-.4-.4-.4c-.1-.1-.4-.3-.7-.3h-.1l-.3.3-.4.4c-.1.3-.2.3-.5.3l-.1.2a1 1 0 00-.3.7l-.1.7-.3.5c-.2.1-.3.1-.5-.1l-.4-.4-.5-.5-.3-.5-.4-.6-.4-.6-.3-.6-.3-.7-.3-.7-.4-.7-.3-.7-.3-.6-.3-.6-.3-.6-.3-.6-.3-.6-.3-.7-.3-.7c-.1-.2-.4-.4-.4-.7l-.3-.7c.2-.1.5-.1.5-.3v-.7-.8c-.3-.1-.4-.1-.5-.5l-.3-.7V93l.1-.7.2-.6.2-.7.2-.7.2-.9.1-.8.1-.8.1-.7.2-1v-1l.1-.7.1-.7-.2-.7-.7-.1c-.3 0-.5 0-.7.2l-.4.4a2 2 0 01-.6.4l-.7-.2-.4-.6-.3-.8c-.2-.2-.2-.5-.3-.7l-.3-.7-.3-.7-.2-.7-.2-.7-.2-.7c0-.2.1-.6 0-.8l-.3-.6-.4-.5-.7-.4c-.1 0-.5-.1-.6-.3l-.6-.4-.7-.4-.5-.4-.5-.5-.6-.5-.6-.5-.6-.6-.3-.6-.2-.6-.1-.7v-2.8l.1-.7V66l-.1-.7c0-.4 0-.4-.2-.6l-.5-.4-.4-.4-.4-.6-.3-.5c-.1-.1-.3-.3-.3-.5l-.2-.6c-.8-.5-.9-.7-.9-.9z" fill-rule="evenodd" clip-rule="evenodd" fill="#1e3724"/><path d="M180.1 79.1l-.4-1.2v-1l-.2-.7-.1-.7-.2-1c-.1-.4 0-.6.1-.2l.2.8.2.7.2.7.2.7.3.7c.1.2.4-.4.4-.4l.3-.6.4-.7c0-.2.3-.3.3-.5l.4-.4c.1-.1.5.1.6.2.3.1.4.1.4.3 0 .3-.4.4-.7.6l-.5.6-.4.5c-.1.2-.3.3-.3.5l-.3.6c-.1.2 0 .6 0 .8l.1.9.2.7.3.7.3.7.3.7.4.7.4.7.4.7c.2.2.2.6.3.7l.5.7c.3.3.3.7.5.9l.4.8.3.8.4.7.2-.7.2-.9.2-1 .2-1.1.3-.9c.1-.3.4-.5.4-.8 0-.2.3-.6.2-.1l-.2 1-.1 1-.1.2-.2 1-.2.7-.2.7-.1.7c-.1.4.1.5-.1.7-.1.3 0 .4.1.6l.2.6.3.6.3.6.3.5.4.4.4.4c.2.2.2.5.3.7l.1.7.2.7c.1.3-.1.5-.2.7-.1.3-.2.3-.4.2-.2-.1-.3-.5-.3-.6l-.3-.7-.3-.9-.3-.9c-.2-.2-.2-.6-.4-.9l-.5-.8-.5-.9-.5-.8-.5-.9-.4-.7-.4-.7c-.1-.2-.6-.4-.8-.6l-.9-.5-.9-.5c-.4-.1-.7-.5-1-.5l-.7-.4-.9-.4-.2-.1.2.1 1 .4.9.3.9.2.7.2.6.3c.4.2 0-.6-.1-.7l-.4-.7-.4-.7c-.2-.4-.3-.8-.6-1.1a2 2 0 01-.3-.8l-.4-.9-.3-.7-.3-.6-.3-.5-.7-.5-.9-.5-1.1-.5-.5-.4c-.3-.3.7.2 1.1.4l1 .4.8.2h.7z" fill-rule="evenodd" clip-rule="evenodd" fill="#3a5141"/><path d="M179.2 161.5l-.1.1h.1v-.1zm-.1.1h-.3l-.2.4c-.2.3-.2.5-.5.7-.2.2-.4.3-.5.6l-.5.7-.6.5-.5.6-.3.4c0 .2.2.9.5.7l.6-.6.7-.5.5-.7c.1-.3.1-.6.3-.8l.5-1 .3-1zm-7.8 4v1.2l.3.8.5.7.5.7.3.8c0 .2.1.9.3.4l.4-.8.3-.9.3-.8c.2-.2.4-.3.5-.6.1-.3.3-.7-.3-.5l-.7.4h-1.2l-.7-.5c-.1-.3-.5-.6-.5-.9z" fill-rule="evenodd" clip-rule="evenodd" fill="#583626"/><path class="st4" d="M207.4 109.6l-.1.1-.2.4-.2.4-.2.4-.2.4-.2.4-.3.3-.4.2-.5.2h-.6v.1c.2.4.6.5 1 .7.5.3.8 0 1.2-.2.3-.1.7-.5.7-.9V110.9v-1.1-.2z"/><path d="M50.2 163.9a39.8 39.8 0 0015-19.6 58 58 0 003.2-18.5c0-.9-1-1-1.9 0a54.3 54.3 0 00-9.8 13.8c-4.1 8.9-4.9 18.8-6 21.3l-.6 1c-.2.5-.5 1.2.1 2z" fill-rule="evenodd" clip-rule="evenodd" fill="#3f5137"/><path d="M68.3 126.8s-1.2 1.3-3 4.6l-8 16.5c-2.6 5.1-3.7 9.9-6.1 14.1-.3.6-.8 1.1-1.2 1.6l.2.3a39.8 39.8 0 0015-19.6c2.2-5.7 3-12.5 3.2-17.3l-.1-.2z" fill-rule="evenodd" clip-rule="evenodd" fill="#2b352d"/><path d="M67 138.4l-2.4 5.1c-1.5 3.2-2.7 6.2-5.6 10.5-2.2 3.4-3.7 4.5-5.8 6.7-.8.8-1.2 1.4-1.4 1.8 5-4 9.6-8.5 13.4-18.2.8-1.9 1.3-3.9 1.8-5.9z" fill-rule="evenodd" clip-rule="evenodd" fill="#112724"/><path d="M103.7 203.1a44.3 44.3 0 01-16.3-11.3c-.7-1.1-3.2-1.6-4.4-.5-.5.5-.4 1.4-.3 2.1 0 0-7-4.5-11.8-9.3a21.6 21.6 0 01-6.5-10.2c-1.2-3.7-1-5.4-1.2-7.8-.1-.9-.6-1.2-1.4-1.1-1 .1-1.2 1.1-1.3 1.8 0 0-3-5-6.6-10-3.6-4.9-4.4-4-7.8-9.8-3.8-6.5-5.6-9-7.6-16.2-1.8-6.5-1.9-12.1-1.9-12.1l.9-3.4-.7-2.1h-1.1c.3-5.2.7-10.3 1.9-15.4 1.6-.7 3.2-1.2 4.7-1.4.4-.3.9-1 .5-1.4l-3.5.5.3-.9.7-.4.1-1.7-.7-.1c.9-2.9 2-5.9 3.6-8.8l4.7-.3c.7-.5 1-1.1.8-1.6l-4.4.1s.1-1.4 1-3.4c1.2-2.7 1.1-2.3 4.4-7.4 3.2-5 4.2-7.6 8.5-13.4 4.3-5.8 8.4-9.6 8.4-9.6-.3-.6-.6-1.2-1.4-1.2l-5 4.7v-2c-.5-.4-1.1-.3-1.6-.1-.2 1.4-.1 2.8-.2 4.3-1.6 2.1-3.5 4.4-4.9 6.8-.4-.6-.6-1.5-.6-2.5-.7 0-1.2.4-1.4.9-.1 1.3-.1 2.7.1 4.1-4 5.4-6.5 10.7-9.6 16l-.9-1c-.8.2-1 .6-1.3 1.1l.2 2.6-.7-.9c-.7-.2-.7.4-.7.8.8.5 1.2 1.5 1.4 2.4-1.5 2.7-2.5 5.5-3.6 8.5L34.8 90c-.8 1.3-1.5 2.7-1.7 4.5l1.3 2.3-2.5 16.3c-.2 1.2-.6 1.7-.6 1.7l-1.4-.2s-.1.8-.5 1.6l-.8 1.7c1.3.9 2.4 1.6 3.5 3.2.4.7 1.4 4.8 1.7 8.1.2 2.9.1 5 .1 5 2.5 2.4 3.3 8.6 8 16.4 2.7 4.4 4.4 6.3 8.4 11 3.3 3.8 5.2 6.9 7.7 11.8 1.8 3.5 1.2 5 2.4 8.8 1.1 3.6 5.6 8.9 5.6 8.9s.4 1 1.3 1l2.1-.1c7.2 5.5 14.9 9.7 22.5 14.2l11.8-3.1z" fill-rule="evenodd" clip-rule="evenodd" fill="#907773"/><path d="M46.2 147c-3.8-6.5-5.7-9-7.7-16.2-1.8-6.5-1.9-12.1-1.9-12.1l.9-3.4-.7-2.1h-1.1c.3-5.2.7-10.3 1.9-15.4 1.6-.7 3.2-1.2 4.7-1.4.4-.3.9-1 .5-1.4l-3.5.5.3-.9.7-.4.1-1.7-.7-.1c.9-2.9 2-5.9 3.6-8.8l4.7-.3c.7-.5 1-1.1.8-1.6l-4.4.1s.1-1.4 1-3.4c1.2-2.7 1.1-2.3 4.4-7.4 3.2-5 4.2-7.6 8.5-13.4 4.3-5.8 8.4-9.6 8.4-9.6-.3-.6-.6-1.2-1.4-1.2l-5 4.7v-2c-.5-.4-1.1-.3-1.6-.1-.2 1.4-.1 2.8-.2 4.3-1.6 2.1-3.5 4.4-4.9 6.8-.4-.6-.6-1.5-.6-2.5-.7 0-1.2.4-1.4.9-.1 1.3-.1 2.7.1 4.1-4 5.4-6.5 10.7-9.6 16l-.9-1c-.8.2-1 .6-1.3 1.1l.2 2.6-.7-.9c-.7-.2-.7.4-.7.8.8.5 1.2 1.5 1.4 2.4-1.5 2.7-2.5 5.5-3.6 8.5L34.8 90c-.8 1.3-1.5 2.7-1.7 4.5l1.3 2.3-2.5 16.3c-.2 1.2-.6 1.7-.6 1.7l-1.4-.2s-.1.8-.5 1.6l-.8 1.7c1.3.9 2.4 1.6 3.5 3.2.4.7 1.4 4.8 1.7 8.1.2 2.9.1 5 .1 5 2.5 2.4 3.3 8.6 8 16.4l4.3-3.6z" fill-rule="evenodd" clip-rule="evenodd" fill="#92786a"/><path d="M64.1 29.4c2-1.5 2.4-.7 2.2.6-.5 3.5-2 7.3-3.2 10.7-1.9 5.5-5.1 9.9-7.9 14.8-2.7 4.9-6.7 9.7-10.3 14.5-2.4 3.1-3.9 5.9-5.6 8.7l1.4 1.4.3 1.7-1.2 1.2s-1.7-1.3-1.8-3.1a16 16 0 01.5-7.4c.7-2.8 2.7-6.5 5.7-13.8 2.1-5 4.9-10.4 7.4-14.8a61 61 0 0112.5-14.5z" fill-rule="evenodd" clip-rule="evenodd" fill="#999175"/><path d="M41 82.2a2 2 0 00-.9-.2l-.1.7.1.7v.8c0 .4.2.3.6.3.3 0 .3-.3.6-.4.1-.1-.3-.4.4-.4.3 0 .2-.4.2-.6-.1-.2-.4-.3-.6-.3-.5.3-.4-.3-.3-.6z" fill-rule="evenodd" clip-rule="evenodd" fill="#584b3f"/><path class="st74" d="M52 49.5c-4.7 7.6-9.2 15.4-13.3 23.3l.5.2c3.8-7.4 8.1-14.8 12.6-22l10.7-16.7c-2.1 2.1-7.9 11.2-10.5 15.2z"/><path class="st75" d="M65.3 46.8l-4.9 4.7v-.7c-.4 1-.8 2.1-1.8 2.1v.7c-1.4 1.8-3 3.8-4.3 5.8l.3.7 3.9-4.6s-1.4 2.6-3 4.8c-1.5 2.2-1.6 1.6-3.1 4.1-1.5 2.5-2.9 5.9-2.9 5.9l1-.3c2.8-4.4 4-7.1 8-12.4 4.3-5.8 8.4-9.6 8.4-9.6-.6-.6-.9-1.1-1.6-1.2zM51.4 63.5l-2.7 3.9 3-3.3-.3-.6zM39.7 84.4c-1.1 2-1.9 4-2.7 6.1l1.4-2.5 1.6-3.1-.3-.5zm-10.6 32.5l-.5 1 2.1 1.6c0-.3.3-.6.6-.8 0 0-.5-.6-1.1-1l-1.1-.8zm3.7 6.7c.3 1.4.7 3.2.9 4.9l.3-.5s.2-.6-.1-1.7c-.2-1.1-.7-2.5-.7-2.5l-.4-.2zm4.3 16.9c1.1 2.8 2.4 6.2 4.8 10.1a70 70 0 008.4 11c3.3 3.8 5.2 6.9 7.8 11.8 1.8 3.3 1.3 4.9 2.2 8.2l.1.1 3.2 2.4s-.7-3.6-2.5-7.9c-1.8-4.3-2.4-5.2-4.9-9.1-2.4-3.9-4.9-6.4-4.9-6.4-.3-.7-.5-1.3-.2-2.5l-2.7-3s-.1-1.2.3-1.7c.3-.3.7-.5 1.1-.6l.7-.1a23.8 23.8 0 01-4.4-5.8l-1.3-2.2-2 5s-.7-2-1.7-4c-1.1-1.9-1.6-2.4-2.5-3.8-1-1.3-1.5-1.5-1.5-1.5zm28.8 49.8l-.4.3.4.5s.4 1 1.3 1l2.2-.1c7.2 5.5 14.9 9.7 22.5 14.2l1.9-.5C85 201 76.6 196.1 69 190.4c0 0-.7.7-1.4.7-.8 0-1.7-.8-1.7-.8z"/><path class="st74" d="M37.6 77.7c-.3-2.6-.2-1.9.6-5.1.7-2.8 2.7-6.6 5.7-13.8 2.1-5 4.9-10.4 7.4-14.8a58.2 58.2 0 0112.6-14.7c.5-.4.9-.6 1.3-.7-4.8 4-9.9 10.1-13.4 15.7a157 157 0 00-7.4 14.8c-3.1 7.3-5 11-5.7 13.7"/><path d="M100.7 15.8c-.9.3-1.8.6-2.6 1.1-2.7 1.7-5.9 2.4-8.7 3.9-1.9 1-3.8 1.9-5.4 3.3-1.5 1.3-3.1 2.2-4.7 3.4-2.1 1.7-3.7 3.9-5.5 5.8-1.3 1.4-2.5 2.8-4 4-1.5 1.3-2.5 3.3-4.4 4.2l-3 3.5-1 1.2-.5.4-.1.1-.2.2-.2.3a2 2 0 00-.4.6c0 .3-.2.4-.3.7-.1.3-.1.6-.3.8l-.3.6.1.8c0 .2.1.7.3.7l.6-.1-.2-.3-.2-.4.2-.3.2-.3.9-.6.4-.1 1.4-.3 1.3-.3 1-.5 3-1.5 1.5-.8L71 45c2-.8 3.8-2.1 5.7-3.1l.7-.5 2.2-1.4 3-1.8 2.6-1.8 2.3-1.6.3-.2 1.3-1 .3-.2 1.8-1.4.3-.2 1.8-1.4.6-.6 1.3-1.2 1.9-1.8.2-.2.7-.8.9-1-.8.1a70.3 70.3 0 00-14.1 6c-2.8 1.5-4.6 3-7.4 4.6-.9.5-2.2 1.6-3 2.1-2.8 2-5.1 4.3-8.3 5.7 1.9-2 4.4-3.7 6.3-5.7 2.8-3.1 6.3-6.3 10-8.5 2.8-1.7 5.6-3.1 8.3-5-4.5 2.1-9 4.7-13 7.7l-7.1 5.7c2-1.6 3.3-3.9 5.1-5.6 4.8-4.5 8.8-7.6 13.6-10.2 4.4-2.1 8.8-3.5 12.2-5.9z" fill-rule="evenodd" clip-rule="evenodd" fill="#192919"/><path d="M43.9 78.9l-1 1.6-.6 1.6-.5.8.5.3s.8-.2 1.2-1.3c.5-1.1.4-3 .4-3zm-3 6.4s-2.5 5.1-3.4 7.5c-.9 2.4-.1 2.3-.1 2.3l.3.6s-.5-.7.4-3.3c.9-2.6 3.2-6.9 3.2-6.9l-.4-.2zm-5.5 7.1l-.9.1 1.3 2.4.5 1.6-.2.9-1.8 11.7c-.7 4.3-.7 5.4-.7 5.4l-.1.1-1.3 2.6a89 89 0 002.5 3.6c.9-.3 1.1-1 1.3-1.6 0 0-1.5-.4-1.8-1.2-.3-.8.2-.9.4-2.2l.4-3.2s.2-3.3.7-7c.5-3.6 1.4-7.8 1.4-7.8l.7-.7.1-1.3-1.2-1.8c-.8-.8-1.3-1.6-1.3-1.6zm-5.5 22.2l-.3 1.3s.4 1 .8 1.3c.5.4 1 .1 1 .1-.3-.7-.3-1.6-.1-2.5l-.1.1-1.3-.3zm6.5 7.8l-.6.2s.5 3.9 1.3 7.1c.7 3.1 1.8 5.5 1.8 5.5l.3-.4s-1.1-3.2-1.8-6.3c-.7-3.1-1-6.1-1-6.1zm19.2 36.7c-.1.7-.2 1.3-.6 1.6.9.9 1.9 2.4 2.9 3.7l.4-1.3-2.7-4zm6.5 5.9h-.3c-.5.1-.8.4-1 .7l-.2.6-.1.4-.1-.1-.3 1.1 1.1 2.4c.8 1.7 1.2 2 2 4.2s1.2 4.3 1.2 4.3l2.4 3.7c-.9.6-1.2 1.2-1.3 1.8 1.7.8 2.7 1.8 3.8 2.8.1-.6.7-1 1.5-1.3a457.1 457.1 0 0011.2 8.5l.3-1-.2-.2c-.9-.6-7-4.7-11.5-9a21.6 21.6 0 01-6.5-10.2c-1.2-3.7-1-5.4-1.2-7.8.2-.5-.2-.9-.8-.9zm6.7 22.7c-.1.9-.6 1.7-1.6 2.2l.2.9c.7-.3 1.3-.7 1.6-1.2a39.3 39.3 0 006.5 3.8l.2-.9s-4.2-2.2-5.8-3.6c-.6-.4-1.1-1.2-1.1-1.2zm15.9 2.9c-.7 0-1.3.2-1.7.6-.4.3-.4.9-.4 1.5l1.2 1.8 5.1 4 9.9 6 4.9-1.3a44.3 44.3 0 01-16.3-11.3c-.5-.9-1.6-1.3-2.7-1.3z" fill-rule="evenodd" clip-rule="evenodd" fill="#b99573"/><path d="M43.9 78.9l-1 1.6-.6 1.6-.5.8.5.3s.8-.2 1.2-1.3c.5-1.1.4-3 .4-3zm-3 6.4s-2.5 5.1-3.4 7.5c-.9 2.4-.1 2.3-.1 2.3l.3.6s-.5-.7.4-3.3c.9-2.6 3.2-6.9 3.2-6.9l-.4-.2zm-5.5 7.1l-.9.1 1.3 2.4.5 1.6-.2.9-1.8 11.7c-.7 4.3-.7 5.4-.7 5.4l-.1.1-1.3 2.6a89 89 0 002.5 3.6c.9-.3 1.1-1 1.3-1.6 0 0-1.5-.4-1.8-1.2-.3-.8.2-.9.4-2.2l.4-3.2s.2-3.3.7-7c.5-3.6 1.4-7.8 1.4-7.8l.7-.7.1-1.3-1.2-1.8c-.8-.8-1.3-1.6-1.3-1.6zm-5.5 22.2l-.3 1.3s.4 1 .8 1.3c.5.4 1 .1 1 .1-.3-.7-.3-1.6-.1-2.5l-.1.1-1.3-.3zm6.5 7.8l-.6.2s.5 3.9 1.3 7.1c.7 3.1 1.8 5.5 1.8 5.5l.3-.4s-1.1-3.2-1.8-6.3c-.7-3.1-1-6.1-1-6.1zm19.2 36.7l-.9 1.3c.9.9 2.3 2.7 3.3 4l.4-1.3-2.8-4zm6.5 5.9h-.3c-.5.1-.8.4-1 .7l-.2.6-.1.4-.1-.1-.3 1.1 1.1 2.4c.8 1.7 1.2 2 2 4.2s1.2 4.3 1.2 4.3l2.4 3.7c-.9.6-1.2 1.2-1.3 1.8 1.7.8 2.7 1.8 3.8 2.8.1-.6.7-1 1.5-1.3a457.1 457.1 0 0011.2 8.5l.3-1-.2-.2c-.9-.6-7-4.7-11.5-9a21.6 21.6 0 01-6.5-10.2c-1.2-3.7-1-5.4-1.2-7.8.2-.5-.2-.9-.8-.9zm6.7 22.7c-.1.9-.6 1.7-1.6 2.2l.2.9c.7-.3 1.3-.7 1.6-1.2a39.3 39.3 0 006.5 3.8l.2-.9s-4.2-2.2-5.8-3.6c-.6-.4-1.1-1.2-1.1-1.2zm15.9 2.9c-.7 0-1.3.2-1.7.6-.4.3-.4.9-.4 1.5l1.2 1.8 5 3.9.2.3.5.2.8.5h-.1c-.5.2-.3.3-.2.5h1.1l1 .6h.1l.3.3.8.4 5.5 3.3 4.9-1.3a44.3 44.3 0 01-16.3-11.3c-.5-.9-1.6-1.3-2.7-1.3z" fill-rule="evenodd" clip-rule="evenodd" fill="#ac8b78"/><path class="st79" d="M53 58.5l-1 .5.3 1.7.2 1.9 1.4-1.6-.3-.7-.3-.7v-.1l-.3-1zM33.6 92.1c-.3.7-.5 1.6-.6 2.4l1.4 2.5-.4.9.8.7 1.3-2.4-2.5-4.1zm7.1 3.8l-2.7.7-.1 1.3 2.5-.9.3-1.1zM37 113.7l-.6.5-1.7 2.4 1.2 1.4.7-.2.9-2.3.1-.2-.5-1.5-.1-.1zm-4.3 5.3l.7 1.9.8 2.1 1.2.8v-2.4l.8-1.5-.2-.5-.7 1-1.1.4-1.5-1.8z"/><path d="M36.8 134.4l.4 2.2 1.6 4 1.7 3.1.6-.5-1.7-3.1-2.6-5.7z" fill-rule="evenodd" clip-rule="evenodd" fill="#715549"/><path class="st79" d="M65.9 182.6a2 2 0 00-.8.4c-.2.2.1.5.6.5 1.5.7 2.6 1.7 3.5 2.6l.7-.5a13.5 13.5 0 00-4-3zm-1.1 1.3l-1.4.3c.9.2 1.8.5 2.7 1.2.7.5 1.2 1.3 1.2 1.3l.6-.5s-.1-.6-.9-1.2-2.2-1.1-2.2-1.1zm3.5 3.3l-.9.6c-.3 1.1-1.1 1.3-1.9 1.6l.6 1s1.3-.3 2.1-1c.5-.6.1-2.2.1-2.2z"/><path d="M87.2 192.9s-.9 1.7-1.8 1.9c-.9.2-1.9-1.1-1.9-1.1l-.3 2s1.2 1 2.6 1.7l3.1 1.4c.3-.4-.4-.5-.1-.7a10 10 0 011.8-.9l-2.7-1.6c0-1-.4-1.8-.7-2.7z" fill-rule="evenodd" clip-rule="evenodd" fill="#836555"/><path class="st82" d="M43 141.6a6.1 6.1 0 00-3.5 4.5c.7 1.4 1.4 2.9 2.4 4.5l1.2 1.8 2.7-6.2a71.9 71.9 0 01-2.8-4.6z"/><path d="M65.3 46.8l-4.9 4.7v-.7c-.4 1-.8 2.1-1.8 2.1v.7c-1.4 1.8-3 3.8-4.3 5.8l.3.7 3.9-4.6s-1.4 2.6-3 4.8c-1.5 2.2-1.6 1.6-3.1 4.1-1.5 2.5-2.9 5.9-2.9 5.9l1-.3c2.8-4.4 4-7.1 8-12.4 4.3-5.8 8.4-9.6 8.4-9.6-.6-.6-.9-1.1-1.6-1.2zM51.4 63.5l-1.2 1.6-1.5 2.3c-2.4 3.8-4.3 7.5-6.5 11.3l.3.7 2.9-5.1s5.2-8.9 5.6-9.1l-.3-.1 1-1.1-.3-.5zM38.7 81.3l-.1.3c.8.5 1.2 1.5 1.4 2.4l-.2.4-.1.2-.1.2a36 36 0 00-2.4 5.7l1.4-2.5 1.6-3v-.1l.2-.1.2-.1.2-.2v-.3l-.1-.2-.1-.3v-.3l-.1-.2-.1-.2-.1-.2-.2-.2-.2-.2-.2-.2-.2-.2-.2-.2-.2-.2-.2-.2c-.1.1-.2 0-.2-.1.1.1 0 0 0 0zm-4.5 16.1c-.4 1.2-1.7 11.5-2.4 15.8-.2 1.1-.6 1.6-.6 1.7l.5.4 1-2.1.5-4 .3-5.6 1.4-5.2-.7-1zm-5.1 19.5l-.5 1 2.1 1.6c0-.3.3-.6.6-.8 0 0-.5-.6-1.1-1l-1.1-.8zm3.7 6.7c.3 1.4.7 3.2.9 4.9l.1.7.1 3.5 1-.5-.7-4.6H34l-.1-1.3-.7-2.5-.4-.2zm1.5 10.4l-.4.3c1.3 1.2 2.1 3.4 3.2 6.2l.6 1.5c1 2.5 2.2 5.4 4.2 8.6a70 70 0 008.4 11c3.3 3.8 5.2 6.9 7.8 11.8 1.8 3.3 1.3 4.9 2.2 8.2l.1.1 3.2 2.4s-.7-3.6-2.5-7.9c-1.8-4.3-2.4-5.2-4.9-9.1-2.4-3.9-4.9-6.4-4.9-6.4-.3-.7-.5-1.3-.2-2.5l-2.7-3s-.1-1.2.3-1.7c.3-.3.7-.5 1.1-.6l.7-.1a23.8 23.8 0 01-4.4-5.8l-1.3-2.2-2 5s-.7-2-1.7-4c-1.1-1.9-1.6-2.4-2.5-3.8l-.7-.8-.9-2.7s-1.7-4.1-1.9-4.2l-.8-.3zm31.6 56.3l-.4.3.4.5s.4 1 1.3 1l2.2-.1c7.2 5.5 14.9 9.7 22.5 14.2l1.9-.5C85 201 76.6 196.1 69 190.4c0 0-.7.7-1.4.7-.8 0-1.7-.8-1.7-.8z" fill-rule="evenodd" clip-rule="evenodd" fill="#5c363b"/><path class="st82" d="M47.6 149.2l-2.5 6c1.4 1.9 2.9 3.7 5.3 6.4l2.7 3.4a6.5 6.5 0 013-5.2l-2-2.9c-3.2-4.3-4.3-4.2-6.5-7.7z"/><path d="M44.7 147.6l-1.4 5.2c1.9 3 3.7 5 7 8.7.7-1.8 2-3.7 4-4.3l-.4-.5c-3.3-4.5-4.3-4.1-7-8.5l-2.2-.6z" fill="#6b4a43"/><path d="M47.6 149.4l-2.4 1.6-1.6 2.6a82 82 0 006.6 8.1c1.4 1.7 2.7 3.2 3.8 4.9l1.8.2-1.4-2.5c-2.8-3.1-3.8-5.9-6.5-9 .1-1.3.8-2.3 2.5-2.4-.8-1-1.6-1.8-2.8-3.5z" fill="#502d2d"/><path d="M62.4 117.6c.9-.7 2.2-1.5 2.1.7-.2 4.9-.5 11.7-4.3 18.2-3.8 6.4-7.4 8.6-11.7 16-3.7 6.4-3.5 7.9-2.9 9.9.3.9 1.3 1 1.3 1 1.3 1 1.7 1.9.8 3-2.2-2.1-4.9-3.7-5.5-5.4-1.2-3.5.3-10.4 1.7-15.1 1.4-4.8 6.5-14.3 9-18.3 2.7-4 6.5-7.7 9.5-10z" fill-rule="evenodd" clip-rule="evenodd" fill="#384b38"/><path d="M67.6 44.3l4.1-3.1c2.9-2.4 6.1-4.9 9.4-7 4.6-2.8 9.1-5.6 14-7.6 3.2-1.3 6.5-2 9.9-2.8 1.2-.3 3-.4 2.1 1.2-.8 1.9-2 3.5-3.5 4.9a34.1 34.1 0 01-4.8 3.7c-1.3 1-2.6 1.7-3.9 2.6-1.9 1.1-3.8 2.3-5.8 3.3-1.8 1.1-3.9 1.8-5.7 3l-4.7 2.4c-1.7.4-3.2 1.2-4.8 1.8-1.7.3-3.1 1.1-4.8 1.3-1.3.3-4.7 1.2-3.3-1.3.8-.8 1.3-1.8 2.2-2.5" fill-rule="evenodd" clip-rule="evenodd" fill="#8e896c"/><path class="st74" d="M70.6 46.2s6.3-4.7 10.2-6.8l9.6-5.7c4.6-2.8 9.7-6.9 9.7-6.9s-1.9 2.6-6.2 6c-2.6 2-7.2 4.7-11.5 7-4.6 2.3-11.8 6.4-11.8 6.4z"/><path d="M72.8 40c-.3 0-.6.3-.7.4l-.7.5-.1.1-.5.2-.5.6-.6.6-.7.5-.6.6-.6.5-.6.6-.2.2-.2.2-.6.4-.7.8-.5.7-.7.7-.6.7-.7 1-.6 1-.5.7-.4.7-.6.7-.5.9-.6.9-.6.8-.5.8-.5.7-.5.8-.5.7-.6.7-.7 1-.6 1-.5 1c-.1.3-.4.6-.6.7l-.5.7-.6.8-.6.9-.4.7-.5 1-.6 1.2-.6 1.1c-.2.2-.3.7-.4 1.1l-.2.9V72c0 .2-.4.6-.5.7l-.5 1-.5 1.1-.6 1.3-.3.9-.4 1.4-.2 1.2-.1 1.1c-.1.6-.1.5-.5.7-.3.2-.5.2-.9.2-.5 0-.5.1-.7.4-.4.4.4.6.5.7.2.1.9-.2 1-.2l1.1-.3 1-.5 1.2-.5 1.2-.7 1.4-.7 1.4-.9 1.1-.8c.4-.3.7-.8 1-1.2l1-1.2 1-1.2 1-1.3 1.1-1.3c.4-.4.6-1 .9-1.4l1.4-1.7.7-1.4.5-.9.1-.1c.4-.4.5-.7.7-1.1.2-.4.6-.7.9-1l.8-1.1.7-1 .3-.4.7-.7.5-.7.4-.7.1-.1.3-.5.1-.2.5-.7.5-.7.5-.7c.2-.2.2-.6.5-.9l.5-.7.5-.8.4-.8.3-.8.3-.8.4-.7.4-.7.1-.2.1-.1.1-.1v-.1l.3-.9.2-.9.3-.9.2-1 .2-.9.1-1.1.2-1 .1-1.1-.1-.8-.1-.5-.3-.9-.5-.4c-.4.3-1.2.3-1.6.3z" fill-rule="evenodd" clip-rule="evenodd" fill="#525e4a"/><path d="M105 23.8c-3.4.7-6.7 1.5-9.8 2.8-4.9 2-9.5 4.9-14 7.6l-1 .6-.5.3.3-.2c5.7-3 11.4-5.9 17.2-8.4 2.7-1.2 5.3-1.9 7.9-2.7 0 .1-.1.1-.1 0z" fill-rule="evenodd" clip-rule="evenodd" fill="#919479"/><path d="M72.8 40c-.3 0-.6.3-.7.4l-.7.5-.1.1-.5.2-.5.6-.6.6-.7.5-.6.6-.6.5-.6.6-.2.2-.2.2-.6.4-.7.8-.5.7-.7.7-.6.7-.7 1-.6 1-.5.7-.4.7-.6.7-.5.9-.6.9-.6.8-.5.8-.5.7-.5.8-.5.7-.6.7-.7 1-.6 1-.5 1c-.1.3-.4.6-.6.7l-.5.7-.6.8-.6.9-.4.7-.5 1-.6 1.2-.6 1.1c-.2.2-.3.7-.4 1.1l-.2.9V72c0 .2-.4.6-.5.7l-.5 1-.5 1.1-.6 1.3-.3.9-.4 1.4-.2 1.2-.1 1.1c-.1.6-.1.5-.5.7-.3.2-.5.2-.9.2-.5 0-.5.1-.7.4-.4.4.4.6.5.7.2.1.9-.2 1-.2l1.1-.3 1-.5 1.2-.5 1.2-.7 1.3-.7.4-.6.5-.7.5-.7.5-.9c.2-.4.5-.7.6-1.2l.5-.8.4-.7c.1-.2.1-.7.3-.9l.5-.9.7-1.2.5-1.4.7-1.4.7-1.4.6-1.3.5-1.1.5-1c.1-.3.2-.7.5-1l.5-.8.4-.7.4-.8c.1-.3.1-.6.3-.8l.5-.7c.2-.3.2-.6.5-.9l.5-.9.6-1 .6-1.1.5-1.1.4-.8.4-.7.4-.8.5-.7.5-.8.5-.9.4-.7.5-.8.5-.7.5-.7.5-.7-.5.4-.5.7-.5.8-.4.8-.5.6-.4.8-.5.8-.5.9-.5.7-.5.9c-.1.3-.2.5-.5.7s-.4.6-.6.8l-.6.7-.5.7-.8 1.2-.7.9-.5.7c-.2.3-.7.6-.8.9l-.5.7-.5.9a3 3 0 01-.5.7 3 3 0 00-.5.7l-.6.7-.6.7-.6.8-.5.7-.5.7-.5.7-.4.7-.5.7-.5.7c-.3.2-.7.6-.8.3-.1-.2-.5-.3-.3-.8l.2-1c.1-.3.1-.6.3-.8l.4-.7.5-.7c.1-.3.2-.7.4-.9l.4-.7.4-.8.5-.9.4-.7.5-.7.7-.9.5-.8.5-.7.7-1.2.7-1c.2-.3.6-.6.7-.9l.5-.7.5-.9.5-.8.6-.8.5-.7.5-.9c.2-.3.3-.6.6-.8l.7-.7.5-.7.6-.7.6-.7.6-.7.6-.6.6-.6.7-.5.7-.5.6-.7.7-.6.6-.7.6-.5.7-.5c.3-.1.4-.3.8-.3.5 0 1 0 1.2.2h.1l-.5-.4c-1-.2-1.8-.2-2.2-.2z" fill-rule="evenodd" clip-rule="evenodd" fill="#15271b"/><path d="M57.9 65.1a44 44 0 00-5.1 7.1c-1.7 2.9-3.8 5.5-5.2 8.6l-3.5 7c-.9 1.9-1.4 3.9-2.3 5.8-1 2.2-1.8 4.6-2.2 7-.5 3-1.3 5.9-1.8 8.9-.4 2.2-.9 4.5-1.8 6.6-1.4 1 .9 2.3.8.5 1.3-2.1 2.3-4.4 4-6.3 1.6-1.7 2.7-3.7 4-5.5 1.4-2 2.7-4.2 4.3-6.1 1.4-1.8 2.8-3.7 3.9-5.6 1.1-1.8 2.2-3.5 3.2-5.4 1.5-2.6 3.2-5.1 4.1-7.9l1.9-6.5c.7-2.1 2.4-4.2 1.9-6.6-.3-1.6.4-4.6-1.4-4.9-1.7-.3-3.5 1.8-4.8 3.3z" fill-rule="evenodd" clip-rule="evenodd" fill="#445743"/><path d="M62.3 61.7c-1.6 0-3.3 2-4.5 3.4a33.2 33.2 0 00-3.2 4.2c0 .6 0 1.2-.2 1.6l-1.5 2.5c-.3.7-.7 1.3-.9 2 .3.5 1-.4 1.2-.7.6-.7.8-1.5 1.3-2.2.6-1.1 1.6-1.8 2.4-2.7.5-.7 1.2-1.3 1.9-1.9-.6.7-1.3 1.5-1.7 2.4l-1.6 2.6a4 4 0 00-.5 1.8c.1 1 .8.1 1.1-.2.8-.7 1.4-1.7 1.9-2.6.6-.8 1-1.7 1.7-2.4.5-.7.9-1.4 1.6-2 .1.5-.2 1-.4 1.5-.3 1.1-1 2-1.2 3.1l-.9 3.6c.4.4.9-.5 1-.9l1.1-2c.5-.6.7-1.4 1.2-2 .2-.4.7-.6 1.3-.8.4-1.1.7-2.2.5-3.4-.3-1.6.4-4.7-1.4-4.9h-.2z" fill-rule="evenodd" clip-rule="evenodd" fill="#606f5a"/><path d="M62.3 61.7c-1.6 0-3.3 2-4.5 3.4a44 44 0 00-5.1 7.1c-1.7 2.9-3.7 5.5-5.2 8.6l-3.5 7a43 43 0 00-1.3 3.2v.2l-.3.7-.1.2-.6 1.4v.1l-.1.3c-.5 1.3-1.1 2.6-1.5 4v.1l-.1.6-.1.4-.1.5v.1l-.2.9-.3 1.3-.7 3.3v.2c.7-1.7.8-3.5 1.3-5.2.3-2.5 1.6-4.9 2.4-7.2.7-2 1.8-3.6 2.8-5.5l2-4.6c1.6-3 3.4-5.6 5.1-8.6.9-1.6 1.9-3.5 3.1-4.8l3.6-3.8c1.3-1.3 2.7-3.1 4.3-3.6l-.4-.2-.5-.1zm-24 44.7l-.6 3-.1.9c.2-1.2.6-2.5.7-3.9z" fill-rule="evenodd" clip-rule="evenodd" fill="#0f290d"/><path class="st26" d="M193.2 177.9l-.5.2-.8.7c-.9.7-1.8 1.5-2.5 2.4-.2.2-.3.6-.3 1s.2.5.4.7c.1.3.3.4.5.6l.5.7.2.9v1.2l-.3 7v1.2l-.2 1.1-.4.7-.6.7-.9.6a106.4 106.4 0 01-8.9 7.2l-.8.5-.5.3a1 1 0 00-.7.3l-.8.4-1.2.1-1.2-.1-1.3-.1h-4.1l-1.3-.2-1.2-.2-1.3-.1-1.2-.2-1.2-.2c-.5 0-.7 0-1.2-.2l-1.4-.2a5 5 0 01-1.2-.2c-.3-.1-1.1 0-1.4-.2l-1.4-.5-1.4-.2-1.2-.2-1.7-.3-1.2-.3-1.1-.2c-.4-.1-.8-.4-1.2-.4-.5 0-.8-.2-1.3-.3l-1.3-.3-1.4-.3-1.2-.2c-.5-.1-1-.5-1.6-.5l-1.9-.2-1.6-.2h-5.4l-1.2.1H129l-1.4-.2-1.3-.1h-.1l-.3-.5-.8-1-.6-.6c-.2-.2-.4-.6-.7-.7l-.7-.8a1 1 0 00-.9-.2l-.8.5c-.4.1-.5.2-.7.4l-.7.4c-.3.1-.3.3-.8.3l-1.4-.1-1.2-.1c-.4 0-.7 0-1 .2l-.7.4c-.4.2-.7.2-.9.4l-.8.4-.7.5-.5.3-.2.1-.5.3-.6.2-.5.2-.6.2-.5.1h-2l-.8-.1h-8.1l-.6.1H97l-.5.2-.4.1-.3.1-.2.1-.2.1a1 1 0 00-.5.2l-.3.2-.4.1-.5.2c-2.2.7-5.8 1.6-10.4 2.4-7.7 1.3-6.8 1.4-18 2.2l-1.8-.1c-.6 0-1.1 0-1.4-.2l-1.1-.6-1.2-.7-2-1.3a81 81 0 01-3.6-2.6l-2.3-1.8c-.8-.7-1.6-1.2-2.4-1.7l-.4-.8s-1.2-.9-1.5-1.3l-1.4-1.3c-.4-.3-.5-1.2-.5-1.4 0-1 .3-1.9.7-2.9l.2-.6 1-1.7c.4-.5.7-.6.6-1.1v-1.4c.1-.4.4-.6.6-1.1l.1-1.5c0-.4-.4-.7-.7-1-.3-.3-.4-.7-.6-1-.4-.4-.6-.5-1.1-.7h-.2c-.4 0-.7.5-.9.8l-.4 1.2-.5 1.1-.7 1c-.2.4-.7.1-1 .1H31.6c-.5 0-.9-.1-1.3.1-.5.2-.6 1-.7 1.5l-1 2.9c-.5 1.8-1.6 3.6-2.3 5.1-.9 2-1.8 3.8-3 5.6-.3.4-.4.7-.5 1.1-.3.6.1.9.3 1.2.2.3.5.7.5 1.1.1.4.5.8.7 1.2.3.5.6.7.7 1.2.1.4.7.8.9 1.1l.9 1.2.7 1.1c.2.4.6.5.9.7s.9.6 1.3.7c.6.1 1 .6 1.4.7l.2.1c6.7 3.2 17.6 10.7 23.1 14 .7.1 1 .6 1.6.7.4.1 1 .6 1.3.7l1.1.7c.4.2.7.3 1.3.3l1.5.1 5.8-.3 1.5-.1h2.3l1.3-.2 1.3-.1 1.1-.1 1.2-.1 1.2-.1 1.2-.2 1.2-.2 1.1-.2 1.1-.2.8-.1.8-.1.8-.1.7-.2 1-.2.7-.1.6-.2.7-.2.7-.2.7-.1c.3-.2.6-.1 1-.3l.9-.2.7-.2.7-.2.8-.2.2-.1.7-.4.1-.1h.1l.6-.2.9-.3 1.3-.2 1.2-.3 1-.3 1-.3 1.5-.3 1.4-.4 1.1-.4 1.5-.3 1.2-.2 1.6-.4a4 4 0 011.4-.3 3 3 0 001.3-.3l.3-.1 1 .5.9.3c.4 0 .6.3.9.4l.7.4c.4.1.7.4.9.5l.8.4 1 .5.9.4c.4.1.4.3.7.4.3.1.8 0 1.1-.1.3-.1.5-.4.6-.5l.7-.4.8-.5.8-.4.8-.5.7-.5.9-.5.9-.5c.3-.1.4-.3.5-.4l.6.1 1.1.2c.3.1.7.1 1 .3l1.2.4 1.2.5 1.1.3 1.1.5 1.2.3 1.2.3 1.1.4 1.2.4 1.1.3 1.2.2 1.6.2c.8 0 .9.1 1.5.3.5.1 1 0 1.4.2l1.2.3 1.2.2 1.2.4 1.6.4c.5.1 1 0 1.4.2l1.4.3 1.4.2.3.1 1.3.3 1.5.2a7 7 0 011.5.1l1.3.2 1.4.2h1.2l1.3.2 1.3.2h1.4l1.4.1H178.5l1.2-.1h1.2l.9-.3.7-.5a386.5 386.5 0 0025-16.2l1.1-.5.7-.4.9-.5.6-.7.6-.6c1.1-1 2.1-2 2.9-3.3l.5-.8.7-.8c.2-.3.4-.3.5-.7.2-.4.5-.5.1-.9l-.5-1-.6-1.2c-1.3-2.6-2.9-5.1-4.4-7.7l-.5-1.1-.4-.7a8 8 0 00-.4-.9v-1l.2-1c.1-.3 0-.8-.1-1.1l-.5-.7a3 3 0 00-.7-.5c-.3-.2-.8-.1-1.2-.1l-1.8.1-1.4.1-5.5.1h-2.5c-.6 0-.6 0-.9-.3a3 3 0 01-.2-1l-.1-1.1-.1-1.1-.2-.9a3 3 0 00-.5-.7l-.6-.2z"/><path class="st27" d="M30.7 185.3c-.6.2-.4 1.3-.3 1.5.1.4.2.3 1 .7.8.4 2.6.9 4 1.3.7.3 1.7.7 2.4 1.2 3.4 2.4 7 4.7 10.4 7.2l.7.7c.2.4-.2-.9-.3-1.3l-.4-1.2-.4-1.2c-.2-.4-.1-1-.1-1.5s-.3-.9-.3-1.4V188c0-.5.2-.9.3-1.3l.2-1.4.4-1.4c.1-.6.1-1.2-.1-.3l-.7 1c-.2.3-.7.5-1.1.5H33c-.6 0-1.9 0-2.3.2z"/><path class="st46" d="M91.7 206.2l1 1 2.5 10.1-.4 1.4 3.5-.9-1-1-2.5-10.2.4-1.3-.7.2-2 .5-.8.2zm45.7-1.9l.5 1.4-2.1 10.2-1 1.1 3.5.7-.5-1.3 2.2-10.2 1-1.1-.7-.2-2-.4-.9-.2zm36.7 5.2l.7 1.3.1 10.4-.7 1.3h3.6l-.7-1.2-.1-10.5.7-1.2H175l-.9-.1zM40.3 196.8v1.4l-5.7 8.7-1.3.6 6.6 4.3 1.9-1.6-2 .1-3.4-2.2 2.5-3.8 1.7 1.1.7 1.4 1.5-2.4-1.6-.1-1.7-1.1 2.6-4 3.2 2.1.9 2 .5-2.5-6.4-4zm8.2 5.5v1.4l-5.6 8.8-1.3.7 3 1.9v-1.4L47 210l1.2.7c1.7 1.1 4 .6 5-1.1 1.1-1.7.6-3.9-1.1-5l-.6-.4-.6-.4-1.2-.7-.6-.4-.6-.4zm1.8 2.4l.4.3c1.1.7 1.5 2.2.7 3.4a2.4 2.4 0 01-3.4.7l-.4-.3 2.7-4.1z"/><path class="st94" d="M57.8 208.2l-1 1.2v7.5l5-6-.5-1.1 3.6.2-1.6 1.6-8.7 10.3.2-13.1-.5-2.5 3.5 1.9z"/><path class="st46" d="M86.7 207.4l-.7.2-2 .4-.7.2 1 1.1 2.1 10.2-.5 1.3 1.2-.3 1.4-.3.9-.2 4.2-.9.3-2.5-1.4 1.5-4 .8-2.1-10.2.3-1.3zm81.7 1.8l-.7-.1-2-.2-.7-.1.6 1.3-1 10.3-.9 1.2 1.2.1 1.4.1.9.1 4.3.4 1-2.3-1.8 1-4.1-.4 1-10.4.8-1zm-25.8-3.9l-1.4 2.1 2.1-.8 2.8.5v.1l-1.9 10.2-1 1.1 3.5.7-.5-1.3 2-10.3 2.8.5 1.6 1.5-.5-2.5c-3.2-.5-6.4-1.1-9.5-1.8z"/><path class="st94" d="M157.9 208.1l-6.5 10.5-1.5 1.2 2.9.4-.1-1.4 1.8-3.2 3.9.6.9 3.3-.8 1.4 4.1.6-1.1-1.5-3.6-11.9zm-.9 3.2l1.1 3.7-2.9-.4 1.8-3.3zm23.4-3.2l2.5 12.1-.3 1.9 2.4-1.7-1.1-1-.9-3.6 3.2-2.2 2.9 1.8.4 1.6 3.3-2.4-1.8-.4-10.6-6.1zm1.6 2.9l3.3 1.9-2.4 1.7-.9-3.6zm19.3-17.4l2.1 12.2-.3 1.8 2.5-1.6-1-1-.7-3.6 3.3-2.1 2.9 1.8.3 1.6 3.4-2.3-1.8-.4-10.7-6.4zm1.5 3l3.2 2.1-2.5 1.6-.7-3.7z"/><path class="st46" d="M186.5 203.7l1.3.6 5.9 8.6.1 1.4 2.3-1.6-1.3-.6-4.7-6.8 11.3 3.8.4-.3-6.6-9.6-.1-1.4-2.3 1.6 1.3.6 3.7 5.4-9.3-3-2 1.3zm-83.6 0c-3.7.5-6.1 4.2-5.5 7.8a6.8 6.8 0 0012.5 2.3v-.6l-.8-.3a4.7 4.7 0 01-3.3 2.7c-2.6.5-5.1-1.6-5.7-4.5-.5-3 .7-5.5 3.4-6 1.3-.2 3.3.4 4.4 1.5l-.8-2.6-.7.4c-1-.7-2.5-.8-3.5-.7z"/><path class="st95" d="M109.3 200.9a17.8 17.8 0 001.9-1.2c.2-.2.6-.2.9-.2a3 3 0 011-.2l1.1.1h1.2l1.1.1h1.2c.5 0 .7 0 .9.2.2.2.2.7.2.9.1.5.2.5.4.8l.5.7c.2.2.3.6.5.7l.4.9.4.8.4.9.4.9.5 1c.2.3.4.5.5.9l.3.9.4.8.5 1c.2.3.2.6.2 1s.2.8.3 1c.2.4-.2.7-.2.9-.1.3-.4.5-.7.5a3 3 0 00-.7.5c-.3.2-.2.6-.2.8 0 .3-.3.6-.5.7l-.6.6-.8.4-.7.4-.9.2c-.4 0-.8 0-1.1.2-.4.2.2.5.4.5.3.2.7.2 1 .3l1 .2.9-.3.7-.5.8-.5 1-.6.7-.6.9-.4c.3-.1.4-.3.9-.3.6 0 .7.2 1-.2l.2-.9.5-1c.1-.4.4-.7.5-.9l.4-.9.5-.8c.1-.2.9-.1 1.2-.1h1.2c.5 0 .6 0 .7-.4.2-.4.2-.9.2-1.4 0-.5-.2-.6-.3-.8l-.4-.8c-.1-.3-.3-.6-.5-.7a3 3 0 01-.5-.7l-.5-.7-.5-.7c-.1-.3-.3-.6-.5-.7l-.7-.7-.5-.7-.6-.7c-.2-.2-.5-.2-.7-.5-.2-.2-.3-.6-.5-.7l-.6-.7c-.3-.3-.3-.4-.7-.5l.4.2 1 .5.8.5.8.5.6.7c.1.2.5.4.7.5l.7.7c.4.3.5.4.6.7.1.3.5.6.7.7.3.3.5.4.6.7l.6.5.6.5.6.7.4.7.1 1.2-.2 1.3v1.4l-.1 1.2-.4.7c-.1.2-.8.5-1 .5l-.8.5-1 .7-.7.7a2 2 0 01-.9.5l-.7.5-.8.5-.9.5-1 .5-.7.4c-.2.1-.7.3-.7.5l-.9.5c-.3.1-.5.5-.7.7l-.7.5-1 .5-.7.4c-.3.1-.8 0-1.1-.1l-.8-.3c-.4-.1-.6-.4-.9-.5l-.7-.5-.7-.5c-.3-.2-.6-.2-.7-.5l-.9-.4c-.5-.1-.3-.2-.2-.5l.6-.5.7-.5.7-.4c.2-.1.6-.3.7-.5l.7-.4.9-.2 1.1-.1c.4 0 .5-.3.6-.5l.6-.6.5-.7c.2-.2.4-.4.4-.8l.1-1.1-.1-1.1-.4-1.1-.3-.8-.4-1-.5-1.3-.6-1a3 3 0 01-.2-1l-.2-1.1-.4-1-.5-.9c-.2-.2-.2-.6-.3-.8l-.5-.6c-.3-.3-.9-.3-1.2-.5a3 3 0 00-1-.2l-1.1-.2-1.1-.1h-1.2c-.4 0-.5.2-.8.3l-.7.4c-.7.5-.9.5-1.4.5z"/><path class="st94" d="M113.9 202.9l-3.3 11.9-1.1 1.6 2.9-.4-.5-1.3.9-3.6 3.9-.5 1.8 2.9-.4 1.6 4.1-.6-1.4-1.2-6.9-10.4zm.1 3.4l2 3.2-2.9.4.9-3.6z"/><path class="st95" d="M43.7 179.6c.1.4-.1 1.1-.1 1.6l-.1 1.5c-.2.7.1 1.1.3 1.3.2.2 1.1.1 1.5.1.6 0 .8-.3 1.4-.4.5-.1.7-.5.7-.9.1-.5-.3-.9-.4-1.2l-.7-1c-.1-.3-.7-.6-.9-.7l-1-.7c-.2-.2-.7-.1-.7.4z"/><path class="st27" d="M193.2 177.9l-.5.2-.7.6 1-.6.2-.2c0 .1 0 0 0 0zm.9.9l-.7.4-.7.5-.7.5-.5.6-.4.7c-.1.4.1.5.2.7.2.3.3.4.6.5.3.1 1 .5 1.3.5h1.8l-.5-1.2-.1-1.1-.1-1.1-.2-.9c.1.1 0 0 0-.1zm-3.4 1.1l-1.3 1.3-.2.6v.9l.3.3c.1.3.3.4.5.6l.5.7.2.9v1.2l-.3 7v1.2l-.2 1.1-.4.7v.1l2.5-2.3c.7-.6 1.6-1.1 2.4-1.4l4.4-2.8.7-.4.7-.5.8-.4c.2-.1.6-.2.7-.4l.7-.5.7-.4.7-.4.7-.4.7-.4.7-.4c.2-.1.7-.2.7-.4.2-.3.2-.6-.3-.7l-1.1-.1h-3.4l-1.1-.1h-5.1l-1.1-.1h-2.5l-1.1-.2-.8-.3-.5-.6c-.3-.1-.4-.3-.5-.6-.3-.3-.5-.7-.5-1l.3-.7.4-.7c.8 0 .9-.2 1.1-.4z"/><path class="st46" d="M65.2 210l.7 1.3v10.4l-.7 1.3h5.5c2 0 3.6-1.7 3.6-3.6 0-1.6-1-2.9-2.4-3.4a3 3 0 001.1-2.4c0-2-1.7-3.4-3.6-3.4l-4.2-.2zm2.7 1.2h.4c1.3 0 2.5.9 2.5 2.2 0 1.3-1.1 2.2-2.5 2.2h-.4v-4.4zm0 5.6h1.8c1.3 0 2.5 1.1 2.5 2.4 0 1.3-1.1 2.5-2.5 2.5h-1.8v-4.9z"/><path d="M122.3 196.6l-.3.1-.8.5c-.4.1-.5.2-.7.4l-.7.4-.4.3h.2c.4 0 .7-.3 1-.5l.9-.5h1.2c.5 0 .6.1.8.4l.7.6c.2.1.4.7.5.9l.5.7c.2.3.7.6.9.7l.7.6c.2.2.7.2 1.1.1l1.1-.2h1.2l1.2.1 1.1-.2c.4-.2.6 0 .9-.3h-.4l-1.2.1H129l-1.4-.2-1.3-.1h-.1l-.3-.5-.8-1-.6-.6c-.2-.2-.4-.6-.7-.7l-.7-.8c-.3-.2-.5-.3-.8-.3zm-6 1.5c-.4 0-.7 0-1 .2l-.7.4c-.4.2-.7.2-.9.4l-.8.4-.7.5-.4.2.7-.2 1-.3.7-.5 1-.5.9-.4h2.2l-.7-.1-1.3-.1zm1.3 18.7l-.1.1-.8.4-.9.4-1 .2c-.3.2-.9.1-1.2.4-.4.3-1 .1-1.4.3h-.6c.1.1-.4.1-.4.1.1.3 1.3.9 1.8.8.4-.1.6.3.9.4l.7.4c.4.1.7.4.9.5l.8.4 1 .5.9.4c.4.1.4.3.7.4.3.1.8 0 1.1-.1.3-.1.5-.4.6-.5l.7-.4.8-.5.8-.4.8-.5.7-.5.5-.4-.2.1-.7.5a3 3 0 00-.8.4l-.7.5-.9.4c-.3.2-.6.5-.8.5l-.7.4c-.3.1-.5.3-1 .2l-.9-.2c-.5-.1-.6-.2-.8-.4-.2-.1-.6-.3-.7-.5-.1-.1-.4-.5-.6-.5l-.7-.4-.9-.5c0-.3.2-.3.5-.5l.7-.5.7-.5c.2-.2.6-.5 1-.6.1-.4.5-.9.2-.8zm11.3 1.3l-1 .2.7.2c.3.1.7.1 1 .3l1.2.4-.3-.1-.7-.5-.9-.5zm2.9 1.3l.2.1.5.2-.2-.1a.8.8 0 01-.5-.2zm5.2 1.7l.4.1 1.2.4 1.1.3 1.2.2 1.2.1-.5-.1-1.1-.4-1.2-.3c-.4-.1-.7 0-1.2-.2-.2.1-.6 0-1.1-.1z" fill-rule="evenodd" clip-rule="evenodd" fill="#601317"/><path class="st46" d="M74.6 209.3l.8 1.2.5 10.4-.7 1.3 5.5-.3c2-.1 3.6-1.8 3.4-3.8a3.7 3.7 0 00-2.6-3.3c.6-.6 1-1.5.9-2.5-.1-2-1.8-3.3-3.8-3.2l-4 .2zm2.9 1h.4c1.3-.1 2.5.7 2.6 2.1.1 1.3-1 2.3-2.4 2.4h-.4l-.2-4.5zm.3 5.6l1.8-.1c1.3-.1 2.5 1 2.6 2.3.1 1.3-1 2.5-2.4 2.6l-1.8.1-.2-4.9z"/><path d="M47.2 158c-.4 1.3-.5 2.6-.5 4 0 .6-.5.4-1 .3-.8-.2-.2.1-.5.2v1.2c0 .6 0 .5.2.9.1.3.5.5.7.6l.9.5c.5.2.4.3.6.6.2.2.2.9.3 1.2.5 1.6 1.1 3 1.9 4.5l.5 1 .6.7.5.7c.3.4.1.5-.1.7-.3.3-.9.1-1.2.1-.5-.1-.1-.2-.1.5v1c0 .3-.3.4-.4.5 0 0 .7.4 1 .4l1 .4c.6.4.7.9 1.1 1.3 2.7 3.9 6.2 7.2 10.5 9.2l.9.5a9 9 0 001.1.6h.7l.5-.3.4-.3.3-.3.3-.4.2-.4.1-.5v-.6l-.1-.5-.2-.4-.2-.4-.1-.2-.3-.4-.7-.6-.8-.4c-3.1-1.2-6.6-3.1-8.3-5.9l-.5-.7-.4-.7a3 3 0 01-.2-1l.2-1c0-.7 0-.5-.5-.7l-1 .3-.1-1.1c0-.4-.2-.6-.5-.7-.3-.2-.8-.1-1.2-.1-.2 0-.4-.6-.5-.7l-.3-.8c-.8-1.5-1.3-2.9-1.8-4.5l-.2-1.4c0-.3 0-.5.2-.8l.4-.7.5-.7.1-.2-.9-1.1c-1.1-1-2.1-2.2-3.1-3.4z" fill-rule="evenodd" clip-rule="evenodd" fill="#9f8479"/><path d="M46.8 160l-.1 1.6.7.4c.2.1.5.2.5 0l-.1-.7c-.1-.2-.1-.4-.3-.5l-.6-.5-.1-.3zm-1.7 2.6v1c0 .6 0 .5.2.9.1.3.5.5.7.6l.9.5c.5.2.4.3.6.6.2.2.2.9.3 1.2.5 1.6 1.1 3 1.9 4.5l.5 1 .6.7.5.7c.2.2.2.3.1.4.1 0 .3.1.4 0 .1-.1.5-.1.5-.3 0-.3 0-.3-.2-.5l-.3-.4-.4-.4-.4-.4-.3-.5-.3-.4-.3-.6-.3-.5-.3-.7a2 2 0 00-.2-.6l-.3-.7-.2-.5-.2-.6-.2-.6-.3-.5-.2-.5-.2-.5a1 1 0 00-.2-.5l-.3-.3h-.1l-.5-.3-.5-.4-.2-.4-.2-.5-.3-.3c.1.2-.2-.1-.3-.2zm4.9.5l-.4.2c-.2.1-.1.5-.1.7 0 .3.2.5.5.7l.1.1.1-.4.4-.7.3-.4-.6-.1-.3-.1zm6 11.3l-.5.2-.5.2c-.2.1-.2.2-.2.4s.3.4.4.5l.8.4v-.1l.2-1-.2-.6zm-6.1 2.5l-.3.3a9 9 0 002 .9c.6.4.7.9 1.1 1.3 2.7 3.9 6.2 7.2 10.5 9.2l.9.5a9 9 0 001.1.6h.7l.5-.3.4-.3.3-.3.2-.3h-.4l-.4.2-.5.1-.5-.1-.5-.2-.7-.3-.7-.4-.7-.4-.6-.4-.5-.4-.6-.3-.5-.4-.4-.3-.7-.4-.4-.3-.3-.4c-.1-.2-.3-.4-.5-.4l-.5-.3-.7-.5-.4-.4-.5-.4-.5-.4-.3-.4-.4-.4-.4-.4-.3-.4-.3-.4-.3-.4-.3-.4-.3-.4-.3-.4-.3-.4c-.1-.1-.2-.3-.4-.3l-.5-.1-.5-.1-.4-.2-.3-.3-.5-.3c0 .2-.1.2-.1.1z" fill-rule="evenodd" clip-rule="evenodd" fill="#281f22"/><path d="M54.4 173l-.3.2-.3.3.3.5c.1.1.3 0 .4-.1v-.4c.1-.2 0-.4-.1-.5z" fill-rule="evenodd" clip-rule="evenodd" fill="#7f6044"/><path d="M49.6 161.8c.3.2-.5.3-.7.6l-.4.5-.3.6v.5l.3.5.4.6.3.3c.2.2.2.1.4.1s.2-.2.3-.3v-.6-.7-.8l.1-.7v-.5l-.4-.1zm9.7 19.7c-.1-.3.3.4.5.6l1.1.5.6.3.7.3.6.4.7.4.7.3.7.4.6.3.6.3.3.4.3.6.3.6v.5c0 .2-.4.2-.5.2-.3 0-.6-.3-.8-.5a3 3 0 00-.7-.5l-.7-.6-1.2-.6-1-.7-1.1-.7c-.3-.2-.6-.4-.7-.7l-.7-.7-.5-.5-.2-.4c.1.1.4-.1.4-.2z" fill-rule="evenodd" clip-rule="evenodd" fill="#b39a7f"/><path d="M63.8 116.9c-.4 0-1 .4-1.4.7-3 2.3-6.8 5.9-9.4 10-2.1 3.3-5.9 10.4-8 15.4l4.1-3.7-.1 3.1s-1.4 1.5-2.4 4c-1.5 3.9-2.8 8-3.3 12.7 1.6-4.1 2.4-8.3 4.2-12.5 1-2.2 1.9-2.5 1.9-2.5s.3 1.6.8 2.9l.7 1.4c3.2-4.5 6.1-7 9.2-12.1 3.8-6.4 4-13.2 4.3-18.2.1-.9-.2-1.2-.6-1.2z" fill-rule="evenodd" clip-rule="evenodd" fill="#32382f"/><path d="M63.8 116.9c-.4 0-1 .4-1.4.7-3 2.3-6.8 5.9-9.4 10-2.1 3.2-5.7 10.1-7.9 15.1h.2s2-2.1 3.6-5c1.7-3 1.9-4 4-7.4 2.1-3.4 3.7-5.6 4.3-6.1.5-.5 3.6-3.9 5.3-5.4 1.7-1.5 2-.6 2-.6 0-1-.3-1.3-.7-1.3z" fill-rule="evenodd" clip-rule="evenodd" fill="#172321"/><path d="M47.1 138.8l-1.4 2.6-.1.2-1.7 4.3c-.9 2.9-1.8 6.7-2 9.9 0 .5-.2 1.8-.1 2.1.2 1.4.2 1.7.6 2.7.3.7.4 1.5 1 2 1.1 1.1 2.6 2.1 4 3.4l.3-.7s-2.5-1.7-3.1-2.4c-.6-.7-.5-5.2-.5-6.5-.5.4-1.3 2.1-1.6.4-.3-1.7 0-4.1.3-5.8.3-1.8 1.2-4.4 2-6 .8-1.6 3.4-5.9 3.4-5.9l-1.1-.3z" fill-rule="evenodd" clip-rule="evenodd" fill="#273423"/><path d="M57.3 112.9c-.9 0-2.9 5.3-3.4 7.5a68.7 68.7 0 00-2.4 19.3c0 6 .1 10.5.5 14.6l2 2.5c1.9 2.6 3.6 5.1 4.8 7.1l1.1-5.1C61 153.1 63 148 63 136.5s-2.6-23.6-5.7-23.6zM54 166.4c.8 3 1.6 4.7 1.7 6.4a7 7 0 01-.2 2.3l1.2.9.6-3.9c-1.1-2.2-2.2-4-3.3-5.7z" fill-rule="evenodd" clip-rule="evenodd" fill="#4b5d47"/><path d="M56.8 130.2c-.5 4.6-.7 15.4-1.4 23.6l-.3 4.7 1.3 1.9v-1.7c.6-11.3.4-28.5.4-28.5zM54 166.4c.8 3 1.6 4.7 1.7 6.4.1 1.3-.3 1.8-.3 1.8s-.1 1.3.7 1.3c.6 0 1-.9 1.4-3.5-1.3-2.3-2.3-4.2-3.5-6z" fill-rule="evenodd" clip-rule="evenodd" fill="#1f3217"/><path d="M57.3 112.9c-.9 0-2.9 5.3-3.4 7.6a68.7 68.7 0 00-2.4 19.3c0 6 .1 10.5.5 14.6l.5.6v-.1c-.4-7.2-.8-9.6-.2-18.7.6-9.1 1.3-11.8 2.7-17.6 1.3-5.8 2.5-5.6 2.5-5.6l-.1-.1h-.1z" fill-rule="evenodd" clip-rule="evenodd" fill="#253220"/><path d="M38.7 52.5c1.6-1.9 3.9-2.3 4 .6.2 9.3-3.1 19-5.5 28.7-3.6 14.8-7.5 26.4-8.1 30.4-.3 1.7-.4 2.9.2 4.1.5 1.2 2 .6 2 .6l.6 1.8-2 .5c-3.2-3.7-5-7.4-5.4-11.5-.7-8.2-.9-19-.2-23.4a72.8 72.8 0 0114.4-31.8z" fill-rule="evenodd" clip-rule="evenodd" fill="#576049"/><path d="M41.8 51.1c-.6.7-1.7 2.2-3.2 5.6-2.2 5.2-3.3 7.8-5.2 13.5-1.9 5.7-2.8 9.3-4.4 15.6-1.7 6.3-1.9 11.1-2.6 14.8-.7 3.9-.6 5.4-.6 8 0 2.4.2 4 .9 5.8 1 2.4 2.7 4 2.7 4l2.2.2-.5-1.6s-1.4.6-2-.6c-.5-1.2-.4-2.4-.2-4.1.6-4.1 4.5-15.7 8.1-30.4 2.4-9.7 5.7-19.4 5.5-28.7.1-1.2-.2-1.8-.7-2.1z" fill-rule="evenodd" clip-rule="evenodd" fill="#415243"/><path d="M30.5 65.5a68.6 68.6 0 00-6.1 18.9c-.7 4.4-.6 15.2.2 23.4a20 20 0 005.4 11.5l.5-.1-.6-1.6s-1.5-1.2-2.2-3.9c-.7-2.7-1-4.5-.7-7.1.6-5.6 1.1-8.9 2.1-15.9 1.1-7 2.1-12.1 2.1-12.1s-2.4 8.5-3.7 16.5c-1.3 8-1.4 15.4-1.4 15.4s-.7-2.8-1.1-7.4c-.4-4.5-.7-5.8-.5-10.9s-.1-3.8 1.2-9.5 2.8-8.7 4-13.3c.5-1.9.7-3.1.8-3.9z" fill-rule="evenodd" clip-rule="evenodd" fill="#223225"/><path d="M63.2 69.9c-2.6 5-3.5 10.9-6.5 15.7-2.1 3.5-4.1 7.3-6.8 10.4 1.2-2.8 3.4-6.5 4.9-9.6-2.8 4-5.7 9-7.9 13.9-1.8 3.2-4 6.2-6 9.2-.9 1.3-2 2.5-2.5 4.1.7-1.2 1.4-2.4 2.4-3.4 1.6-1.7 2.7-3.7 4-5.5 1.4-2 2.7-4.2 4.3-6.1 1.4-1.8 2.8-3.7 3.9-5.6 1.1-1.8 2.2-3.5 3.2-5.4 1.5-2.6 3.2-5.1 4.1-7.9l1.9-6.5 1.2-2.8-.2-.5z" fill-rule="evenodd" clip-rule="evenodd" fill="#27362b"/><path class="st46" d="M31 190.8v1.4l-5.5 8.8-1.3.7 3 1.9v-1.4l2.4-3.7 1.2.7.2.1c-1 5 .7 7.6 1.8 8.4l.2-.6c-1-2.1-1.2-4.6-.6-7.4 1.3.1 2.6-.5 3.3-1.7 1.1-1.7.5-4-1.2-5l-.6-.4-.6-.4-1.2-.7-.6-.4-.5-.3zm1.7 2.5l.4.3c1.2.7 1.5 2.2.8 3.4a2.5 2.5 0 01-3.8.5l2.6-4.2z"/><path d="M165.7 41.5l-.4.3-.9.5-.7.5c-.3.2-.4.5-.5.8-.1.4.1.8.2 1.1l.2 1c0 .2.4.6.5.7l.3.4h.1l.7.2 1.6.2h.2l1.3.2h5.8c.3-.7-.4-.2-.7-.4-.4-.2-.9-.2-1.3-.5l-1.6-1.1-.3-.2c-.5-.3-.9-.8-1.5-1.1-.4-.2-1.6-1-1.7-1.3-.5-.4-1.3-.8-1.3-1.3z" fill-rule="evenodd" clip-rule="evenodd" fill="#475538"/><path d="M40.9 82.3l-.3-.3h-.5l-.2.2v.4l.1.3h.5c.1 0 .4.1.4 0 .1-.1 0-.3 0-.4.1-.1.1 0 0-.2z" fill-rule="evenodd" clip-rule="evenodd" fill="#38332d"/><path d="M33.6 94.8c0 .2.6 1.1.9 1.3l.2.5.1.5v.5c-.1.1 0 .5-.2.5-.3 0-.4-.2-.5-.5-.1-.2.1-.4.1-.6l-.1-.5-.3-.4-.5-.9.3-.4z" fill-rule="evenodd" clip-rule="evenodd" fill="#634937"/><path d="M62.1 165h-.3c-.5.1-.8.4-1 .7l-.2.6v.2l1.9 3.7.8-2.4-.1-1.7c-.1-.7-.5-1.1-1.1-1.1zm1.7 6.9l-.6 1.6 1.2.5-.1-.2-.5-1.9z" fill="#7f6044"/><path d="M21 117.9c-1.9.6-.8 3.3-1 4.9-.3 2.4-.1 4.8-.1 7.2 0 2.1 0 4.4.6 6.7.7 2.6 1.6 5.3 2.6 7.8 1 2.4 1.9 4.9 3.2 7.1 1.3 2.3 2.9 4.1 4.4 6.3a55.5 55.5 0 009.7 11.9c1.8 1.9 3.6 3.8 5.9 5.2 1.4 1.7 4.4 4.1 6.3 2.4-1-2.2-4.3-2-5.1-4.8-.7-2.1-1.9-4-2.9-6.2-1-2.5-2-5-2.7-7.6-.6-2.1-.7-4.5-1.8-6.5-2.4-6.5-5.1-12.9-8.2-19-2.1-4.1-4.9-7.9-7.3-11.8-.8-1.7-1.8-3.5-3.6-3.6z" fill-rule="evenodd" clip-rule="evenodd" fill="#526049"/><path d="M21.5 120.1s-.2.6.2 2c.4 1.5-.1-.9 1.3 3.9l4.4 15.4c1.2 4.1.1.4.3 1.2.2.8-.1.2.5 1.8s.2 1 1.8 4.4 3.5 6.7 4.4 9.2c1 2.5-.7.2-.5.9.2.7.7.7 1.4 2l1.8 3.2s-1.1-.7-2.7-2.6c-1.6-1.9-1.8-2.3-3.5-4.7-1.7-2.4-1.3-1.5-3.2-4.8a86 86 0 01-4.3-8.6c-1.7-3.8-2.4-6.4-2.4-6.4l-.1.3.3.6.2 1.2.3.9.3.9.2 1 .4.9.3.8.5.9.5.9.2.9.4.7.4.7c.1.3.3.5.3.9l.1.4.2.4c.5 1 1 2 1.7 2.9.7 1 1.5 1.7 2 2.7l1.7 2.9c.5 1 1.6 1.8 2 2.6a7 7 0 001.9 2.4l.6.8.5.6c.3.3.4.5.7.6a10.5 10.5 0 001 1.3l.5.6c.3.3.6.3.9.5l.6.5.5.7.5.7c.1.3.5.5.7.7l.7.5c.3.2.4.5.7.6l.5.7c.1.2.5.4.7.5l.5.7.7.5.6.5.7.5.6.5.6.6.5.6.2.2 2.8.9-.7-.5c-.9-.6-1.3-.7-2.7-2-1.4-1.3-.6-.2-3-3.2s-4-4.8-6.7-8.9c-2.6-4.2-1.8-2.7-4.2-7.8-2.5-5.1-3.2-6.4-5.6-12.8s-2.1-7.4-3.8-12.9l-2.9-9z" fill-rule="evenodd" clip-rule="evenodd" fill="#26372c"/><path d="M84.6 194.7c-1-.7-1.7-1.6-2.1-2.5v2.1l.7 1.2 1.4.8v-1.6z" fill="#6d4448"/><path d="M87.4 191.8c-.3 1-.7 2-1.8 2.9-.2 1.3.7 1.2 1.3 1.6 1-.3 1.6-1.5 2.2-2.5-.7-.6-1.2-1.4-1.7-2z" fill="#744d41"/><path class="st75" d="M84.6 194.7l-.1 1.7s1.2.4 1.8.4c.7 0 .9-.3.9-.3l-.2-.7s-.8-.2-1.1-.5c-.3-.3-.2-.7-.2-.7l-1.1.1z"/><script/></g><g id="Layer_2_1_"><path class="st119" d="M307.4 111.9c0-4.1-2.1-6.4-4.6-6.4l-2.8-.1c-.3 0-.4-.3-.4-.5v-1.8c0-.3.1-.4.4-.4l1.9.1 4.9.1 4.6-.1c.9 0 1.4.3 2 .9l14.5 18.8c.7 1 12.5 15.3 14.1 17.5h.3v-8.2l-.2-13c-.1-2.7-.4-9.5-.8-10.6-.5-1.7-1.9-2.7-3.8-2.7h-2.2c-.3 0-.4-.1-.4-.5v-1.8c0-.3.1-.4.4-.4 1 0 3.2.2 7.6.2 4.2 0 5.8-.2 6.7-.2.5 0 .5.2.5.5v1.7c0 .3-.1.5-.4.5H348c-1.9 0-2.6 1.2-2.7 3.8-.3 4.6-.3 11.5-.3 16v25.9c0 1-.1 1.7-.3 1.7-.8 0-1.4-.8-1.7-1.1l-8.5-10.6-10.3-12.8c-.7-.7-13.5-16.7-13.9-17.2h-.4v15.4c0 6.4.5 17.7.7 19.1.3 2.7.7 4 2.6 4h2.1c.5 0 .5.2.5.6v1.5c0 .4-.1.5-.5.5l-6.7-.2-6.9.2c-.3 0-.3-.1-.3-.5V150c0-.2.1-.4.4-.4h2.4c2 0 2.8-.8 3.1-4.2.1-1.3.3-9.2.3-21.5l-.2-12zM368.3 148.4a24.2 24.2 0 01-10.2-20.5c0-4.2 1.1-10.8 6.4-17.2a22.7 22.7 0 0118.8-8.8c4.4 0 10 .9 15.5 5.5 5 4.4 9.5 11.1 9.5 20.7 0 5-1.6 10.3-5.2 15.1a23.5 23.5 0 01-19.9 9.8c-3.4-.1-9.4-1.2-14.9-4.6zm33.3-19.8c0-15.1-10.8-24.1-18.5-24.1-1 0-5.7-.8-10.9 4.1a24.7 24.7 0 00-6.9 17.1c0 18.2 12.7 24.6 18.6 24.6 15.1 0 17.7-15.6 17.7-21.7zM433.6 105.4h-1.7c-2.2 0-8.2 0-10.9.8-3.1 1-5.2 5.8-6.2 8-.1.3-.3.4-.7.3l-1.2-.3c-.2-.1-.4-.1-.3-.5l3.3-12.2c.1-.9.4-1.1.7-1.1.3 0 .5.1.8.3l.9.6c1.2.9 1.9 1.1 4 1.2 3.7.1 6.6.4 13.1.4h3.3c7.5 0 10.5-.3 13.9-.4 1.5-.1 2.4-.3 3.6-1l1.3-.8c.3-.2.5-.3.8-.3.3 0 .5.2.6 1.1.1.8 1.4 9.4 2 12.5.1.3-.1.5-.4.5l-1.1.3c-.3.1-.3 0-.5-.5-.5-1.3-2.6-6.6-4.9-7.8a43 43 0 00-12-1.2h-2V125l.1 21.5c.1 1.7.7 2.8 2.4 2.8h4.4c.6 0 .7.2.7.7v1.4c0 .3-.1.5-.7.5-.7 0-2.9-.2-9.7-.2-6.6 0-9.6.2-10.5.2-.5 0-.6-.3-.6-.7v-1.3c0-.5.1-.7.5-.7h4.7c1.4 0 2.2-.8 2.3-1.7.2-2 .2-23.3.2-24.6l-.2-17.5zM470.9 132.7c-.7 1.7-4.5 12.3-4.8 13.7l-.2 1.5c0 1 .8 1.5 2.4 1.5h3.3c.5 0 .7.1.7.5v1.6c0 .5-.2.6-.5.6-1 0-3.8-.2-7.9-.2-5 0-6.6.2-7.5.2-.3 0-.5-.1-.5-.5v-1.7c0-.3.3-.5.5-.5h2.4c2.1 0 3-1 4-3.2.5-1.1 5.5-13.9 7.5-19.6l6.7-18.1c.2-.7.5-1.6.1-2.4-.2-.3-.5-.6-.5-.9 0-.2.1-.5.6-.6 1.9-.4 5-2.5 5.7-3.5.3-.3.5-.6.9-.6s.5.4.7 1.2c1.3 4.4 6.7 19.9 8 24.3 1.6 5.4 6.1 18.3 7.1 20.3 1.2 2.3 3 3.1 4.7 3.1h2.3c.4 0 .5.2.5.5v1.7c0 .3-.2.5-.7.5-1.2 0-2.7-.2-8.3-.2-5.7 0-8.2.2-9.8.2-.3 0-.5-.2-.5-.6v-1.6c0-.4.2-.5.6-.5h1.7c1.9 0 2.6-.7 2.1-2.6-.5-2.5-3.4-11.3-4.4-14.1h-16.9zm16.2-2.5l-6.6-20.4c-.2-.5-.3-1-.5-1-.3 0-.5.5-.7 1-.3.9-6.9 18.6-7.4 20.3h15.2zM518.6 122.9l-.3-15.1c-.1-1.7-.8-2.4-3.5-2.4h-4c-.3 0-.5-.1-.5-.4v-1.9c0-.3.2-.4.5-.4.8 0 4.4.2 10.8.2 6.2 0 8.4-.2 9.4-.2.3 0 .5.2.5.5v1.7c0 .3-.2.5-.5.5h-3.3c-1.4 0-2.4.5-2.4 1.9l-.2 16.8v5.3l.2 17.4c0 2.1 1 2.5 3.3 2.5h2.8c.3 0 .5.1.5.5v1.8c0 .3-.2.4-.6.4-.8 0-3.6-.2-9.6-.2-6.6 0-9.6.2-10.3.2-.3 0-.5-.1-.5-.4v-1.9c0-.3.2-.4.5-.4h3.9c1.4 0 2.8-.2 3.1-2l.3-19.7-.1-4.7zM575.8 103.2c0-.3.1-.5.5-.5.7 0 3 .2 8.4.2 5.8 0 8.9-.2 9.6-.2.6 0 .7.2.7.5v1.6c0 .3-.1.6-.5.6h-3.3c-1.9 0-2.9.6-2.9 1.8l.3 2.4c.4 2.5 3 10.7 4.2 14.6.8 2.6 4.8 14.5 6.4 18.8h.1a1056 1056 0 007.4-19.1l4.4-12.9c.5-1.7 1-3 1-4 0-.8-.5-1.6-2.2-1.6H608c-.3 0-.3-.2-.3-.6v-1.6c0-.3.1-.5.4-.5.6 0 3.8.2 8.2.2 5 0 6.8-.2 7.4-.2.4 0 .5.1.5.5v1.7c0 .3-.1.5-.5.5h-1.9c-2.3 0-3.6 1.1-4.9 2.7-1.8 2.2-7.3 16.4-8.5 19.3-.8 2.3-9.8 24.3-10.1 25-.3.5-.6.9-1 .9-.5 0-.8-.7-1.2-1.6l-8.7-24.6-.7-2.4c-1.7-4.9-4.9-14.9-5.8-17-.7-1.6-1.4-2.3-2.8-2.3h-1.8c-.3 0-.3-.2-.3-.5l-.2-1.7zM641 125.4l8.8-.4c2-.3 2.6-.9 3.2-3 .2-.7.5-2.1.5-3.4 0-.3.2-.5.5-.5l1.7.1c.3 0 .5.3.4.5-.2 1.2-.2 6.8-.2 7.9 0 2.4.3 5.7.4 7.2 0 .3-.1.5-.4.5l-1.5.2c-.3.1-.5-.1-.5-.6a32 32 0 00-.7-3.3c-.4-1.4-1.2-2.5-3-2.7-3.3-.3-8-.3-9.1-.3v4.3l.1 11.8c.1 3.6 1.8 5 4 5.4 1.4.3 3.4.5 5.1.5l6.1-.2a13 13 0 006-2.4 72 72 0 005.7-7.3c.2-.3.4-.6.8-.4l1.1.6c.3.2.3.4.1 1l-3.7 10.2c-.2.6-.7 1-1.5 1l-6-.1-21.7-.1-5.9.1-3 .1c-.4 0-.6-.1-.6-.5v-1.9c0-.3.2-.3.7-.3h2.8c3.2 0 3.5-.5 3.5-3v-23.2l-.2-15.1c-.3-2.2-1-2.7-3.5-2.7h-2.5c-.3 0-.5-.1-.5-.5V103c0-.2.1-.3.5-.3 1.5 0 4 .2 8.5.2h3l20.5-.1 2.8-.1c.3 0 .5.1.5.3l3.5 11.1c.1.3.1.5-.2.6l-1 .5c-.2.1-.5-.1-.5-.2-.1-.3-5.3-6.8-6.9-7.9-1.4-1-3.4-1.8-5.3-1.9l-12.3-.3-.1 20.5zM681.6 111.9c0-4.1-2.1-6.4-4.6-6.4l-2.8-.1c-.3 0-.4-.3-.4-.5v-1.8c0-.3.1-.4.4-.4l1.9.1 4.9.1 4.6-.1c.9 0 1.4.3 2 .9l14.5 18.8c.7 1 12.5 15.3 14.1 17.5h.3v-8.2l-.2-13c-.1-2.7-.4-9.5-.8-10.6-.5-1.7-1.9-2.7-3.8-2.7h-2.2c-.3 0-.4-.1-.4-.5v-1.8c0-.3.1-.4.4-.4 1 0 3.2.2 7.6.2 4.2 0 5.8-.2 6.7-.2.5 0 .5.2.5.5v1.7c0 .3-.1.5-.4.5H722c-1.9 0-2.6 1.2-2.7 3.8-.3 4.6-.3 11.5-.3 16v25.9c0 1-.1 1.7-.3 1.7-.8 0-1.4-.8-1.7-1.1l-8.5-10.6-10.3-12.8c-.7-.7-13.5-16.7-13.9-17.2h-.4v15.4c0 6.4.5 17.7.7 19.1.3 2.7.7 4 2.6 4h2.1c.5 0 .5.2.5.6v1.5c0 .4-.1.5-.5.5l-6.7-.2-6.9.2c-.3 0-.3-.1-.3-.5V150c0-.2.1-.4.4-.4h2.4c2 0 2.8-.8 3.1-4.2.1-1.3.3-9.2.3-21.5v-12zM745.5 125.4l8.8-.4c2-.3 2.6-.9 3.2-3 .2-.7.5-2.1.5-3.4 0-.3.2-.5.5-.5l1.7.1c.3 0 .5.3.4.5-.2 1.2-.2 6.8-.2 7.9 0 2.4.3 5.7.4 7.2 0 .3-.1.5-.4.5l-1.5.2c-.3.1-.5-.1-.5-.6a32 32 0 00-.7-3.3c-.4-1.4-1.2-2.5-3-2.7-3.3-.3-8-.3-9.1-.3v4.3l.1 11.8c.1 3.6 1.8 5 4 5.4 1.4.3 3.4.5 5.1.5l6.1-.2a13 13 0 006-2.4 72 72 0 005.7-7.3c.2-.3.4-.6.8-.4l1.1.6c.3.2.3.4.1 1l-3.7 10.2c-.2.6-.7 1-1.5 1l-6-.1-21.7-.1-5.9.1-3 .1c-.4 0-.6-.1-.6-.5v-1.9c0-.3.2-.3.7-.3h2.8c3.2 0 3.5-.5 3.5-3v-23.2l-.2-15.1c-.3-2.2-1-2.7-3.5-2.7H733c-.3 0-.5-.1-.5-.5V103c0-.2.1-.3.5-.3 1.5 0 4 .2 8.5.2h3l20.5-.1 2.8-.1c.3 0 .5.1.5.3l3.5 11.1c.1.3.1.5-.2.6l-1 .5c-.2.1-.5-.1-.5-.2-.1-.3-5.3-6.8-6.9-7.9-1.4-1-3.4-1.8-5.3-1.9l-12.3-.3-.1 20.5zM781.8 151.9c-.5 0-1.3 0-1.3-.5 0-.4.1-1 .4-1.3a1751 1751 0 0032.7-44.9h-18.8c-1 0-1.8.3-2.8 1.1-1.4 1.2-7.1 8.2-8.5 10.3-.2.3-.4.2-.6.1l-.9-.4c-.2-.1-.3-.2-.1-.6l4.4-12.5c.2-.6.5-.7.8-.7l1.4.1c3.3.4 13 .4 18.8.4l7.5-.2 7.3-.2c1.1 0 1.2.7.5 1.7-1.3 1.5-31.8 43.1-33.1 45.3h24.4c2.6-1.6 8.8-9.1 9.7-10.2.2-.2.3-.3.6-.1l1 .5c.2.1.3.3.1.6-.9 1.7-4.4 10.1-4.9 12-.1.5-.5.7-.9.7l-1.7-.3c-3.8-.5-14.8-.7-21.4-.7l-14.6-.2zM837.5 122.9l-.3-15.1c-.1-1.7-.8-2.4-3.5-2.4h-4c-.3 0-.5-.1-.5-.4v-1.9c0-.3.2-.4.5-.4.8 0 4.4.2 10.8.2 6.2 0 8.4-.2 9.4-.2.3 0 .5.2.5.5v1.7c0 .3-.2.5-.5.5h-3.3c-1.4 0-2.4.5-2.4 1.9l-.2 16.8v5.3l.2 17.4c0 2.1 1 2.5 3.3 2.5h2.8c.3 0 .5.1.5.5v1.8c0 .3-.2.4-.6.4-.8 0-3.6-.2-9.6-.2-6.6 0-9.6.2-10.3.2-.3 0-.5-.1-.5-.4v-1.9c0-.3.2-.4.5-.4h3.9c1.4 0 2.8-.2 3.1-2l.3-19.7-.1-4.7zM870.3 132.7c-.7 1.7-4.5 12.3-4.8 13.7l-.2 1.5c0 1 .8 1.5 2.4 1.5h3.3c.5 0 .7.1.7.5v1.6c0 .5-.2.6-.5.6-1 0-3.8-.2-7.9-.2-5 0-6.6.2-7.5.2-.3 0-.5-.1-.5-.5v-1.7c0-.3.3-.5.5-.5h2.4c2.1 0 3-1 4-3.2.5-1.1 5.5-13.9 7.5-19.6l6.7-18.1c.2-.7.5-1.6.1-2.4-.2-.3-.5-.6-.5-.9 0-.2.1-.5.6-.6 1.9-.4 5-2.5 5.7-3.5.3-.3.5-.6.9-.6s.5.4.7 1.2c1.3 4.4 6.7 19.9 8 24.3 1.6 5.4 6.1 18.3 7.1 20.3 1.2 2.3 3 3.1 4.7 3.1h2.3c.4 0 .5.2.5.5v1.7c0 .3-.2.5-.7.5-1.2 0-2.7-.2-8.3-.2-5.7 0-8.2.2-9.8.2-.3 0-.5-.2-.5-.6v-1.6c0-.4.2-.5.6-.5h1.7c1.9 0 2.6-.7 2.1-2.6-.5-2.5-3.4-11.3-4.4-14.1h-16.9zm16.3-2.5l-6.6-20.4c-.2-.5-.3-1-.5-1-.3 0-.5.5-.7 1-.3.9-6.9 18.6-7.4 20.3h15.2zM917.7 111.9c0-4.1-2.1-6.4-4.6-6.4l-2.8-.1c-.3 0-.4-.3-.4-.5v-1.8c0-.3.1-.4.4-.4l1.9.1 4.9.1 4.6-.1c.9 0 1.4.3 2 .9l14.5 18.8c.7 1 12.5 15.3 14.1 17.5h.3v-8.2l-.2-13c-.1-2.7-.4-9.5-.8-10.6-.5-1.7-1.9-2.7-3.8-2.7h-2.2c-.3 0-.4-.1-.4-.5v-1.8c0-.3.1-.4.4-.4 1 0 3.2.2 7.6.2 4.2 0 5.8-.2 6.7-.2.5 0 .5.2.5.5v1.7c0 .3-.1.5-.4.5h-1.9c-1.9 0-2.6 1.2-2.7 3.8-.3 4.6-.3 11.5-.3 16v25.9c0 1-.1 1.7-.3 1.7-.8 0-1.4-.8-1.7-1.1l-8.5-10.6-10.3-12.8c-.7-.7-13.5-16.7-13.9-17.2h-.4v15.4c0 6.4.5 17.7.7 19.1.3 2.7.7 4 2.6 4h2.1c.5 0 .5.2.5.6v1.5c0 .4-.1.5-.5.5l-6.7-.2-6.9.2c-.3 0-.3-.1-.3-.5V150c0-.2.1-.4.4-.4h2.4c2 0 2.8-.8 3.1-4.2.1-1.3.3-9.2.3-21.5v-12zM974.8 122.9l-.3-15.1c-.1-1.7-.8-2.4-3.5-2.4h-4c-.3 0-.5-.1-.5-.4v-1.9c0-.3.2-.4.5-.4.8 0 4.4.2 10.8.2 6.2 0 8.4-.2 9.4-.2.3 0 .5.2.5.5v1.7c0 .3-.2.5-.5.5h-3.3c-1.4 0-2.4.5-2.4 1.9l-.2 16.8v5.3l.2 17.4c0 2.1 1 2.5 3.3 2.5h2.8c.3 0 .5.1.5.5v1.8c0 .3-.2.4-.6.4-.8 0-3.6-.2-9.6-.2-6.6 0-9.6.2-10.3.2-.3 0-.5-.1-.5-.4v-1.9c0-.3.2-.4.5-.4h3.9c1.4 0 2.8-.2 3.1-2l.3-19.7-.1-4.7zM1033.6 120.4l-.1-11.4c-.1-2.3-1-3.5-1.9-3.5h-2.8c-.3 0-.4-.2-.4-.5v-1.9c0-.3.1-.5.4-.5.6 0 2.8.2 10.3.2l12.8-.2c5.4 0 9.4 1.9 12.3 4.6 2.5 2.3 4 5 4 7.5 0 8.8-6.6 12.7-12.7 13.3v.5c2.1.7 3.3 2 4.6 3.7.9 1.1 4.7 7.3 5.3 8.1.4.6 4.2 5.9 5.5 7.5.8.9 3.5 1.4 5 1.4.5 0 .5.3.5.5v1.7c0 .4-.1.6-.5.6-.5 0-2.4-.2-7.7-.2l-6.6.2a52.7 52.7 0 01-7.5-12c-2.4-4.7-5.2-9.8-8.5-9.8h-2.4v3.5l.3 12.7c.1 1.4.7 2.7 1.7 2.7h2.8c.5 0 .5.2.5.5v1.7c0 .5-.1.6-1.1.6-.1 0-1.8-.2-9.1-.2s-8.9.2-9.7.2c-.5 0-.5-.2-.5-.7v-1.6c0-.3 0-.5.3-.5h2.1c1.5 0 2.8-.5 2.8-2.2l.1-19.9.2-6.6zm9.7 7.5l2.8.1c9.1 0 11.3-8.7 11.3-12a12 12 0 00-2.6-7.8c-2.5-2.2-5.6-3-7.7-3-1.2 0-2.1.1-2.6.6-.4.3-.6 1-.7 1.9l-.5 20.2zM1086.2 122.9l-.3-15c-.1-1.7-.8-2.4-2.3-2.4h-3.3c-.3 0-.5-.1-.5-.4v-2c0-.3.2-.4.5-.4.8 0 4.4.2 11.1.2 7.1 0 9.3-.2 10.2-.2.3 0 .5.2.5.6v1.7c0 .3-.2.5-.5.5h-2c-1.7 0-2.8.5-2.8 1.8l-.2 16.8v5.3l.2 17.3c0 2.1 1 2.5 2.4 2.5h2.8c.3 0 .5.1.5.5v1.9c0 .3-.2.4-.6.4-.8 0-3.6-.2-10.2-.2-7.3 0-10.2.2-11 .2-.3 0-.5-.1-.5-.5v-1.9c0-.3.2-.4.5-.4h2c1.4 0 2.8-.2 3.1-1.9l.3-19.7v-4.7h.1zM1114.2 109.1c0-2.4-.5-3.5-1.9-3.5h-3.3c-.4 0-.5-.1-.5-.6v-1.7c0-.4.1-.5.6-.5.7 0 4.1.2 11.3.2 6.1 0 9.4-.2 10.2-.2.5 0 .6.1.6.5v1.8c0 .3-.1.5-.5.5h-2.4c-2.4 0-3.5 1.3-3.7 2.7l-.1 9v4.6l.3 14.7c.1 3.2.7 6.3 2.2 8.2a11 11 0 008.7 3.9c2.6 0 6.3-1.3 8.2-3 2.8-2.5 4.4-6.3 4.4-11.3v-10.6c0-5.8-.7-13.4-1-15-.3-1.8-1.4-3-2.6-3h-2.2c-.4 0-.5-.2-.5-.5v-1.8c0-.3.1-.5.5-.5.7 0 3.9.2 8.6.2 3.7 0 5.9-.2 6.6-.2.6 0 .7.3.7.6v1.5c0 .4-.1.7-.4.7h-2.1c-2.6 0-2.8 1.9-3 2.6l-.1 11.5c0 1-.1 13.1-.3 15.8-.4 5.7-2.3 10-5.9 13.2-3 2.7-7.8 4.3-12.3 4.3a31 31 0 01-10.6-1.7 15.6 15.6 0 01-8-9.1c-1.2-3-1.4-7.6-1.4-16.7l-.1-16.6zM1205.9 131.8l-.2-13c-.1-2.7-.4-9.5-.6-10.5-.4-1.7-2.1-2.7-3.7-2.7h-2.2c-.3 0-.4-.2-.4-.6v-1.7c0-.3.1-.5.6-.5.7 0 3 .2 8.1.2 4.2 0 5.8-.2 6.6-.2.6 0 .7.1.7.5v1.7c0 .3-.1.6-.3.6h-1.9c-1.2 0-1.9 1.2-2.1 3.7-.5 4.6-1.6 20.3-1.6 29.4v11.8c0 1-.1 2.3-1 2.3-1 0-1.9-.3-2.7-1.1-1.2-1.1-4.6-4.8-8.7-9.7l-11.8-14.1a540.4 540.4 0 01-12.3-15.6h-.5v14c0 5.7.6 14.3.7 16.9.1 4 1.4 6.1 4.3 6.1h1.7c.5 0 .5.2.5.6v1.7c0 .4-.1.5-.5.5l-8.1-.2-7.6.2c-.3 0-.3-.1-.3-.6v-1.8c0-.2.1-.4.4-.4h2.4c1.5 0 2.6-2.2 3-6.8.1-1.3.6-12.4.6-22.6v-6.2c0-4.1-2.5-8-5.9-8l-1.7-.1c-.3 0-.4-.3-.4-.5V103c0-.3.1-.4.4-.4l2.2.1 7.2.1 5.3-.1c.9 0 1.4.3 2 .9l16.1 19.7L1206 138h.3l-.4-6.2zM1227.4 122.9l-.3-15c-.1-1.7-.8-2.4-2.3-2.4h-3.3c-.3 0-.5-.1-.5-.4v-2c0-.3.2-.4.5-.4.8 0 4.4.2 11.1.2 7.1 0 9.3-.2 10.2-.2.3 0 .5.2.5.6v1.7c0 .3-.2.5-.5.5h-2c-1.7 0-2.8.5-2.8 1.8l-.2 16.8v5.3l.2 17.3c0 2.1 1 2.5 2.4 2.5h2.8c.3 0 .5.1.5.5v1.9c0 .3-.2.4-.6.4-.8 0-3.6-.2-10.2-.2-7.3 0-10.2.2-11 .2-.3 0-.5-.1-.5-.5v-1.9c0-.3.2-.4.5-.4h2c1.4 0 2.8-.2 3.1-1.9l.3-19.7v-4.7zM1269.2 106.1h-2.4c-2.2 0-6.4.1-9.3 1.1a46 46 0 00-6.3 7.8c-.2.3-.4.5-.7.5l-1.5-.5c-.3-.1-.3-.4-.3-.6l3.3-13.4c.2-.9.5-1.2 1-1.2s.7.3 1.3 1c.7 1 2.1 1.6 4.6 1.7 3.7.2 6.6.4 13.8.4h4c7.5 0 10.5-.3 13.4-.4 1.5-.1 4.2-.9 5-1.7.7-.7 1.1-1 1.6-1s.7.3.8 1.1l2.1 13.8c.1.3-.1.5-.3.6l-1.4.5c-.3.1-.4-.1-.7-.6a49.7 49.7 0 00-5.9-7.8c-1.7-1-7.9-1.3-9.5-1.3h-2.3v19l.1 21.4c.1 1.7.7 2.8 2.4 2.8h3.1c.6 0 .7.2.7.7v1.6c0 .3-.1.5-.7.5-.7 0-2.9-.2-10.6-.2-7.3 0-10.2.2-11.2.2-.5 0-.6-.3-.6-.8V150c0-.5.1-.7.5-.7h3.5c1.4 0 2.2-.8 2.4-2.1l.1-24v-17.1zM1312 122.9l-.3-15c-.1-1.7-.8-2.4-2.3-2.4h-3.3c-.3 0-.5-.1-.5-.4v-2c0-.3.2-.4.5-.4.8 0 4.4.2 11.1.2 7.1 0 9.3-.2 10.2-.2.3 0 .5.2.5.6v1.7c0 .3-.2.5-.5.5h-2c-1.7 0-2.8.5-2.8 1.8l-.2 16.8v5.3l.2 17.3c0 2.1 1 2.5 2.4 2.5h2.8c.3 0 .5.1.5.5v1.9c0 .3-.2.4-.6.4-.8 0-3.6-.2-10.2-.2-7.3 0-10.2.2-11 .2-.3 0-.5-.1-.5-.5v-1.9c0-.3.2-.4.5-.4h2c1.4 0 2.8-.2 3.1-1.9l.3-19.7v-4.7z"/></g></svg>